<svg xmlns="http://www.w3.org/2000/svg" xmlns:xlink="http://www.w3.org/1999/xlink" enable-background="new 0 0 4680 3120" viewBox="0 0 4680 3120"><ellipse cx="1321.883" cy="2484.336" fill="#e1f5ff" rx="222.219" ry="64.454"/><ellipse cx="3771.223" cy="2572.282" fill="#e1f5ff" rx="279.091" ry="64.454"/><ellipse cx="2466.401" cy="2368.278" fill="#e1f5ff" rx="1159.625" ry="39.179"/><path fill="#8ce5be" d="m1924.423 1774.213-781.741 431.724c-13.772 7.606-31.103 2.607-38.709-11.166L483.008 1070.364c-7.606-13.772-2.607-31.103 11.165-38.709l781.741-431.724c13.772-7.606 31.103-2.607 38.709 11.165l620.964 1124.407c7.607 13.773 2.608 31.104-11.164 38.71z"/><path fill="#fff" d="m1845.922 1733.457-695.927 384.332c-12.261 6.771-27.689 2.321-34.46-9.94l-552.8-1000.978c-6.771-12.261-2.321-27.689 9.94-34.46l695.927-384.332c12.261-6.771 27.689-2.321 34.46 9.94l552.799 1000.978c6.771 12.261 2.321 27.689-9.939 34.46z"/><path fill="#3e4a60" d="m956.981 756.38-25.453-46.089c-5.467-9.899-17.923-13.492-27.822-8.025l-124.464 68.736c-9.899 5.467-13.492 17.923-8.025 27.822l25.453 46.089c5.467 9.899 1.874 22.356-8.025 27.822l-37.183 20.535c-9.899 5.467-13.492 17.923-8.025 27.822l37.657 68.188c2.665 4.827 8.739 6.578 13.565 3.913l289.34-159.791c4.827-2.666 6.578-8.739 3.913-13.565l-37.657-68.188c-5.467-9.899-17.923-13.492-27.822-8.025l-37.628 20.781c-9.901 5.467-22.357 1.874-27.824-8.025z"/><path fill="#79b1e8" d="m1317.905 863.464-621.752 342.889c-6.585 3.631-14.867 1.237-18.498-5.348-3.632-6.585-1.237-14.867 5.348-18.499l621.752-342.889c6.585-3.631 14.867-1.237 18.499 5.348 3.631 6.586 1.236 14.868-5.349 18.499zM1345.846 914.129l-621.752 342.889c-6.585 3.632-14.867 1.237-18.499-5.348-3.632-6.585-1.237-14.867 5.348-18.499l621.752-342.889c6.585-3.632 14.867-1.237 18.499 5.348 3.631 6.585 1.237 14.867-5.348 18.499zM1373.787 964.793l-621.752 342.889c-6.585 3.631-14.867 1.237-18.498-5.348-3.631-6.585-1.237-14.867 5.348-18.499l621.752-342.889c6.585-3.632 14.867-1.237 18.498 5.348 3.631 6.586 1.237 14.868-5.348 18.499zM1401.728 1015.458l-621.752 342.889c-6.585 3.631-14.867 1.237-18.499-5.348-3.632-6.585-1.237-14.867 5.348-18.499l621.752-342.889c6.585-3.631 14.867-1.237 18.499 5.348 3.631 6.585 1.237 14.867-5.348 18.499zM1429.669 1066.123l-621.752 342.889c-6.585 3.632-14.867 1.237-18.499-5.348-3.632-6.585-1.237-14.867 5.348-18.499l621.752-342.889c6.585-3.631 14.867-1.237 18.499 5.348 3.631 6.585 1.237 14.867-5.348 18.499zM1455.978 1115.301 834.226 1458.19c-6.585 3.631-14.867 1.237-18.499-5.348-3.632-6.585-1.237-14.867 5.348-18.499l621.752-342.889c6.585-3.631 14.867-1.237 18.499 5.348 3.632 6.585 1.237 14.867-5.348 18.499zM1484.883 1165.738l-621.752 342.889c-6.585 3.632-14.867 1.237-18.499-5.348-3.632-6.585-1.237-14.867 5.348-18.499l621.752-342.889c6.585-3.631 14.867-1.237 18.499 5.348 3.631 6.585 1.237 14.867-5.348 18.499zM1512.824 1216.402l-621.752 342.889c-6.585 3.632-14.867 1.237-18.499-5.348-3.632-6.585-1.237-14.867 5.348-18.499l621.752-342.889c6.585-3.632 14.867-1.237 18.499 5.348 3.631 6.586 1.237 14.868-5.348 18.499zM1542.19 1269.587l-621.752 342.889c-6.585 3.632-14.867 1.237-18.499-5.348-3.631-6.585-1.237-14.867 5.348-18.499l621.752-342.889c6.585-3.631 14.867-1.237 18.499 5.348 3.631 6.585 1.237 14.867-5.348 18.499zM1570.131 1320.251 948.379 1663.14c-6.585 3.631-14.867 1.237-18.499-5.348-3.632-6.585-1.237-14.867 5.348-18.499l621.752-342.889c6.585-3.631 14.867-1.237 18.499 5.348 3.631 6.586 1.237 14.868-5.348 18.499zM1598.072 1370.916 976.32 1713.805c-6.585 3.631-14.867 1.237-18.499-5.348-3.632-6.585-1.237-14.867 5.348-18.499l621.752-342.889c6.585-3.631 14.867-1.237 18.499 5.348 3.631 6.585 1.237 14.867-5.348 18.499zM1626.013 1421.58l-621.752 342.889c-6.585 3.632-14.867 1.237-18.498-5.348-3.631-6.585-1.237-14.867 5.348-18.499l621.752-342.889c6.585-3.632 14.867-1.237 18.498 5.348 3.631 6.586 1.237 14.868-5.348 18.499zM1653.954 1472.245l-621.752 342.889c-6.585 3.632-14.867 1.237-18.499-5.348-3.632-6.585-1.237-14.867 5.348-18.499l621.752-342.889c6.585-3.632 14.867-1.237 18.498 5.348 3.632 6.585 1.238 14.868-5.347 18.499zM1680.263 1521.423l-621.752 342.889c-6.585 3.632-14.867 1.237-18.499-5.348-3.631-6.585-1.237-14.867 5.348-18.498l621.752-342.889c6.585-3.632 14.867-1.237 18.499 5.348 3.631 6.585 1.237 14.867-5.348 18.498zM1709.168 1571.86l-621.752 342.889c-6.585 3.631-14.867 1.237-18.499-5.348-3.632-6.585-1.237-14.867 5.348-18.499l621.752-342.889c6.585-3.632 14.867-1.237 18.499 5.348 3.631 6.586 1.237 14.868-5.348 18.499zM1737.109 1622.525l-621.752 342.889c-6.585 3.631-14.867 1.237-18.499-5.348-3.632-6.585-1.237-14.867 5.348-18.499l621.752-342.889c6.585-3.631 14.867-1.237 18.499 5.348 3.631 6.585 1.237 14.867-5.348 18.499z"/><path fill="#06aaba" d="m1174.755 2137.927-288.459 79.407c-55.094 15.166-112.05-17.202-127.216-72.295l-184.381-669.795c-15.166-55.093 17.201-112.05 72.295-127.216l288.459-79.407c55.094-15.166 112.05 17.202 127.216 72.295l184.381 669.795c15.165 55.092-17.201 112.049-72.295 127.216z"/><path fill="#f1eedb" d="M782.798 1508.213c-2.132 3.751-4.506 7.27-7.194 10.518-23.095 28.448-63.898 36.814-96.81 18.112-32.911-18.704-46.604-58.039-33.985-92.44 1.415-3.972 3.224-7.813 5.354-11.564 2.133-3.751 4.547-7.341 7.235-10.589 23.127-28.337 63.899-36.815 96.81-18.112 32.911 18.704 46.493 58.07 33.985 92.44-1.414 3.972-3.264 7.883-5.395 11.635z"/><path fill="#dcd9c8" d="M782.798 1508.213c-2.132 3.751-4.506 7.27-7.194 10.518l-130.794-74.328c1.415-3.972 3.224-7.813 5.354-11.564 2.133-3.751 4.547-7.341 7.235-10.589l130.794 74.328c-1.414 3.972-3.264 7.883-5.395 11.635z"/><path fill="#1d1d1b" d="M754.208 1404.138c-3.739-2.123-7.587-3.851-11.491-5.285 25.203 20.446 34.652 54.806 23.562 85.273-1.414 3.971-3.262 7.882-5.394 11.635-2.132 3.75-4.507 7.27-7.196 10.517-20.472 25.218-54.848 34.611-85.318 23.402 3.231 2.619 6.685 5.039 10.422 7.163 32.91 18.702 73.713 10.337 96.809-18.112 2.688-3.248 5.062-6.768 7.194-10.518 2.131-3.752 3.98-7.663 5.395-11.635 12.51-34.37-1.072-73.736-33.983-92.44z" opacity=".05"/><path fill="#f1eedb" d="M1004.754 1447.113c-2.132 3.751-4.506 7.27-7.195 10.518-23.095 28.448-63.898 36.814-96.809 18.112-32.911-18.704-46.605-58.039-33.985-92.44 1.414-3.971 3.223-7.813 5.354-11.564 2.132-3.751 4.547-7.341 7.235-10.589 23.126-28.337 63.898-36.814 96.809-18.112 32.912 18.703 46.495 58.069 33.985 92.44-1.414 3.972-3.263 7.883-5.394 11.635z"/><path fill="#dcd9c8" d="M1004.754 1447.113c-2.132 3.751-4.506 7.27-7.195 10.518l-130.793-74.328c1.414-3.971 3.223-7.813 5.354-11.564 2.132-3.751 4.547-7.341 7.235-10.589l130.793 74.328c-1.414 3.972-3.263 7.883-5.394 11.635z"/><path fill="#1d1d1b" d="M976.163 1343.038c-3.737-2.124-7.587-3.851-11.49-5.285 25.203 20.446 34.65 54.807 23.562 85.273-1.415 3.972-3.264 7.883-5.395 11.635-2.132 3.75-4.506 7.27-7.195 10.517-20.472 25.218-54.848 34.611-85.319 23.402 3.232 2.619 6.685 5.039 10.423 7.163 32.91 18.702 73.714 10.336 96.809-18.112 2.688-3.248 5.063-6.768 7.195-10.518 2.131-3.752 3.98-7.663 5.394-11.635 12.511-34.371-1.072-73.737-33.984-92.44z" opacity=".05"/><path fill="#f1eedb" d="M838.405 1710.218c-2.132 3.751-4.506 7.271-7.194 10.518-23.095 28.448-63.898 36.816-96.81 18.112-32.91-18.702-46.604-58.039-33.984-92.439 1.415-3.972 3.224-7.814 5.354-11.564 2.132-3.753 4.546-7.342 7.235-10.589 23.126-28.338 63.899-36.816 96.81-18.112 32.91 18.702 46.494 58.069 33.984 92.439-1.414 3.971-3.263 7.884-5.395 11.635z"/><path fill="#dcd9c8" d="M838.405 1710.218c-2.132 3.751-4.506 7.271-7.194 10.518l-130.794-74.327c1.415-3.972 3.224-7.814 5.354-11.564 2.132-3.753 4.546-7.342 7.235-10.589l130.794 74.327c-1.414 3.971-3.263 7.884-5.395 11.635z"/><path fill="#1d1d1b" d="M809.816 1606.144c-3.739-2.125-7.587-3.853-11.491-5.286 25.203 20.447 34.652 54.807 23.562 85.274-1.414 3.971-3.262 7.883-5.394 11.634-2.132 3.751-4.507 7.271-7.195 10.518-20.472 25.218-54.849 34.61-85.318 23.401 3.231 2.619 6.686 5.04 10.423 7.163 32.91 18.702 73.712 10.337 96.809-18.112 2.688-3.247 5.063-6.767 7.194-10.518 2.132-3.751 3.98-7.663 5.395-11.635 12.509-34.37-1.075-73.737-33.985-92.439z" opacity=".05"/><path fill="#f1eedb" d="M1060.362 1649.117c-2.132 3.751-4.506 7.271-7.195 10.518-23.095 28.448-63.898 36.815-96.809 18.112-32.91-18.703-46.605-58.039-33.984-92.439 1.414-3.971 3.222-7.814 5.354-11.564 2.131-3.752 4.546-7.342 7.235-10.589 23.125-28.338 63.898-36.816 96.809-18.112 32.911 18.702 46.495 58.069 33.984 92.439-1.414 3.972-3.262 7.884-5.394 11.635z"/><path fill="#dcd9c8" d="M1060.362 1649.117c-2.132 3.751-4.506 7.271-7.195 10.518l-130.793-74.327c1.414-3.971 3.222-7.814 5.354-11.564 2.131-3.752 4.546-7.342 7.235-10.589l130.793 74.327c-1.414 3.972-3.262 7.884-5.394 11.635z"/><path fill="#1d1d1b" d="M1031.771 1545.043c-3.738-2.125-7.587-3.852-11.49-5.286 25.203 20.447 34.65 54.807 23.562 85.274-1.415 3.972-3.263 7.884-5.395 11.635-2.132 3.751-4.506 7.271-7.194 10.518-20.472 25.218-54.849 34.609-85.319 23.401 3.232 2.619 6.685 5.04 10.423 7.163 32.91 18.702 73.714 10.336 96.809-18.112 2.688-3.247 5.064-6.767 7.195-10.518s3.98-7.663 5.394-11.635c12.51-34.37-1.073-73.737-33.985-92.44z" opacity=".05"/><path fill="#f1eedb" d="M894.013 1912.223c-2.132 3.751-4.506 7.27-7.194 10.518-23.095 28.447-63.898 36.814-96.81 18.112-32.911-18.703-46.604-58.04-33.985-92.44 1.415-3.972 3.224-7.813 5.354-11.564 2.133-3.751 4.547-7.341 7.235-10.589 23.127-28.337 63.899-36.815 96.81-18.112 32.911 18.704 46.494 58.069 33.985 92.44-1.413 3.971-3.263 7.883-5.395 11.635z"/><path fill="#dcd9c8" d="M894.013 1912.223c-2.132 3.751-4.506 7.27-7.194 10.518l-130.794-74.328c1.415-3.972 3.224-7.813 5.354-11.564 2.133-3.751 4.547-7.341 7.235-10.589l130.794 74.328c-1.413 3.971-3.263 7.883-5.395 11.635z"/><path fill="#1d1d1b" d="M865.424 1808.148c-3.739-2.124-7.587-3.851-11.491-5.285 25.203 20.446 34.652 54.807 23.562 85.273-1.414 3.971-3.262 7.882-5.394 11.635-2.132 3.75-4.507 7.27-7.196 10.517-20.472 25.218-54.849 34.609-85.318 23.402 3.231 2.619 6.685 5.039 10.423 7.163 32.91 18.702 73.712 10.337 96.809-18.112 2.688-3.248 5.062-6.768 7.194-10.518 2.131-3.752 3.98-7.663 5.395-11.635 12.509-34.371-1.074-73.737-33.984-92.44z" opacity=".05"/><path fill="#f1eedb" d="M1115.97 1851.123c-2.132 3.751-4.506 7.27-7.195 10.518-23.095 28.447-63.898 36.814-96.809 18.112-32.911-18.704-46.606-58.04-33.985-92.44 1.414-3.972 3.223-7.813 5.354-11.564s4.547-7.341 7.235-10.589c23.126-28.337 63.898-36.814 96.809-18.112 32.912 18.703 46.495 58.069 33.985 92.44-1.414 3.972-3.263 7.882-5.394 11.635z"/><path fill="#dcd9c8" d="M1115.97 1851.123c-2.132 3.751-4.506 7.27-7.195 10.518l-130.793-74.328c1.414-3.972 3.223-7.813 5.354-11.564s4.547-7.341 7.235-10.589l130.793 74.329c-1.414 3.971-3.263 7.881-5.394 11.634z"/><path fill="#1d1d1b" d="M1087.379 1747.048c-3.737-2.124-7.587-3.851-11.49-5.285 25.203 20.446 34.65 54.807 23.562 85.273-1.415 3.972-3.263 7.883-5.395 11.635-2.132 3.75-4.506 7.27-7.195 10.517-20.472 25.218-54.849 34.609-85.319 23.402 3.232 2.619 6.685 5.039 10.423 7.163 32.91 18.702 73.714 10.336 96.809-18.112 2.688-3.248 5.063-6.769 7.195-10.518 2.131-3.752 3.98-7.663 5.394-11.635 12.511-34.371-1.072-73.737-33.984-92.44z" opacity=".05"/><path fill="#f1eedb" d="M949.621 2114.227c-2.132 3.751-4.506 7.271-7.194 10.518-23.095 28.448-63.898 36.815-96.81 18.112-32.91-18.702-46.604-58.039-33.984-92.439 1.415-3.972 3.224-7.814 5.354-11.564 2.133-3.753 4.546-7.342 7.235-10.589 23.126-28.338 63.899-36.816 96.81-18.112 32.91 18.702 46.493 58.07 33.984 92.439-1.414 3.972-3.263 7.884-5.395 11.635z"/><path fill="#dcd9c8" d="M949.621 2114.227c-2.132 3.751-4.506 7.271-7.194 10.518l-130.794-74.327c1.415-3.972 3.224-7.814 5.354-11.564 2.133-3.753 4.546-7.342 7.235-10.589l130.794 74.327c-1.414 3.972-3.263 7.884-5.395 11.635z"/><path fill="#1d1d1b" d="M921.032 2010.153c-3.739-2.125-7.587-3.852-11.491-5.286 25.203 20.447 34.652 54.807 23.562 85.273-1.414 3.971-3.262 7.884-5.394 11.635-2.132 3.751-4.507 7.271-7.195 10.519-20.472 25.218-54.849 34.609-85.318 23.401 3.231 2.619 6.685 5.04 10.423 7.163 32.91 18.702 73.712 10.337 96.808-18.112 2.688-3.247 5.063-6.767 7.194-10.518 2.132-3.751 3.98-7.663 5.395-11.635 12.509-34.37-1.074-73.738-33.984-92.44z" opacity=".05"/><path fill="#f1eedb" d="M1171.578 2053.127c-2.132 3.751-4.506 7.271-7.195 10.518-23.095 28.448-63.898 36.815-96.809 18.112-32.91-18.702-46.605-58.039-33.984-92.439 1.414-3.971 3.222-7.814 5.354-11.564 2.131-3.752 4.546-7.342 7.235-10.589 23.125-28.338 63.898-36.815 96.809-18.112 32.912 18.702 46.495 58.069 33.984 92.439-1.414 3.972-3.263 7.884-5.394 11.635z"/><path fill="#dcd9c8" d="M1171.578 2053.127c-2.132 3.751-4.506 7.271-7.195 10.518l-130.793-74.327c1.414-3.971 3.222-7.814 5.354-11.564 2.131-3.752 4.546-7.342 7.235-10.589l130.793 74.327c-1.414 3.972-3.263 7.884-5.394 11.635z"/><path fill="#1d1d1b" d="M1142.987 1949.053c-3.738-2.125-7.587-3.853-11.49-5.286 25.203 20.447 34.65 54.807 23.562 85.273-1.415 3.972-3.263 7.884-5.395 11.635-2.132 3.751-4.506 7.271-7.194 10.518-20.472 25.218-54.849 34.61-85.319 23.401 3.232 2.618 6.685 5.04 10.423 7.163 32.91 18.703 73.714 10.336 96.809-18.112 2.688-3.247 5.064-6.767 7.195-10.518 2.132-3.751 3.98-7.663 5.394-11.635 12.51-34.37-1.073-73.737-33.985-92.439z" opacity=".05"/><path fill="#0593a1" d="M807.812 1368.583a7.763 7.763 0 0 1-9.542-5.423l-4.119-14.963a7.76 7.76 0 0 1 14.963-4.119l4.119 14.963a7.762 7.762 0 0 1-5.421 9.542zM1004.405 2082.74a7.763 7.763 0 0 1-9.542-5.421l-8.191-29.757a7.762 7.762 0 0 1 5.423-9.541 7.762 7.762 0 0 1 9.541 5.422l8.191 29.757a7.762 7.762 0 0 1-5.422 9.54zm-21.844-79.352a7.762 7.762 0 0 1-9.542-5.421l-8.191-29.757a7.76 7.76 0 0 1 14.963-4.119l8.191 29.757a7.76 7.76 0 0 1-5.421 9.54zm-21.843-79.35a7.763 7.763 0 0 1-9.542-5.423l-8.191-29.757a7.76 7.76 0 0 1 14.963-4.119l8.191 29.757a7.763 7.763 0 0 1-5.421 9.542zm-21.844-79.352a7.763 7.763 0 0 1-9.542-5.423l-8.191-29.755a7.763 7.763 0 0 1 5.422-9.542 7.762 7.762 0 0 1 9.541 5.423l8.191 29.755a7.763 7.763 0 0 1-5.421 9.542zm-21.844-79.352a7.763 7.763 0 0 1-9.542-5.423l-8.191-29.755a7.763 7.763 0 0 1 5.423-9.542 7.762 7.762 0 0 1 9.541 5.423l8.191 29.755c1.136 4.132-1.293 8.406-5.422 9.542zm-21.843-79.346a7.763 7.763 0 0 1-9.542-5.421l-8.191-29.757a7.76 7.76 0 0 1 14.963-4.119l8.191 29.757a7.76 7.76 0 0 1-5.421 9.54zm-21.844-79.352a7.763 7.763 0 0 1-9.542-5.421l-8.191-29.757a7.76 7.76 0 0 1 14.963-4.119l8.191 29.757a7.76 7.76 0 0 1-5.421 9.54zm-21.843-79.35a7.763 7.763 0 0 1-9.542-5.422l-8.192-29.757a7.762 7.762 0 0 1 5.423-9.541 7.762 7.762 0 0 1 9.541 5.422l8.191 29.757a7.762 7.762 0 0 1-5.421 9.541zm-21.844-79.352a7.763 7.763 0 0 1-9.542-5.423l-8.191-29.755a7.763 7.763 0 0 1 5.423-9.542 7.762 7.762 0 0 1 9.541 5.423l8.191 29.756a7.764 7.764 0 0 1-5.422 9.541zM1022.177 2147.298a7.762 7.762 0 0 1-9.542-5.421l-4.119-14.963a7.763 7.763 0 0 1 5.422-9.542 7.762 7.762 0 0 1 9.541 5.423l4.119 14.963a7.76 7.76 0 0 1-5.421 9.54z"/><path fill="#1d1d1b" d="m999.345 1271.648 207.8 750.048c9.085 33.005-10.371 67.244-43.377 76.33l-366.975 102.23c24.731 18.53 57.402 25.915 89.502 17.078l288.459-79.407c55.094-15.166 87.461-72.123 72.295-127.216l-184.381-669.794c-9.127-33.16-33.436-57.983-63.323-69.269z" opacity=".1"/><path fill="#d4edff" d="m1174.755 2137.927-288.459 79.407c-55.094 15.166-112.05-17.202-127.216-72.295l-184.381-669.795c-15.166-55.093 17.201-112.05 72.295-127.216l288.459-79.407c55.094-15.166 112.05 17.202 127.216 72.295l184.381 669.795c15.165 55.092-17.201 112.049-72.295 127.216z"/><path fill="#6aaef2" d="M782.798 1508.213c-2.132 3.751-4.506 7.27-7.194 10.518-23.095 28.448-63.898 36.814-96.81 18.112-32.911-18.704-46.604-58.039-33.985-92.44 1.415-3.972 3.224-7.813 5.354-11.564 2.133-3.751 4.547-7.341 7.235-10.589 23.127-28.337 63.899-36.815 96.81-18.112 32.911 18.704 46.493 58.07 33.985 92.44-1.414 3.972-3.264 7.883-5.395 11.635z"/><path fill="#d4edff" d="M782.798 1508.213c-2.132 3.751-4.506 7.27-7.194 10.518l-130.794-74.328c1.415-3.972 3.224-7.813 5.354-11.564 2.133-3.751 4.547-7.341 7.235-10.589l130.794 74.328c-1.414 3.972-3.264 7.883-5.395 11.635z"/><path fill="#1d1d1b" d="M754.208 1404.138c-3.739-2.123-7.587-3.851-11.491-5.285 25.203 20.446 34.652 54.806 23.562 85.273-1.414 3.971-3.262 7.882-5.394 11.635-2.132 3.75-4.507 7.27-7.196 10.517-20.472 25.218-54.848 34.611-85.318 23.402 3.231 2.619 6.685 5.039 10.422 7.163 32.91 18.702 73.713 10.337 96.809-18.112 2.688-3.248 5.062-6.768 7.194-10.518 2.131-3.752 3.98-7.663 5.395-11.635 12.51-34.37-1.072-73.736-33.983-92.44z" opacity=".05"/><path fill="#6aaef2" d="M1004.754 1447.113c-2.132 3.751-4.506 7.27-7.195 10.518-23.095 28.448-63.898 36.814-96.809 18.112-32.911-18.704-46.605-58.039-33.985-92.44 1.414-3.971 3.223-7.813 5.354-11.564 2.132-3.751 4.547-7.341 7.235-10.589 23.126-28.337 63.898-36.814 96.809-18.112 32.912 18.703 46.495 58.069 33.985 92.44-1.414 3.972-3.263 7.883-5.394 11.635z"/><path fill="#d4edff" d="M1004.754 1447.113c-2.132 3.751-4.506 7.27-7.195 10.518l-130.793-74.328c1.414-3.971 3.223-7.813 5.354-11.564 2.132-3.751 4.547-7.341 7.235-10.589l130.793 74.328c-1.414 3.972-3.263 7.883-5.394 11.635z"/><path fill="#1d1d1b" d="M976.163 1343.038c-3.737-2.124-7.587-3.851-11.49-5.285 25.203 20.446 34.65 54.807 23.562 85.273-1.415 3.972-3.264 7.883-5.395 11.635-2.132 3.75-4.506 7.27-7.195 10.517-20.472 25.218-54.848 34.611-85.319 23.402 3.232 2.619 6.685 5.039 10.423 7.163 32.91 18.702 73.714 10.336 96.809-18.112 2.688-3.248 5.063-6.768 7.195-10.518 2.131-3.752 3.98-7.663 5.394-11.635 12.511-34.371-1.072-73.737-33.984-92.44z" opacity=".05"/><path fill="#6aaef2" d="M838.405 1710.218c-2.132 3.751-4.506 7.271-7.194 10.518-23.095 28.448-63.898 36.816-96.81 18.112-32.91-18.702-46.604-58.039-33.984-92.439 1.415-3.972 3.224-7.814 5.354-11.564 2.132-3.753 4.546-7.342 7.235-10.589 23.126-28.338 63.899-36.816 96.81-18.112 32.91 18.702 46.494 58.069 33.984 92.439-1.414 3.971-3.263 7.884-5.395 11.635z"/><path fill="#d4edff" d="M838.405 1710.218c-2.132 3.751-4.506 7.271-7.194 10.518l-130.794-74.327c1.415-3.972 3.224-7.814 5.354-11.564 2.132-3.753 4.546-7.342 7.235-10.589l130.794 74.327c-1.414 3.971-3.263 7.884-5.395 11.635z"/><path fill="#1d1d1b" d="M809.816 1606.144c-3.739-2.125-7.587-3.853-11.491-5.286 25.203 20.447 34.652 54.807 23.562 85.274-1.414 3.971-3.262 7.883-5.394 11.634-2.132 3.751-4.507 7.271-7.195 10.518-20.472 25.218-54.849 34.61-85.318 23.401 3.231 2.619 6.686 5.04 10.423 7.163 32.91 18.702 73.712 10.337 96.809-18.112 2.688-3.247 5.063-6.767 7.194-10.518 2.132-3.751 3.98-7.663 5.395-11.635 12.509-34.37-1.075-73.737-33.985-92.439z" opacity=".05"/><path fill="#6aaef2" d="M1060.362 1649.117c-2.132 3.751-4.506 7.271-7.195 10.518-23.095 28.448-63.898 36.815-96.809 18.112-32.91-18.703-46.605-58.039-33.984-92.439 1.414-3.971 3.222-7.814 5.354-11.564 2.131-3.752 4.546-7.342 7.235-10.589 23.125-28.338 63.898-36.816 96.809-18.112 32.911 18.702 46.495 58.069 33.984 92.439-1.414 3.972-3.262 7.884-5.394 11.635z"/><path fill="#d4edff" d="M1060.362 1649.117c-2.132 3.751-4.506 7.271-7.195 10.518l-130.793-74.327c1.414-3.971 3.222-7.814 5.354-11.564 2.131-3.752 4.546-7.342 7.235-10.589l130.793 74.327c-1.414 3.972-3.262 7.884-5.394 11.635z"/><path fill="#1d1d1b" d="M1031.771 1545.043c-3.738-2.125-7.587-3.852-11.49-5.286 25.203 20.447 34.65 54.807 23.562 85.274-1.415 3.972-3.263 7.884-5.395 11.635-2.132 3.751-4.506 7.271-7.194 10.518-20.472 25.218-54.849 34.609-85.319 23.401 3.232 2.619 6.685 5.04 10.423 7.163 32.91 18.702 73.714 10.336 96.809-18.112 2.688-3.247 5.064-6.767 7.195-10.518s3.98-7.663 5.394-11.635c12.51-34.37-1.073-73.737-33.985-92.44z" opacity=".05"/><path fill="#6aaef2" d="M894.013 1912.223c-2.132 3.751-4.506 7.27-7.194 10.518-23.095 28.447-63.898 36.814-96.81 18.112-32.911-18.703-46.604-58.04-33.985-92.44 1.415-3.972 3.224-7.813 5.354-11.564 2.133-3.751 4.547-7.341 7.235-10.589 23.127-28.337 63.899-36.815 96.81-18.112 32.911 18.704 46.494 58.069 33.985 92.44-1.413 3.971-3.263 7.883-5.395 11.635z"/><path fill="#d4edff" d="M894.013 1912.223c-2.132 3.751-4.506 7.27-7.194 10.518l-130.794-74.328c1.415-3.972 3.224-7.813 5.354-11.564 2.133-3.751 4.547-7.341 7.235-10.589l130.794 74.328c-1.413 3.971-3.263 7.883-5.395 11.635z"/><path fill="#1d1d1b" d="M865.424 1808.148c-3.739-2.124-7.587-3.851-11.491-5.285 25.203 20.446 34.652 54.807 23.562 85.273-1.414 3.971-3.262 7.882-5.394 11.635-2.132 3.75-4.507 7.27-7.196 10.517-20.472 25.218-54.849 34.609-85.318 23.402 3.231 2.619 6.685 5.039 10.423 7.163 32.91 18.702 73.712 10.337 96.809-18.112 2.688-3.248 5.062-6.768 7.194-10.518 2.131-3.752 3.98-7.663 5.395-11.635 12.509-34.371-1.074-73.737-33.984-92.44z" opacity=".05"/><path fill="#6aaef2" d="M1115.97 1851.123c-2.132 3.751-4.506 7.27-7.195 10.518-23.095 28.447-63.898 36.814-96.809 18.112-32.911-18.704-46.606-58.04-33.985-92.44 1.414-3.972 3.223-7.813 5.354-11.564s4.547-7.341 7.235-10.589c23.126-28.337 63.898-36.814 96.809-18.112 32.912 18.703 46.495 58.069 33.985 92.44-1.414 3.972-3.263 7.882-5.394 11.635z"/><path fill="#d4edff" d="M1115.97 1851.123c-2.132 3.751-4.506 7.27-7.195 10.518l-130.793-74.328c1.414-3.972 3.223-7.813 5.354-11.564s4.547-7.341 7.235-10.589l130.793 74.329c-1.414 3.971-3.263 7.881-5.394 11.634z"/><path fill="#1d1d1b" d="M1087.379 1747.048c-3.737-2.124-7.587-3.851-11.49-5.285 25.203 20.446 34.65 54.807 23.562 85.273-1.415 3.972-3.263 7.883-5.395 11.635-2.132 3.75-4.506 7.27-7.195 10.517-20.472 25.218-54.849 34.609-85.319 23.402 3.232 2.619 6.685 5.039 10.423 7.163 32.91 18.702 73.714 10.336 96.809-18.112 2.688-3.248 5.063-6.769 7.195-10.518 2.131-3.752 3.98-7.663 5.394-11.635 12.511-34.371-1.072-73.737-33.984-92.44z" opacity=".05"/><path fill="#6aaef2" d="M949.621 2114.227c-2.132 3.751-4.506 7.271-7.194 10.518-23.095 28.448-63.898 36.815-96.81 18.112-32.91-18.702-46.604-58.039-33.984-92.439 1.415-3.972 3.224-7.814 5.354-11.564 2.133-3.753 4.546-7.342 7.235-10.589 23.126-28.338 63.899-36.816 96.81-18.112 32.91 18.702 46.493 58.07 33.984 92.439-1.414 3.972-3.263 7.884-5.395 11.635z"/><path fill="#d4edff" d="M949.621 2114.227c-2.132 3.751-4.506 7.271-7.194 10.518l-130.794-74.327c1.415-3.972 3.224-7.814 5.354-11.564 2.133-3.753 4.546-7.342 7.235-10.589l130.794 74.327c-1.414 3.972-3.263 7.884-5.395 11.635z"/><path fill="#1d1d1b" d="M921.032 2010.153c-3.739-2.125-7.587-3.852-11.491-5.286 25.203 20.447 34.652 54.807 23.562 85.273-1.414 3.971-3.262 7.884-5.394 11.635-2.132 3.751-4.507 7.271-7.195 10.519-20.472 25.218-54.849 34.609-85.318 23.401 3.231 2.619 6.685 5.04 10.423 7.163 32.91 18.702 73.712 10.337 96.808-18.112 2.688-3.247 5.063-6.767 7.194-10.518 2.132-3.751 3.98-7.663 5.395-11.635 12.509-34.37-1.074-73.738-33.984-92.44z" opacity=".05"/><path fill="#6aaef2" d="M1171.578 2053.127c-2.132 3.751-4.506 7.271-7.195 10.518-23.095 28.448-63.898 36.815-96.809 18.112-32.91-18.702-46.605-58.039-33.984-92.439 1.414-3.971 3.222-7.814 5.354-11.564 2.131-3.752 4.546-7.342 7.235-10.589 23.125-28.338 63.898-36.815 96.809-18.112 32.912 18.702 46.495 58.069 33.984 92.439-1.414 3.972-3.263 7.884-5.394 11.635z"/><path fill="#d4edff" d="M1171.578 2053.127c-2.132 3.751-4.506 7.271-7.195 10.518l-130.793-74.327c1.414-3.971 3.222-7.814 5.354-11.564 2.131-3.752 4.546-7.342 7.235-10.589l130.793 74.327c-1.414 3.972-3.263 7.884-5.394 11.635z"/><path fill="#1d1d1b" d="M1142.987 1949.053c-3.738-2.125-7.587-3.853-11.49-5.286 25.203 20.447 34.65 54.807 23.562 85.273-1.415 3.972-3.263 7.884-5.395 11.635-2.132 3.751-4.506 7.271-7.194 10.518-20.472 25.218-54.849 34.61-85.319 23.401 3.232 2.618 6.685 5.04 10.423 7.163 32.91 18.703 73.714 10.336 96.809-18.112 2.688-3.247 5.064-6.767 7.195-10.518 2.132-3.751 3.98-7.663 5.394-11.635 12.51-34.37-1.073-73.737-33.985-92.439z" opacity=".05"/><path fill="#1d1d1b" d="M807.812 1368.583a7.763 7.763 0 0 1-9.542-5.423l-4.119-14.963a7.76 7.76 0 0 1 14.963-4.119l4.119 14.963a7.762 7.762 0 0 1-5.421 9.542zM1004.405 2082.74a7.763 7.763 0 0 1-9.542-5.421l-8.191-29.757a7.762 7.762 0 0 1 5.423-9.541 7.762 7.762 0 0 1 9.541 5.422l8.191 29.757a7.762 7.762 0 0 1-5.422 9.54zm-21.844-79.352a7.762 7.762 0 0 1-9.542-5.421l-8.191-29.757a7.76 7.76 0 0 1 14.963-4.119l8.191 29.757a7.76 7.76 0 0 1-5.421 9.54zm-21.843-79.35a7.763 7.763 0 0 1-9.542-5.423l-8.191-29.757a7.76 7.76 0 0 1 14.963-4.119l8.191 29.757a7.763 7.763 0 0 1-5.421 9.542zm-21.844-79.352a7.763 7.763 0 0 1-9.542-5.423l-8.191-29.755a7.763 7.763 0 0 1 5.422-9.542 7.762 7.762 0 0 1 9.541 5.423l8.191 29.755a7.763 7.763 0 0 1-5.421 9.542zm-21.844-79.352a7.763 7.763 0 0 1-9.542-5.423l-8.191-29.755a7.763 7.763 0 0 1 5.423-9.542 7.762 7.762 0 0 1 9.541 5.423l8.191 29.755c1.136 4.132-1.293 8.406-5.422 9.542zm-21.843-79.346a7.763 7.763 0 0 1-9.542-5.421l-8.191-29.757a7.76 7.76 0 0 1 14.963-4.119l8.191 29.757a7.76 7.76 0 0 1-5.421 9.54zm-21.844-79.352a7.763 7.763 0 0 1-9.542-5.421l-8.191-29.757a7.76 7.76 0 0 1 14.963-4.119l8.191 29.757a7.76 7.76 0 0 1-5.421 9.54zm-21.843-79.35a7.763 7.763 0 0 1-9.542-5.422l-8.192-29.757a7.762 7.762 0 0 1 5.423-9.541 7.762 7.762 0 0 1 9.541 5.422l8.191 29.757a7.762 7.762 0 0 1-5.421 9.541zm-21.844-79.352a7.763 7.763 0 0 1-9.542-5.423l-8.191-29.755a7.763 7.763 0 0 1 5.423-9.542 7.762 7.762 0 0 1 9.541 5.423l8.191 29.756a7.764 7.764 0 0 1-5.422 9.541z" opacity=".1"/><path fill="#1d1d1b" d="m999.345 1271.648 207.8 750.048c9.085 33.005-10.371 67.244-43.377 76.33l-136.63 38.062-3.659-13.292a7.762 7.762 0 0 0-9.541-5.423 7.761 7.761 0 0 0-5.422 9.542l3.672 13.339-215.396 60.004c24.731 18.531 57.403 25.915 89.503 17.078l288.459-79.407c55.094-15.166 87.462-72.124 72.296-127.217l-184.381-669.795c-9.127-33.16-33.438-57.985-63.324-69.269z" opacity=".1"/><path fill="#b8e4ff" d="M823.83 2229.175h3194.963v31.466H823.83z"/><linearGradient id="a" x1="4022.096" x2="4015.306" y1="1421.973" y2="2322.666" gradientUnits="userSpaceOnUse"><stop offset=".08" stop-color="#ff9e5d"/><stop offset=".439" stop-color="#ffaf5f"/><stop offset="1" stop-color="#ffd162"/></linearGradient><path fill="url(#a)" stroke="#191e56" stroke-linecap="round" stroke-linejoin="round" stroke-miterlimit="10" stroke-width="6.303" d="M4018.792 1501.248v717.919"/><path fill="#d4edff" d="M3610.42 1501.248h816.746L4018.792 301.689z"/><path fill="#ebf7ff" d="M3446.208 795.608h766.431l-115.276-40.848s34.368-128.31-98.268-142.006c0 0-12.975-76.409-137.681-90.826-124.706-14.417-152.819 79.293-152.819 79.293s-35.321-18.742-74.247 4.325-36.042 69.922-36.042 69.922-56.947.721-63.434 65.597l-88.664 54.543z"/><path fill="#2f9e77" d="M3783.073 2133.359s41.299 82.229 114.772 112.779c73.474 30.55 176.486-7.94 234.245-53.327 57.758-45.386 113.816-109.933 119.391-158.057 5.575-48.125-91.294-29.146-91.294-29.146s42.808-58.483 60.62-100.251-3.056-85.352-61.592-59.407l-58.536 25.945s44.89-90.907 44.08-147.679c-.81-56.771-34.268-141.924-97.355-81.791-63.087 60.133-69.545 186.234-69.545 186.234s-14.036-53.742-34.014-93.056-61.47-34.214-80.606 20.573c-19.136 54.787-26.47 133.22-26.47 133.22s-18.285-60.518-48.143-50.898c-29.858 9.62-47.27 80.533-42.256 150.15 5.013 69.615 36.703 144.711 36.703 144.711z"/><path fill="#42b58b" d="M3796.144 1986.149s2.187-299.473 231.604-406.142c0 0 104.997 251.518-54.428 467.172-159.425 215.653-126.782 165.525-126.782 165.525l-50.394-226.555z"/><path fill="none" stroke="#fff" stroke-linecap="round" stroke-linejoin="round" stroke-miterlimit="10" stroke-width="2" d="m3971.11 1720.102-130.517 444.742"/><path fill="#063985" d="M3502.321 2345.357H1308.759c-40.143 0-72.686-32.542-72.686-72.686V595.624c0-40.143 32.542-72.686 72.686-72.686h2193.562c40.143 0 72.686 32.542 72.686 72.686v1677.048c-.001 40.143-32.543 72.685-72.686 72.685z"/><path fill="#0072ef" d="M3534.272 2367.388H1340.71c-40.143 0-72.686-32.542-72.686-72.686V617.655c0-40.143 32.542-72.686 72.686-72.686h2193.562c40.143 0 72.686 32.542 72.686 72.686v1677.047c0 40.144-32.542 72.686-72.686 72.686z"/><path fill="#fff" d="M3537.509 682.087c0-37.38-30.302-67.681-67.68-67.681H1410.003c-37.379 0-67.68 30.301-67.68 67.681v77.932h2195.186v-77.932z"/><path fill="#95cdfd" d="M1342.323 760.019V2230.27c0 37.379 30.301 67.681 67.68 67.681h2059.826c37.379 0 67.68-30.302 67.68-67.681V760.019H1342.323z"/><path fill="#6aaef2" d="M2189.099 2226.676h-639.541c-32.417 0-58.696-26.279-58.696-58.696V879.459c0-32.417 26.279-58.696 58.696-58.696h639.541c32.417 0 58.696 26.279 58.696 58.696V2167.98c0 32.417-26.279 58.696-58.696 58.696z"/><path fill="#fff" d="M2209.828 2226.676h-639.541c-32.417 0-58.696-26.279-58.696-58.696V879.459c0-32.417 26.279-58.696 58.696-58.696h639.541c32.417 0 58.696 26.279 58.696 58.696V2167.98c0 32.417-26.279 58.696-58.696 58.696z"/><g opacity=".07"><path d="m1763.797 1267.78 3.095-15.991 130.192 3.611-1.444 16.818-20.426 41.648-79.539-6.781z"/><defs><path id="b" d="m2055.379 1333.112 3.714-9.078s28.473-2.476 59.112 51.375c30.639 53.851 49.209 202.406 66.85 265.542 17.641 63.136 39.924 98.418 101.203 71.492l-7.428 146.698s-104.917 48.28-182.908-55.708c-77.991-103.988-65.921-138.342-65.921-138.342l25.378-331.979z"/></defs><use overflow="visible" xlink:href="#b"/><clipPath id="c"><use overflow="visible" xlink:href="#b"/></clipPath><path d="M2084.771 1313.483c-.541 2.426 32.395 64.469 29.331 135.703-3.064 71.234-11.489 248.936 3.064 285.702 14.553 36.766 49.787 62.809 114.894 65.872s72 .766 72 .766l.766 78.894-107.234 9.191-127.915-55.19s-41.05-99.76-40.35-104.517 0-186.506 0-186.506 3.54-164.681 3.945-178.468c.405-13.787 0-60.705 0-60.705l51.499 9.258z" clip-path="url(#c)"/><defs><path id="d" d="M1756.989 1299.657s-27.854 13.618-108.321 34.044-73.039 84.8-74.277 155.982c-1.238 71.182 1.238 652.403 6.19 693.256 0 0 273.588 69.325 496.421-14.855 0 0 4.952-336.724 8.666-432.047 3.714-95.323 9.285-238.926 3.095-305.775-6.19-66.85-22.902-105.845-22.902-105.845s-114.153-11.329-146.698-31.568l-162.174 6.808z"/></defs><use overflow="visible" xlink:href="#d"/><clipPath id="e"><use overflow="visible" xlink:href="#d"/></clipPath><path d="M1695.846 1404.883s22.998 40.357 12.168 107.195c-10.829 66.837-39.425 151.048-49.638 195.241s19.862 74.203 105.421 86.772 332.476 101.023 332.476 101.023v35.214h-85.228s-5.505 21.209-20.789 24.345c-15.284 3.136-301.241 29.819-426.858-15.182l10.677-405.512 121.771-129.096z" clip-path="url(#e)"/><path d="M1758.542 1313.866s-23.108 41.389-21.807 88.113c1.301 46.723 14.397 135.404 21.807 164.681 7.41 29.277 17.558 62.298 17.558 62.298s45.682.985 64.064 26.024 26.213 50.231 13.277 79.167c-12.936 28.936-39.018 36.502-48.956 37.315-9.938.813-38.106-81.439-38.106-81.439l-19.151-94.088-25.532-123.915.681-89.192 19.68-68.964 8.575-12.398 7.91 12.398z" clip-path="url(#e)"/><g clip-path="url(#e)"><path fill-rule="evenodd" d="M2014.045 1470.545c.432 6.833 6.327 12.018 13.169 11.594 6.833-.407 12.027-6.327 11.602-13.144-5.642-87.653-61.365-162.846-129.776-196.326-6.613 1.762-13.314 3.31-20.074 4.696 2.528 6.327 5.47 11.415 8.814 14.84 2.274 2.333 4.509 4.288 6.735 5.953 58.137 31.311 104.653 96.622 109.53 172.387zM2097.531 1547.158c-.741-4.517-5.006-7.551-9.515-6.8-4.492.75-7.534 5.006-6.783 9.507.088.603 39.047 214.755-85.305 270.15-4.16 1.844-6.035 6.751-4.175 10.911 1.85 4.158 6.743 6.033 10.901 4.175 136.315-60.731 94.992-287.307 94.877-287.943z" clip-rule="evenodd"/><path fill-rule="evenodd" d="M1986.216 1558.313c-.473-4.534-4.557-7.828-9.091-7.356-4.534.473-7.828 4.567-7.348 9.101.073.7 24.315 250.515 172.51 257.968 4.559.212 8.44-3.31 8.652-7.86.204-4.566-3.312-8.431-7.869-8.643-133.795-6.736-156.789-242.543-156.854-243.21z" clip-rule="evenodd"/><path fill-rule="evenodd" d="M2077 1548.365c-.073 6.832 5.39 12.442 12.232 12.524 6.832.065 12.459-5.399 12.524-12.232.635-42.121-17.499-70.351-40.542-83.297-10.477-5.871-22.014-8.612-33.389-8.106-11.497.523-22.766 4.338-32.583 11.529-20.792 15.248-34.971 45.695-29.58 91.812.773 6.8 6.938 11.693 13.746 10.909 6.8-.766 11.693-6.93 10.918-13.732-4.2-35.924 5.309-58.528 19.578-68.996 5.756-4.208 12.329-6.458 18.981-6.751 6.783-.294 13.763 1.386 20.198 4.99 15.907 8.92 28.391 29.55 27.917 61.35zM1978.887 1808.437c4.736-4.762 11.325-7.698 18.598-7.698a26.235 26.235 0 0 1 18.362 7.436l.245.262c4.752 4.761 7.705 11.35 7.705 18.606 0 7.274-2.952 13.845-7.705 18.608a26.232 26.232 0 0 1-18.608 7.697 26.194 26.194 0 0 1-18.598-7.697c-4.754-4.763-7.707-11.333-7.707-18.608.001-7.256 2.953-13.845 7.708-18.606zM2117.94 1792.259c4.737-4.761 11.325-7.697 18.607-7.697 7.159 0 13.633 2.837 18.354 7.453l.244.244c4.754 4.763 7.707 11.35 7.707 18.608a26.217 26.217 0 0 1-7.707 18.606 26.214 26.214 0 0 1-18.598 7.715c-7.274 0-13.845-2.952-18.607-7.715a26.21 26.21 0 0 1-7.697-18.606 26.28 26.28 0 0 1 7.697-18.608z" clip-rule="evenodd"/></g><path fill-rule="evenodd" d="M2006.812 1478.306c.432 6.833 6.327 12.018 13.169 11.594 6.833-.407 12.027-6.327 11.602-13.144-5.642-87.653-61.365-162.846-129.776-196.326-6.613 1.762-13.314 3.31-20.074 4.696 2.528 6.327 5.47 11.415 8.814 14.84 2.274 2.333 4.509 4.288 6.735 5.953 58.138 31.312 104.654 96.623 109.53 172.387zM2090.298 1554.919c-.741-4.517-5.006-7.551-9.515-6.8a8.26 8.26 0 0 0-6.783 9.507c.089.603 39.047 214.755-85.305 270.15-4.16 1.844-6.035 6.751-4.175 10.911 1.85 4.158 6.743 6.033 10.901 4.175 136.316-60.731 94.993-287.306 94.877-287.943z" clip-rule="evenodd"/><path fill-rule="evenodd" d="M1978.984 1566.074c-.473-4.534-4.557-7.828-9.091-7.356-4.534.473-7.828 4.567-7.348 9.101.073.7 24.315 250.515 172.51 257.968 4.559.212 8.44-3.31 8.652-7.86.204-4.566-3.311-8.431-7.869-8.643-133.795-6.735-156.789-242.542-156.854-243.21z" clip-rule="evenodd"/><path fill-rule="evenodd" d="M2069.767 1556.127c-.073 6.832 5.391 12.442 12.232 12.524 6.832.065 12.459-5.399 12.524-12.232.635-42.121-17.499-70.351-40.542-83.297-10.477-5.871-22.014-8.612-33.39-8.106-11.497.523-22.766 4.339-32.583 11.529-20.792 15.248-34.971 45.695-29.58 91.812.773 6.8 6.938 11.693 13.746 10.909 6.8-.766 11.693-6.93 10.918-13.732-4.2-35.924 5.309-58.528 19.578-68.996 5.756-4.208 12.329-6.458 18.981-6.751 6.783-.294 13.763 1.386 20.197 4.99 15.909 8.92 28.393 29.55 27.919 61.35zM1971.654 1816.199c4.736-4.763 11.325-7.698 18.598-7.698a26.235 26.235 0 0 1 18.362 7.436l.245.262c4.752 4.761 7.705 11.35 7.705 18.606 0 7.274-2.952 13.845-7.705 18.608a26.232 26.232 0 0 1-18.608 7.697 26.194 26.194 0 0 1-18.598-7.697c-4.754-4.763-7.707-11.333-7.707-18.608.002-7.256 2.954-13.845 7.708-18.606zM2110.708 1800.021c4.738-4.761 11.325-7.696 18.608-7.696 7.159 0 13.633 2.837 18.354 7.453l.244.244c4.754 4.763 7.707 11.35 7.707 18.608a26.217 26.217 0 0 1-7.707 18.606 26.213 26.213 0 0 1-18.597 7.715c-7.274 0-13.845-2.952-18.608-7.715a26.21 26.21 0 0 1-7.697-18.606 26.27 26.27 0 0 1 7.696-18.609zM1767.815 1644.662c-17.256 3.766-31.389 14.222-40.263 28.055-8.88 13.803-12.473 31-8.691 48.304 3.784 17.287 14.234 31.42 28.046 40.285 13.82 8.851 31.017 12.452 48.321 8.662 17.286-3.776 31.42-14.234 40.276-28.038 8.859-13.821 12.444-31.019 8.662-48.323-3.782-17.302-14.231-31.434-28.045-40.285l-.645-.375c-13.726-8.571-30.666-12.005-47.661-8.285z" clip-rule="evenodd"/><path fill-rule="evenodd" d="M1743.818 1683.13c6.148-9.63 16.025-16.917 28.138-19.564 11.897-2.598 23.703-.232 33.223 5.698l.505.345c9.633 6.185 16.927 16.065 19.564 28.138 2.645 12.089.143 24.096-6.036 33.737-6.178 9.641-16.057 16.928-28.123 19.566-12.083 2.651-24.103.141-33.738-6.029-9.64-6.186-16.926-16.065-19.572-28.139-2.644-12.075-.134-24.095 6.039-33.752z" clip-rule="evenodd"/><path fill-rule="evenodd" d="M1762.178 1694.914a22.797 22.797 0 0 1 14.428-10.033 22.975 22.975 0 0 1 17.054 2.909l.249.18c4.944 3.174 8.686 8.23 10.039 14.429a22.918 22.918 0 0 1-3.098 17.315 22.866 22.866 0 0 1-14.427 10.033c-6.2 1.367-12.355.072-17.303-3.089a22.963 22.963 0 0 1-10.045-14.444 22.91 22.91 0 0 1 3.103-17.3zM1732.648 1307.795c.367-.693.988-2.146 1.438-2.788.276-.394.813-.879 1.272-1.446 1.621-2.004 5.903-4.353 9.16-5.731 3.257-1.378 11.087-.618 11.087-.618s-2.834 11.084-6.06 16.825c-2.601 4.627-5.526 12.606-6.262 15.535l-.832 2.621c-24.649 63.309-22.402 169.856 33.143 333.3 1.698 5.055-1.018 10.549-6.072 12.245-5.047 1.698-10.541-1.017-12.239-6.073-63.057-185.545-59.011-298.848-24.635-363.87z" clip-rule="evenodd"/><defs><path id="f" d="M2044.813 1017.609s8.872-15.887 21.664-44.773c12.792-28.886 9.491-59.938-7.428-90.061-16.919-30.124-69.238-95.838-179.829-96.251-110.591-.413-162.105 68.707-185.007 110.797-22.902 42.091-14.598 108.94 8.305 168.362 22.902 59.422 79.229 116.987 79.229 116.987l65.612-14.855 197.454-150.206z"/></defs><use overflow="visible" xlink:href="#f"/><clipPath id="g"><use overflow="visible" xlink:href="#f"/></clipPath><path d="M1696.675 1101.724s28.34 13.787 71.234-81.957c42.894-95.745 69.465-123.04 157.286-119.35 87.821 3.69 129.948-9.331 144.502-34.607l39.064 90.383-49.787 117.957-112.596 114.128-96.511 22.213-75.753-9.957-77.439-98.81z" clip-path="url(#g)"/><path d="M1894.741 1255.777c-.191-10.379.286-22.836 2.343-35.968l-41.678-67.262-73.659 30.123s4.472 17.441 2.823 44.489c19.602-4.457 59.421-6.39 110.171 28.618z"/><path d="M1784.571 1227.159c-.926 15.198-3.777 33.417-10.457 53.31 0 0 72.627 70.564 73.452 70.564.825 0 49.518-67.263 49.518-67.263s-2.037-11.303-2.343-27.993c-50.75-35.008-90.569-33.075-110.17-28.618zM1904.099 1104.266c-30.588-28.31-25.765-109.977-22.358-143.254-38.697 21.601-47.38 95.386-47.38 95.386s1.034 76.331 10.316 121.34c17.794 30.624 55.998 75.901 125.859 74.258 51.523-1.213 70.693-68.61 76.842-137.09-35.721 11.534-107.797 22.2-143.279-10.64z"/><path d="M1800.936 1072.492c-4.952 74.278 30.949 77.992 30.949 77.992s3.784 11.752 12.792 27.255c-9.283-45.009-10.316-121.34-10.316-121.34s-25.997-7.428-33.425 16.093zM1904.099 1104.266c35.482 32.84 107.557 22.174 143.279 10.64 6.41-71.376-1.327-143.927-1.327-143.927-12.379-38.377-110.178-28.473-155.982-13.617a46.48 46.48 0 0 0-8.328 3.65c-3.407 33.277-8.229 114.945 22.358 143.254zM1844.058 1308.323l6.575 38.898 6.94-42.612 21.648 53.542-13.602 51.375h-18.26l-14.553-8.356-4.016-61.279z"/><path d="m1766.892 1251.789-27.854 49.106 95.735 108.631s8.047-57.875 9.285-101.203l-77.166-56.534zM1857.573 1304.609s15.784 69.326 17.331 100.275l50.29-110.797-28.11-38.686c0-.001-9.328 21.816-39.511 49.208zM1995.708 1837.088s127.509-26.822 173.314-30.124c45.804-3.301 120.907 2.063 90.783 55.708s-166.299 53.232-226.133 53.645c-59.835.413-69.326 0-69.326 0l31.362-79.229z"/><defs><path id="h" d="M1549.631 1412.517c20.402-42.076 44.154-63.548 74.277-67.675 30.124-4.127 80.054 30.536 85.006 67.675 4.952 37.139-14.443 140.714-32.393 187.757-17.95 47.042-59.05 139.226-46.856 157.818s55.522 32.828 113.706 34.685c58.184 1.857 252.543 16.713 252.543 16.713s34.044 81.086 0 120.701c0 0-238.926 1.857-350.342-8.047-104.726-9.309-188.788-33.425-180.123-134.937 8.667-101.514 76.754-359.371 84.182-374.69z"/></defs><use overflow="visible" xlink:href="#h"/><clipPath id="i"><use overflow="visible" xlink:href="#h"/></clipPath><path d="M1613.038 1330.142s-69.447 303.257-85.787 381.895-26.553 148.085 93.957 163.404c120.511 15.319 410.399 22.468 410.399 22.468l-20.563 49.021-443.964-16.603-111.319-50.801-7.149-53.73 10.213-104.568 41.872-212.426 37.787-134.808" clip-path="url(#i)"/></g><path fill="#063985" d="M1213.076 2416.555c-2.502 2.024-2.499 34.833-13.107 49.517-10.608 14.683-5.369 29.177 19.936 35.245 25.305 6.069 111.803 22.114 130.583 12.68 18.781-9.433 13.997-29.798 1.175-33.464-12.822-3.666-63.885-23.799-70.031-40.417-6.147-16.618-.597-21.15-.597-21.15l-67.959-2.411z"/><path fill="#063985" d="M1324.171 2391.336c-2.502 2.024-2.499 34.834-13.107 49.517-10.608 14.683-5.369 29.177 19.936 35.245s111.803 22.114 130.583 12.68c18.781-9.433 13.997-29.798 1.175-33.464s-63.885-23.8-70.031-40.417-.597-21.15-.597-21.15l-67.959-2.411z"/><defs><path id="j" d="M1371.006 1125.685s6.723-6.499 8.004-34.353c1.281-27.854-3.052-33.425-10.17-51.994-7.118-18.569-53.851-49.828-112.964-17.641-59.112 32.187-69.945 74.277-64.993 110.797 4.952 36.52 7.428 144.531-51.994 184.146 0 0 11.322 17.95 118.005 8.666 106.684-9.285 140.109-34.052 140.109-34.052s-27.854-113.265-25.997-165.569z"/></defs><use fill="#ff5e5d" overflow="visible" xlink:href="#j"/><clipPath id="k"><use overflow="visible" xlink:href="#j"/></clipPath><path fill="#f74646" d="M1189.439 1147.453s87.895-99.449 198.073-70.564l3.301-43.328-126.684 15.268-76.753 59.835-1.651 21.844 3.714 16.945z" clip-path="url(#k)"/><path fill="#f74646" d="M1202.025 1345.113s16.712-24.759 21.045-82.943c4.333-58.184 9.697-102.957 33.219-118.225 23.521-15.268 39.16-21.87 58.885-41.471 19.725-19.601 29.835-33.219 29.835-33.219l26.082 35.765s-17.004 114.646-.911 169.116l16.093 54.47-184.248 16.507z" clip-path="url(#k)"/><path fill="#00c8ab" d="M1163.876 1085.682c.98 0 40.186-68.555 119.577-86.524 79.391-17.969 110.429-.653 110.429-.653l-16.105 63.678s-119.466-16.636-186.352 68.325l-27.549-44.826z"/><defs><path id="l" d="m1437.04 1773.005 14.306 15.776s7.935 293.458 0 354.227c-7.935 60.769-30.478 257.777-30.478 257.777s-46.067 46.067-105.855 0l20.583-452.825 22.543-168.584 78.901-6.371z"/></defs><use fill="#00b290" overflow="visible" xlink:href="#l"/><clipPath id="m"><use overflow="visible" xlink:href="#l"/></clipPath><path fill="#00ab90" d="M1397.524 1745.014c0 2.94-19.672 269.277-52.962 378.203-33.29 108.926 0 0 0 0l-27.983 46.197 5.306-404.556 75.639-19.844z" clip-path="url(#m)"/><defs><path id="n" d="M1209.157 1793.751s15.682 224.779 5.881 350.237-23.523 263.658-23.523 263.658 32.345 51.947 114.676 4.901c0 0 38.226-259.737 45.087-359.711 6.861-99.974 8.821-259.084 8.821-259.084h-150.942z"/></defs><use fill="#00be9c" overflow="visible" xlink:href="#n"/><clipPath id="o"><use overflow="visible" xlink:href="#n"/></clipPath><path fill="#00b596" d="M1257.364 1773.005s-29.091 361.125-62.572 483.643V1921.44l5.724-148.435h56.848z" clip-path="url(#o)"/><path fill="#fff" d="M1256.895 1293.113c6.984-.508 11.561-.377 11.561-.377h8.454l47.904-1.47s3.508-.043 8.989.03l-19.036 82.792-57.872-80.975zM1209.298 1801.609v7.892s2.631 5.261 29.711 12.07 50.911 10.677 68.552 9.904 55.244.155 91.918-14.236c36.674-14.391 54.161-24.759 54.161-24.759l-1.702-6.809-242.64 15.938z"/><path fill="#00c8ab" d="M1186.403 1330.623c13.078-23.329 52.42-36.195 70.492-37.51l57.872 80.975 19.036-82.792c15.539.208 55.058 8.049 70.089 16.882 25.463 14.963 98.327 185.323 102.247 204.926 3.921 19.603 17.316 77.104-21.236 85.599-38.552 8.495-56.848-54.561-56.848-54.561l26.137 243.075c-128.725 71.877-246.342 15.682-246.342 15.682l-3.306-176.425s-11.723 11.762-37.262 6.141c-25.539-5.62-33.596-37.996-35.066-94.844-1.47-56.848 36.054-174.803 54.187-207.148z"/><path fill="#00b596" d="m1431.78 1600.474 2.804 4.385 1.58 14.695-170.681 24.863 21.903-93.116 123.158 12.773z"/><path fill="#fff" d="m1335.105 1394.671-54.397 233.763 153.876-23.575 53.913-230.771z"/><path fill="#fec3c0" d="M1469.875 1466.711s-10.618-11.272-18.786 2.614-9.965 39.206-2.124 44.596c7.841 5.391 24.177-9.475 20.91-47.21z"/><path fill="#f19596" d="M1295.083 1213.508s-10.455 8.821-22.216 14.375c0 0 2.124 44.27-4.411 64.853 0 0 25.603 27.607 56.358-1.47 0 0-3.12-42.297 0-59.462l-29.731-18.296z"/><defs><path id="p" d="M1370.88 1104.059s35.285 155.352-41.166 137.71c-23.523-5.881-45.577-29.404-49.987-56.848 0 0-24.749-3.921-19.603-28.669 5.146-24.749 19.848-12.742 29.649-17.887 9.801-5.146 51.457-27.444 60.524-52.683 0 0 15.928 17.887 20.583 18.377z"/></defs><use fill="#fec3c0" overflow="visible" xlink:href="#p"/><clipPath id="q"><use overflow="visible" xlink:href="#p"/></clipPath><path fill="#f19596" d="M1381.474 1113.314s-4.043 11.517-13.722 4.778c-9.679-6.738-11.271-12.742-23.033-1.47s-38.225 33.447-63.954 38.47c-25.729 5.023-28.057.613-28.057.613s19.48-32.835 19.113-32.222c-.367.613 62.729-43.004 62.729-43.004l23.278-1.593 22.608 27.321 1.038 7.107z" clip-path="url(#q)"/><path fill="#fec3c0" d="m1280.708 1519.952 8.495 39.872s68.61-4.901 79.718-37.245 2.287-50.314-22.87-39.206c-25.158 11.109-65.343 36.579-65.343 36.579z"/><path fill="#00b596" d="M1220.234 1350.375s13.722 28.914 8.331 70.57c0 0-41.962 80.733-36.663 102.606 5.299 21.872 88.806-3.598 88.806-3.598s-81.302 20.08-72.726-7.609c8.576-27.689 37.98-86.252 37.98-86.252s-2.695-46.558-25.728-75.717zM1289.202 1559.824l-84.657 66.65.414 22.11z"/><path fill="#0542bf" d="m1810.554 1258.673 3.095-15.99 130.191 3.61-1.444 16.818-20.426 41.649-79.539-6.782z"/><defs><path id="r" d="m2102.135 1324.005 3.714-9.078s28.473-2.476 59.112 51.375c30.639 53.851 49.209 202.406 66.85 265.542 17.641 63.136 39.924 98.418 101.203 71.492l-7.428 146.698s-104.917 48.28-182.908-55.708-65.921-138.342-65.921-138.342l25.378-331.979z"/></defs><use fill="#6aaef2" overflow="visible" xlink:href="#r"/><clipPath id="s"><use overflow="visible" xlink:href="#r"/></clipPath><path fill="#54a6ea" d="M2131.527 1304.376c-.541 2.426 32.395 64.469 29.331 135.703-3.064 71.234-11.49 248.936 3.064 285.702s49.787 62.809 114.894 65.872c65.106 3.064 72 .766 72 .766l.766 78.894-107.234 9.192-127.915-55.19s-41.05-99.76-40.35-104.516c.7-4.757 0-186.506 0-186.506s3.54-164.681 3.945-178.468c.405-13.787 0-60.705 0-60.705l51.499 9.256z" clip-path="url(#s)"/><defs><path id="t" d="M1803.745 1290.55s-27.854 13.618-108.321 34.044c-80.467 20.426-73.04 84.8-74.277 155.983s1.238 652.403 6.19 693.255c0 0 273.588 69.326 496.42-14.855 0 0 4.952-336.724 8.666-432.047s9.285-238.926 3.095-305.775c-6.19-66.849-22.902-105.845-22.902-105.845s-114.152-11.329-146.698-31.568l-162.173 6.808z"/></defs><use fill="#d4edff" overflow="visible" xlink:href="#t"/><clipPath id="u"><use overflow="visible" xlink:href="#t"/></clipPath><path fill="#c5e9ff" d="M1742.603 1395.776s22.998 40.357 12.168 107.195c-10.829 66.837-39.425 151.048-49.638 195.241-10.213 44.192 19.863 74.203 105.421 86.772 85.558 12.569 332.476 101.023 332.476 101.023v35.214h-85.228s-5.505 21.209-20.789 24.345c-15.284 3.136-301.241 29.819-426.858-15.182l10.677-405.512 121.771-129.096z" clip-path="url(#u)"/><path fill="#c5e9ff" d="M1805.298 1304.76s-23.108 41.389-21.807 88.113 14.397 135.404 21.807 164.681 17.558 62.298 17.558 62.298 45.681.985 64.064 26.024c18.383 25.039 26.213 50.231 13.277 79.167s-39.018 36.502-48.956 37.315c-9.938.813-38.106-81.439-38.106-81.439l-19.151-94.088-25.532-123.915.681-89.192 19.68-68.964 8.575-12.398 7.91 12.398z" clip-path="url(#u)"/><g clip-path="url(#u)"><path fill="#c5e9ff" fill-rule="evenodd" d="M2060.801 1461.438c.433 6.833 6.327 12.018 13.169 11.594 6.833-.407 12.027-6.327 11.603-13.144-5.643-87.652-61.365-162.846-129.776-196.326-6.613 1.762-13.314 3.31-20.074 4.696 2.528 6.327 5.471 11.415 8.814 14.84 2.274 2.333 4.509 4.288 6.735 5.953 58.136 31.311 104.653 96.622 109.529 172.387zM2144.287 1538.051c-.741-4.517-5.007-7.551-9.515-6.8a8.26 8.26 0 0 0-6.783 9.507c.088.603 39.047 214.755-85.305 270.15-4.16 1.844-6.035 6.751-4.175 10.911 1.85 4.158 6.743 6.033 10.901 4.175 136.315-60.731 94.992-287.307 94.877-287.943z" clip-rule="evenodd"/><path fill="#c5e9ff" fill-rule="evenodd" d="M2032.972 1549.206c-.472-4.534-4.557-7.828-9.091-7.356-4.534.473-7.828 4.567-7.348 9.101.073.7 24.315 250.515 172.51 257.968 4.559.212 8.44-3.31 8.652-7.86.204-4.565-3.311-8.431-7.868-8.643-133.795-6.735-156.79-242.542-156.855-243.21z" clip-rule="evenodd"/><path fill="#c5e9ff" fill-rule="evenodd" d="M2123.756 1539.258c-.073 6.832 5.39 12.442 12.232 12.524 6.831.065 12.459-5.399 12.524-12.232.635-42.121-17.499-70.351-40.542-83.297-10.477-5.871-22.014-8.612-33.389-8.106-11.497.523-22.766 4.338-32.583 11.529-20.792 15.248-34.971 45.695-29.58 91.812.773 6.8 6.938 11.693 13.746 10.909 6.8-.766 11.693-6.93 10.918-13.732-4.2-35.924 5.309-58.528 19.578-68.996 5.756-4.208 12.329-6.458 18.982-6.751 6.783-.294 13.763 1.386 20.197 4.99 15.907 8.921 28.391 29.55 27.917 61.35zM2025.643 1799.33c4.736-4.762 11.325-7.698 18.598-7.698a26.235 26.235 0 0 1 18.362 7.436l.245.262c4.752 4.761 7.705 11.35 7.705 18.606 0 7.274-2.952 13.845-7.705 18.608a26.23 26.23 0 0 1-18.608 7.697 26.194 26.194 0 0 1-18.598-7.697c-4.754-4.762-7.707-11.334-7.707-18.608.001-7.256 2.954-13.845 7.708-18.606zM2164.696 1783.152c4.738-4.761 11.325-7.697 18.608-7.697 7.159 0 13.633 2.837 18.354 7.453l.244.244c4.754 4.762 7.707 11.35 7.707 18.608a26.217 26.217 0 0 1-7.707 18.606 26.218 26.218 0 0 1-18.598 7.715c-7.274 0-13.845-2.952-18.608-7.715a26.212 26.212 0 0 1-7.696-18.606 26.274 26.274 0 0 1 7.696-18.608z" clip-rule="evenodd"/></g><path fill="#147cde" fill-rule="evenodd" d="M2053.569 1469.2c.433 6.833 6.327 12.018 13.169 11.594 6.833-.407 12.027-6.327 11.602-13.144-5.643-87.652-61.365-162.846-129.775-196.326-6.613 1.762-13.314 3.31-20.074 4.696 2.528 6.327 5.471 11.415 8.814 14.84 2.274 2.333 4.509 4.288 6.735 5.953 58.136 31.311 104.652 96.622 109.529 172.387z" clip-rule="evenodd"/><path fill="#98b6d8" fill-rule="evenodd" d="M2137.055 1545.813c-.741-4.517-5.006-7.551-9.515-6.8-4.492.75-7.534 5.006-6.783 9.507.089.603 39.047 214.755-85.305 270.15-4.16 1.844-6.035 6.751-4.175 10.911 1.85 4.158 6.743 6.033 10.901 4.175 136.315-60.732 94.992-287.307 94.877-287.943z" clip-rule="evenodd"/><path fill="#98b6d8" fill-rule="evenodd" d="M2025.74 1556.967c-.472-4.534-4.557-7.828-9.091-7.356-4.534.473-7.828 4.567-7.348 9.101.073.7 24.315 250.515 172.51 257.968 4.559.212 8.44-3.31 8.652-7.86.204-4.565-3.312-8.431-7.869-8.643-133.795-6.735-156.789-242.542-156.854-243.21z" clip-rule="evenodd"/><path fill="#144bc6" fill-rule="evenodd" d="M2116.523 1547.02c-.073 6.832 5.39 12.442 12.232 12.524 6.832.065 12.459-5.399 12.524-12.232.635-42.121-17.499-70.351-40.542-83.297-10.477-5.871-22.014-8.612-33.389-8.106-11.497.523-22.766 4.338-32.583 11.529-20.792 15.248-34.971 45.695-29.58 91.812.773 6.8 6.938 11.693 13.746 10.909 6.8-.767 11.693-6.93 10.918-13.732-4.2-35.924 5.309-58.528 19.578-68.996 5.756-4.208 12.329-6.458 18.981-6.751 6.783-.294 13.763 1.386 20.198 4.99 15.908 8.92 28.392 29.55 27.917 61.35z" clip-rule="evenodd"/><path fill="#6c83a2" fill-rule="evenodd" d="M2018.411 1807.092c4.736-4.763 11.325-7.698 18.598-7.698a26.235 26.235 0 0 1 18.362 7.436l.245.262c4.753 4.761 7.705 11.35 7.705 18.606 0 7.274-2.952 13.845-7.705 18.608a26.23 26.23 0 0 1-18.607 7.697 26.194 26.194 0 0 1-18.598-7.697c-4.754-4.763-7.707-11.334-7.707-18.608 0-7.256 2.952-13.845 7.707-18.606zM2157.464 1790.914c4.738-4.761 11.325-7.696 18.608-7.696 7.159 0 13.633 2.837 18.354 7.453l.244.244c4.754 4.763 7.707 11.35 7.707 18.608a26.217 26.217 0 0 1-7.707 18.606 26.213 26.213 0 0 1-18.597 7.715c-7.274 0-13.845-2.952-18.608-7.715a26.21 26.21 0 0 1-7.697-18.606 26.275 26.275 0 0 1 7.696-18.609zM1814.571 1635.555c-17.256 3.766-31.389 14.222-40.263 28.055-8.88 13.803-12.473 31-8.691 48.304 3.784 17.287 14.234 31.42 28.046 40.285 13.82 8.851 31.017 12.452 48.321 8.662 17.286-3.777 31.42-14.234 40.276-28.038 8.859-13.821 12.445-31.019 8.662-48.323-3.782-17.302-14.231-31.434-28.045-40.285l-.645-.375c-13.726-8.571-30.665-12.005-47.661-8.285z" clip-rule="evenodd"/><path fill="#147cde" fill-rule="evenodd" d="M1790.574 1674.023c6.148-9.629 16.025-16.917 28.138-19.564 11.897-2.598 23.703-.232 33.223 5.698l.506.345c9.633 6.185 16.927 16.065 19.564 28.138 2.644 12.089.143 24.096-6.036 33.737-6.178 9.641-16.057 16.928-28.123 19.566-12.083 2.651-24.103.141-33.737-6.029-9.64-6.186-16.926-16.065-19.572-28.139-2.646-12.075-.135-24.095 6.037-33.752z" clip-rule="evenodd"/><path fill="#144bc6" fill-rule="evenodd" d="M1808.934 1685.807a22.797 22.797 0 0 1 14.429-10.033 22.975 22.975 0 0 1 17.054 2.909l.249.18c4.944 3.174 8.686 8.231 10.039 14.429a22.918 22.918 0 0 1-3.098 17.315 22.866 22.866 0 0 1-14.427 10.033c-6.2 1.367-12.355.072-17.303-3.089a22.96 22.96 0 0 1-10.045-14.444 22.914 22.914 0 0 1 3.102-17.3z" clip-rule="evenodd"/><path fill="#147cde" fill-rule="evenodd" d="M1779.404 1298.688c.367-.693.988-2.146 1.438-2.788.276-.394.814-.879 1.272-1.446 1.621-2.004 5.903-4.353 9.16-5.731 3.257-1.378 11.086-.618 11.086-.618s-2.834 11.084-6.06 16.825c-2.601 4.627-5.526 12.606-6.262 15.535l-.832 2.622c-24.649 63.309-22.402 169.856 33.143 333.3 1.698 5.055-1.018 10.548-6.072 12.245-5.048 1.698-10.541-1.017-12.239-6.073-63.055-185.546-59.01-298.849-24.634-363.871z" clip-rule="evenodd"/><defs><path id="v" d="M2091.57 1008.503s8.872-15.887 21.664-44.773c12.792-28.886 9.491-59.938-7.427-90.061-16.919-30.124-69.238-95.839-179.829-96.251-110.591-.413-162.105 68.706-185.007 110.797-22.902 42.091-14.598 108.94 8.305 168.362 22.902 59.422 79.229 116.987 79.229 116.987l65.612-14.855 197.453-150.206z"/></defs><use fill="#3e4a60" overflow="visible" xlink:href="#v"/><clipPath id="w"><use overflow="visible" xlink:href="#v"/></clipPath><path fill="#303f56" d="M1743.431 1092.617s28.34 13.787 71.234-81.957c42.894-95.745 69.465-123.041 157.285-119.35 87.821 3.69 129.949-9.331 144.502-34.607l39.064 90.383-49.787 117.957-112.596 114.128-96.51 22.213-75.753-9.958-77.439-98.809z" clip-path="url(#w)"/><path fill="#f19596" d="M1941.497 1246.67c-.191-10.379.286-22.836 2.343-35.968l-41.678-67.262-73.659 30.123s4.472 17.441 2.823 44.489c19.603-4.457 59.421-6.39 110.171 28.618z"/><path fill="#fec3c0" d="M1831.327 1218.052c-.926 15.198-3.777 33.417-10.457 53.31 0 0 72.627 70.564 73.452 70.564.825 0 49.518-67.263 49.518-67.263s-2.037-11.303-2.343-27.993c-50.75-35.008-90.568-33.075-110.17-28.618z"/><path fill="#c4aeab" d="M1950.855 1095.159c-30.588-28.31-25.765-109.977-22.359-143.254-38.697 21.6-47.38 95.386-47.38 95.386s1.033 76.331 10.316 121.34c17.795 30.624 55.998 75.901 125.859 74.258 51.523-1.213 70.693-68.611 76.842-137.09-35.72 11.534-107.795 22.2-143.278-10.64z"/><path fill="#f19596" d="M1847.692 1063.385c-4.952 74.278 30.949 77.992 30.949 77.992s3.784 11.752 12.792 27.255c-9.283-45.009-10.316-121.34-10.316-121.34s-25.997-7.428-33.425 16.093z"/><path fill="#fec3c0" d="M1950.855 1095.159c35.482 32.84 107.558 22.173 143.279 10.64 6.41-71.376-1.327-143.927-1.327-143.927-12.379-38.377-110.178-28.473-155.982-13.617a46.48 46.48 0 0 0-8.328 3.65c-3.407 33.277-8.229 114.945 22.358 143.254z"/><path fill="#d4edff" d="m1890.814 1299.216 6.576 38.898 6.939-42.612 21.649 53.542-13.602 51.375h-18.26l-14.554-8.356-4.016-61.279z"/><path fill="#6aaef2" d="m1813.649 1242.683-27.854 49.106 95.735 108.631s8.047-57.875 9.285-101.203l-77.166-56.534zM1904.329 1295.502s15.784 69.326 17.331 100.274l50.29-110.797-28.11-38.686s-9.328 21.817-39.511 49.209z"/><path fill="#fec3c0" d="M2042.464 1827.981s127.509-26.822 173.314-30.124c45.804-3.301 120.907 2.063 90.783 55.708s-166.299 53.232-226.133 53.645c-59.835.413-69.326 0-69.326 0l31.362-79.229z"/><defs><path id="x" d="M1596.387 1403.411c20.402-42.076 44.154-63.548 74.277-67.675 30.124-4.126 80.055 30.536 85.006 67.675 4.952 37.139-14.443 140.714-32.393 187.757-17.95 47.042-59.05 139.226-46.856 157.817 12.193 18.591 55.522 32.828 113.706 34.685 58.184 1.857 252.543 16.712 252.543 16.712s34.044 81.086 0 120.701c0 0-238.926 1.857-350.342-8.047-104.726-9.309-188.788-33.425-180.123-134.937 8.667-101.513 76.754-359.37 84.182-374.688z"/></defs><use fill="#95cdfd" overflow="visible" xlink:href="#x"/><clipPath id="y"><use overflow="visible" xlink:href="#x"/></clipPath><path fill="#84c1f4" d="M1659.795 1321.035s-69.447 303.257-85.787 381.895-26.553 148.085 93.958 163.404c120.51 15.319 410.399 22.468 410.399 22.468l-20.563 49.021-443.964-16.603-111.319-50.801-7.149-53.73 10.213-104.568 41.872-212.426 37.787-134.809" clip-path="url(#y)"/><path fill="#0b4e9e" d="M3353.838 2168.897h-967.334c-38.494 0-69.699-31.206-69.699-69.699v-646.213c0-38.494 31.206-69.699 69.699-69.699h967.334c38.494 0 69.699 31.206 69.699 69.699v646.213c.001 38.494-31.205 69.699-69.699 69.699z"/><path fill="#fff" d="M2512.844 1832.78h138.021v17.003h-138.021zM2479.357 1802.496h204.993v17.004h-204.993zM2804.874 1516.38h331.955v21.397h-331.955zM3172.496 1516.38h129.002v21.397h-129.002zM2804.874 1467.646h155.878v21.398h-155.878zM2581.854 1771.203c-23.153 0-45.478-4.815-66.354-14.309-57.218-26.005-94.19-83.405-94.19-146.234 0-88.524 72.019-160.544 160.543-160.544 88.523 0 160.542 72.02 160.542 160.544 0 62.829-36.972 120.228-94.192 146.234-20.873 9.495-43.196 14.309-66.349 14.309zm0-312.611c-83.851 0-152.068 68.218-152.068 152.068 0 59.513 35.022 113.884 89.223 138.518 19.767 8.99 40.91 13.549 62.845 13.549 21.933 0 43.076-4.559 62.842-13.549 54.204-24.634 89.226-79.005 89.226-138.518 0-83.85-68.218-152.068-152.068-152.068z"/><path fill="#6aaef2" d="M2828.465 1578.324h8.476v205.53h-8.476zM2867.41 1578.324h8.476v205.53h-8.476zM2906.355 1578.324h8.476v205.53h-8.476zM2945.301 1578.324h8.476v205.53h-8.476zM2984.246 1578.324h8.475v205.53h-8.475zM3023.192 1578.324h8.475v205.53h-8.475zM3062.137 1578.324h8.475v205.53h-8.475zM3101.083 1578.324h8.475v205.53h-8.475zM3140.028 1578.324h8.475v205.53h-8.475zM3178.974 1578.324h8.475v205.53h-8.475zM3217.919 1578.324h8.475v205.53h-8.475zM3256.865 1578.324h8.475v205.53h-8.475z"/><path fill="#ff6559" d="M2828.465 1639.771h8.476v144.083h-8.476zM2867.41 1689.565h8.476v94.289h-8.476zM2906.355 1607.989h8.476v175.865h-8.476zM2945.301 1732.649h8.476v51.205h-8.476zM2984.246 1681.089h8.475v102.765h-8.475zM3023.192 1642.597h8.475v141.257h-8.475zM3062.137 1692.743h8.475v91.111h-8.475zM3101.083 1629.531h8.475v154.324h-8.475zM3140.028 1699.099h8.475v84.755h-8.475zM3178.974 1648.247h8.475v135.607h-8.475zM3217.919 1716.05h8.475v67.804h-8.475zM3256.865 1648.247h8.475v135.607h-8.475z"/><path fill="#fff" d="M2554.745 1547.716v-6.099h-38.937v6.099h2.341v134.866s-.678 17.128 17.127 17.128 17.127-17.128 17.127-17.128v-134.866h2.342zM2601.323 1547.716v-6.099h-38.938v6.099h2.341v134.866s-.678 17.128 17.127 17.128 17.127-17.128 17.127-17.128v-134.866h2.343zM2647.9 1547.716v-6.099h-38.938v6.099h2.341v134.866s-.678 17.128 17.127 17.128c17.806 0 17.128-17.128 17.128-17.128v-134.866h2.342z"/><path fill="#ff5e5d" d="M2523.394 1587.917v93.564s-.47 11.883 11.883 11.883 11.883-11.883 11.883-11.883v-93.564h-23.766zM2569.971 1603.859v79.419s-.469 10.086 11.883 10.086c12.353 0 11.883-10.086 11.883-10.086v-79.419h-23.766zM2616.549 1576.55v103.651s-.471 13.163 11.881 13.163c12.353 0 11.884-13.163 11.884-13.163V1576.55h-23.765z"/><path fill="#6aaef2" d="M2458.241 1899.023h405.126v25.997h-405.126zM2458.241 1958.445h405.126v25.997h-405.126zM2458.241 2017.866h405.126v25.997h-405.126zM2458.241 2077.288h405.126v25.997h-405.126z"/><path fill="#f4f4ec" d="M3222.602 2005.6c-2.417 0-2.851-.09-4.026-2.209-1.939-3.516-5.464-9.863-6.958-12.494-2.121-3.724-.294-5.127.331-6.141a16.202 16.202 0 0 0 2.417-8.548c0-3.063-.844-5.928-2.315-8.379-.646-1.083-2.403-2.745-.755-5.738 1.219-2.214 5.371-9.661 7.443-13.372 1.305-2.358 1.569-1.906 3.863-1.906 9.028 0 16.355-7.322 16.355-16.351 0-9.03-7.327-16.355-16.355-16.355-9.031 0-16.358 7.325-16.358 16.355a16.24 16.24 0 0 0 4.301 11.016c1.198 1.304 2.243 2.105 1.059 4.266-1.779 3.239-5.033 9.154-6.408 11.479-1.937 3.274-5.348 2.631-7.176 2.631-6.548 0-12.175 3.85-14.784 9.404-.417.886-1.49 2.786-3.756 2.786h-6.553c-2.718 0-3.746-1.359-5.089-3.777-2.793-5.015-8.133-8.413-14.276-8.413-3.944 0-4.534.28-5.958-2.174-3.256-5.603-10.369-17.847-11.124-19.286-.984-1.883-.198-4.611.454-5.507a16.192 16.192 0 0 0 3.145-9.614c0-2.832-.718-5.489-1.991-7.806-1.55-2.836-2.506-3.347-.977-5.908 1.007-1.67 2.292-3.827 3.145-5.256 1.585-2.642 4.254-2.289 5.546-2.178a16.252 16.252 0 0 0 9.488-2.13c7.826-4.516 10.497-14.515 5.984-22.336-4.518-7.818-14.516-10.498-22.342-5.983-7.814 4.518-10.497 14.517-5.979 22.338 1.513 2.619 2.557 3.287.741 6.373-.939 1.606-2.07 3.489-2.916 4.772-1.734 2.633-5.143 1.764-7.047 1.764-6.574 0-12.222 3.879-14.817 9.474-.45.963-2.513 3.031-4.739 3.031h-22.004c-3.41 0-4.411-2.233-4.91-3.261-2.636-5.468-8.229-9.243-14.707-9.243-1.17 0-4.094-.849-4.984-2.441-.851-1.527-1.895-3.4-2.711-4.902-1.667-3.064-.021-5.401.737-6.528a16.231 16.231 0 0 0 2.79-9.11c0-3.88-1.357-7.439-3.615-10.242-.755-.93-1.849-3.739-.865-5.42 1.888-3.246 4.842-8.257 5.898-9.767 1.597-2.288 3.762-2.188 4.812-1.964a16.26 16.26 0 0 0 11.553-1.823c7.817-4.514 10.5-14.517 5.982-22.338-4.513-7.821-14.514-10.499-22.335-5.984-7.819 4.514-10.502 14.514-5.984 22.339.459.789.958 2.515-.461 5.539-.935 1.991-4.159 7.247-6.266 10.619-2.343 2.395-3.117 2.694-5.071 2.694-6.135 0-11.476 3.379-14.269 8.378-1.294 2.318-1.571 3.373-4.942 3.373h-7.6c-3.562 0-4.686-2.483-5.231-3.627-2.623-5.512-8.243-9.329-14.768-9.329-9.026 0-16.346 7.317-16.346 16.347 0 9.032 7.32 16.354 16.346 16.354 6.063 0 11.336-3.298 14.157-8.195 1.569-2.715 2.051-3.853 4.762-3.853h8.213c3.566 0 4.072 1.858 4.41 2.736 2.343 6.15 8.292 10.515 15.267 10.515 1.424 0 3.739-.47 5.819 2.524.888 1.277 1.807 2.885 2.571 4.306 1.026 1.917.028 5.098-.706 6.024a16.275 16.275 0 0 0-3.518 10.129c0 3.204.925 6.189 2.517 8.706.713 1.125 2.212 3.491.399 6.866-1.308 2.443-7.229 12.62-10.408 18.073-2.252 2.815-4.77 2.935-6.21 2.935-6.177 0-11.551 3.436-14.327 8.494-.867 1.58-1.49 3.696-5.422 3.696h-5.737c-3.408 0-4.243-3.071-5.077-4.427-2.881-4.658-8.024-7.763-13.901-7.763-9.031 0-16.348 7.321-16.348 16.355 0 9.028 7.318 16.351 16.348 16.351 6.331 0 11.819-3.604 14.53-8.867 1.017-1.959 1.539-3.958 4.448-3.958h4.958c3.564 0 5.378 2.771 6.026 4.024 2.732 5.23 8.199 8.801 14.502 8.801 1.555 0 4.467-.256 6.539 2.909 1.462 2.24 7.01 11.969 10.11 17.435 2.07 3.651 1.345 4.111-.412 6.884a16.203 16.203 0 0 0-2.534 8.721c0 2.606.615 5.062 1.704 7.241.669 1.344 2.52 3.152.646 6.805-.932 1.821-2.051 3.69-2.939 5.105-1.725 2.763-3.306 1.759-5.28 1.566a16.18 16.18 0 0 0-9.751 2.104 16.23 16.23 0 0 0-6.646 7.286c-.515 1.113-2.047 3.478-5.145 3.478h-3.564c-2.671 0-4.48-2.237-5.525-4.21a16.334 16.334 0 0 0-14.474-8.745c-9.026 0-16.346 7.32-16.346 16.353 0 9.031 7.32 16.351 16.346 16.351 6.054 0 11.332-3.294 14.152-8.185 1.41-2.446 3.264-3.863 5.385-3.863h4.18c3.257 0 4.93 2.626 5.651 3.872 2.923 5.056 8.138 7.956 13.577 8.151 3.299.12 3.709.029 5.445 2.736l1.373 2.476c1.233 2.41-.014 3.697-1.991 7.12-4.52 7.82-1.839 17.824 5.987 22.338 7.819 4.515 17.819 1.837 22.337-5.988 4.509-7.818 1.834-17.816-5.991-22.335a16.194 16.194 0 0 0-7.646-2.172c-3.077-.092-4.644-.116-5.627-2.1l-1.529-2.74c-1.205-1.941-1.315-2.51 1.117-5.625 3.97-5.091 4.702-12.277 1.273-18.213-.671-1.165-2.163-3.119-.713-5.874.779-1.485 2.04-3.583 3.047-5.21 1.31-2.115 2.807-1.371 7.306-1.371 6.567 0 12.225-3.875 14.817-9.465.45-.964.905-3.043 3.807-3.043h23.878c1.718 0 3.415 2.091 3.865 3.06 2.602 5.577 8.25 9.448 14.81 9.448 1.037 0 3.096-.429 4.313 2.028.604 1.224 1.816 3.395 2.869 5.253 1.35 2.384.63 4.585-.494 6.183a16.236 16.236 0 0 0-2.94 9.338c0 9.029 7.324 16.346 16.355 16.346 7.134.005 13.187-4.574 15.411-10.947.357-.999 1.208-3.121 3.788-3.121h6.348c1.716 0 3.422 1.957 3.73 2.886 2.168 6.496 8.278 11.183 15.502 11.183 9.031 0 16.348-7.321 16.348-16.351 0-9.029-7.317-16.351-16.348-16.351-6.17 0-11.525 3.42-14.311 8.463-1.182 2.153-1.918 2.477-4.278 2.477h-7.315c-3.875 0-4.231-1.907-4.749-2.788-2.828-4.871-8.089-8.152-14.127-8.152-3.587 0-4.231.504-5.716-2.2-.876-1.59-1.954-3.527-2.72-4.827-1.511-2.576.112-4.394.844-5.265a16.242 16.242 0 0 0 3.837-10.506 16.21 16.21 0 0 0-3.217-9.72c-.632-.852-2.427-2.234-.499-5.202 1.48-2.281 8.103-13.892 11.08-19.136 1.101-1.942 3.285-1.891 6.119-1.891 6.641 0 12.355-3.968 14.906-9.662.455-1.006 1.336-3.163 4.026-3.163h6.129c2.562 0 3.688 1.5 4.613 3.454 2.625 5.54 8.252 9.371 14.784 9.371 1.828 0 5.033-1.204 6.963 2.245 1.294 2.31 4.364 7.842 6.262 11.241 1.319 2.387.895 3.063-.947 5.173a16.19 16.19 0 0 0-4.054 10.736c0 9.03 7.327 16.351 16.358 16.351 9.028 0 16.355-7.321 16.355-16.351-.004-9.034-7.331-16.359-16.359-16.359zm-81.926-14.868c-.97 1.507-7.474 12.855-10.781 18.633-1.937 3.398-3.891 2.789-6.164 2.789-6.45 0-12.017 3.741-14.677 9.172-.508 1.055-1.31 3.331-3.998 3.331h-23.768c-2.602 0-3.292-1.726-3.982-3.174-2.625-5.518-8.236-9.329-14.751-9.329-1.602 0-4.704.689-6.642-2.854-1.949-3.542-10.25-17.747-10.25-17.747-1.615-2.223-1.14-3.923.478-6.352a16.256 16.256 0 0 0 2.704-8.992 16.22 16.22 0 0 0-3.065-9.51c-1.464-2.033-1.786-3.631-.478-5.953 3.079-5.459 9-15.906 10.557-18.192 2.131-3.118 5.094-2.93 6.695-2.93 6.375 0 11.893-3.659 14.584-8.989.557-1.106 1.466-3.516 5.648-3.516h21.696c2.051 0 4.035 2.217 4.527 3.245 2.636 5.477 8.226 9.26 14.721 9.26 1.471 0 4.527-.148 5.998 2.457 1.107 1.973 7.875 13.663 11.08 19.203 1.019 1.767.308 4.297-.287 5.076a16.2 16.2 0 0 0-3.315 9.849c0 3.247.949 6.271 2.585 8.813.708 1.087 2.19 3.679.885 5.71z"/><path fill="#f4f4ec" d="M3074.699 1923.272c0 6.583-5.338 11.92-11.919 11.92s-11.921-5.337-11.921-11.92c0-6.588 5.341-11.92 11.921-11.92s11.919 5.332 11.919 11.92z"/><path fill="#ff5e5d" d="M3132.139 2067.661c0-6.588 5.331-11.926 11.915-11.926 6.593 0 11.924 5.338 11.924 11.926 0 6.581-5.331 11.916-11.924 11.916-6.584 0-11.915-5.335-11.915-11.916zM3153.297 1896.159c-5.702 3.287-12.989 1.336-16.281-4.361-3.292-5.704-1.338-12.993 4.366-16.289 5.7-3.287 12.989-1.332 16.278 4.365 3.292 5.704 1.339 12.989-4.363 16.285zM3054.176 1883.94c0 6.587-5.331 11.92-11.917 11.92-6.581 0-11.926-5.334-11.926-11.92 0-6.583 5.345-11.917 11.926-11.917 6.586 0 11.917 5.334 11.917 11.917zM3033.019 2055.164c5.702-3.293 12.987-1.339 16.288 4.364 3.285 5.701 1.336 12.989-4.362 16.283-5.704 3.289-12.998 1.338-16.29-4.363-3.294-5.705-1.341-12.99 4.364-16.284z"/><path fill="#f4f4ec" d="M3074.699 2028.507c0 6.588-5.338 11.918-11.919 11.918s-11.921-5.33-11.921-11.918c0-6.583 5.341-11.919 11.921-11.919s11.919 5.336 11.919 11.919zM3135.878 1923.272c0 6.583-5.334 11.92-11.919 11.92-6.588 0-11.924-5.337-11.924-11.92 0-6.588 5.336-11.92 11.924-11.92 6.585 0 11.919 5.332 11.919 11.92zM3135.878 2028.507c0 6.588-5.334 11.918-11.919 11.918-6.588 0-11.924-5.33-11.924-11.918 0-6.583 5.336-11.919 11.924-11.919 6.585 0 11.919 5.336 11.919 11.919zM3044.642 1976.208c0 6.582-5.334 11.917-11.926 11.917-6.581 0-11.917-5.335-11.917-11.917 0-6.586 5.336-11.92 11.917-11.92 6.592 0 11.926 5.335 11.926 11.92z"/><path fill="#ff5e5d" d="M3000.177 1976.208c0 6.582-5.338 11.917-11.917 11.917-6.583 0-11.924-5.335-11.924-11.917 0-6.586 5.341-11.92 11.924-11.92 6.579 0 11.917 5.335 11.917 11.92zM3007.376 2065.489c0 6.583-5.341 11.917-11.924 11.917-6.583 0-11.917-5.334-11.917-11.917 0-6.586 5.334-11.92 11.917-11.92s11.924 5.334 11.924 11.92z"/><path fill="#f4f4ec" d="M3165.708 1976.208c0 6.582-5.343 11.917-11.926 11.917s-11.917-5.335-11.917-11.917c0-6.586 5.334-11.92 11.917-11.92s11.926 5.335 11.926 11.92zM3210.163 1976.208c0 6.582-5.331 11.917-11.917 11.917s-11.926-5.335-11.926-11.917c0-6.586 5.341-11.92 11.926-11.92s11.917 5.335 11.917 11.92z"/><path fill="#ff5e5d" d="M3234.747 2021.953c0 6.583-5.334 11.918-11.917 11.918s-11.926-5.335-11.926-11.918c0-6.582 5.343-11.919 11.926-11.919s11.917 5.337 11.917 11.919zM3234.747 1930.462c0-6.583-5.334-11.92-11.917-11.92s-11.926 5.337-11.926 11.92 5.343 11.917 11.926 11.917c6.583-.001 11.917-5.334 11.917-11.917zM3062.251 1830.236c5.709-3.288 12.999-1.337 16.29 4.365 3.292 5.703 1.336 12.993-4.366 16.288-5.7 3.288-12.989 1.333-16.279-4.364-3.291-5.71-1.338-12.994 4.355-16.289zM3007.376 1882.735c0 6.587-5.341 11.925-11.924 11.925-6.583 0-11.917-5.338-11.917-11.925 0-6.583 5.334-11.917 11.917-11.917s11.924 5.334 11.924 11.917zM3063.34 2091.997c-5.702-3.287-12.989-1.333-16.281 4.364-3.294 5.707-1.341 12.992 4.362 16.289 5.704 3.287 12.989 1.338 16.283-4.367 3.291-5.701 1.335-12.987-4.364-16.286zM3200.759 2067.657c0 6.583-5.334 11.92-11.919 11.92-6.581 0-11.921-5.337-11.921-11.92s5.341-11.922 11.921-11.922c6.585 0 11.919 5.339 11.919 11.922z"/><path fill="#fec3c0" d="M2441.118 1386.199s18.879 3.095 26.926 30.639c8.047 27.545 29.402 47.971 61.898 49.518 32.496 1.547 76.753-4.952 82.943-27.854 6.19-22.902-.928-50.447-22.593-66.231s-30.949-23.543-69.016-22.902c-37.289.629-73.968 2.168-80.158 36.83z"/><path fill="#6aaef2" d="M3136.971 857.901h-618.742c-66.673 0-120.722 48.285-120.722 107.848v60.228l-108.087 58.47 108.087 24.929v36.204c0 59.563 54.049 107.848 120.722 107.848h618.742c66.673 0 120.722-48.285 120.722-107.848V965.749c0-59.562-54.049-107.848-120.722-107.848z"/><path fill="#147cde" d="M3157.866 857.901h-618.742c-66.673 0-120.722 48.285-120.722 107.848v60.228l-108.087 58.47 108.087 24.929v36.204c0 59.563 54.049 107.848 120.722 107.848h618.742c66.673 0 120.722-48.285 120.722-107.848V965.749c0-59.562-54.049-107.848-120.722-107.848z"/><path fill="#fff" d="M2531.246 917.323h638.586v35.214h-638.586zM2531.246 997.813h638.586v35.214h-638.586zM2531.246 1078.303h638.586v35.214h-638.586zM2531.246 1158.792h638.586v35.214h-638.586z"/><circle cx="3125.996" cy="685.619" r="30.207" fill="#0072ef"/><circle cx="3249.45" cy="685.619" r="30.207" fill="#2f9e77"/><circle cx="3372.904" cy="685.619" r="30.207" fill="#ff5e5d"/><path fill="#ffaca6" d="M3605.094 2506.599c9.381-20.097 2.46-61.047 2.46-61.047l61.017-19.119c2.161 32.438 7.29 57.903 11.902 62.594-31.164 21.812-62.871 19.619-75.379 17.572z"/><path fill="#1e2889" d="M3551.124 2551.581c4.604-6.142 34.179-22.867 49.688-38.557 1.714-1.734 3.116-3.928 4.282-6.424 12.509 2.047 44.215 4.24 75.379-17.572.208.212.415.396.621.522 11.911 7.28 37.037 59.029 10.353 65.771-26.684 6.742-49.338 24.746-68.817 33.315-19.478 8.569-58.763 3.347-66.253.972-7.491-2.376-9.856-31.885-5.253-38.027z"/><path fill="#ffaca6" d="M3915.847 2453.079c3.091-21.962-15.508-59.096-15.508-59.096l52.754-36.134c11.556 30.387 23.912 53.238 29.694 56.373-23.419 29.976-54.38 37.155-66.94 38.857z"/><path fill="#1e2889" d="M3877.399 2511.881c2.606-7.22 25.993-31.866 36.233-51.406 1.132-2.159 1.831-4.667 2.215-7.396 12.56-1.702 43.521-8.881 66.94-38.856.261.141.514.258.747.317 13.52 3.477 52.686 45.611 29.142 59.865-23.544 14.254-39.94 38.097-56.059 51.991-16.119 13.893-55.213 20.393-63.071 20.313-7.857-.081-18.753-27.607-16.147-34.828z"/><defs><path id="z" d="m3606.925 1784.291-10.664 8.907s-46.189 184.54-42.823 354.372c3.366 169.831 28.373 305.871 28.373 305.871s60.125 23.823 107.631-18.988c0 0-28.521-118.888-22.727-205.626s37.002-219.123 37.002-219.123l14.382-198.754-111.174-26.659z"/></defs><use fill="#003da8" overflow="visible" xlink:href="#z"/><clipPath id="A"><use overflow="visible" xlink:href="#z"/></clipPath><path fill="#00398c" d="M3662.436 1764.236s-57.238 268.382-48.562 353.113c8.676 84.731 100.051 293.256 100.051 293.256l40.56-489.311-6.167-119.035-85.882-38.023z" clip-path="url(#A)"/><defs><path id="B" d="m3678.633 1819.889-.64 7.718s1.451 144.747 17.258 240.253c15.807 95.506 108.355 235.112 179.834 340.814 0 0 74.322 4.067 105.768-55.426 0 0-119.204-213.77-132.142-316.918-20.215-161.167-20.555-203.761-32.222-228.42l-83.288 6.036-54.568 5.943z"/></defs><use fill="#0542bf" overflow="visible" xlink:href="#B"/><clipPath id="C"><use overflow="visible" xlink:href="#B"/></clipPath><path fill="#1455c6" d="M3755.203 1792.335s-19.322 286.218 41.696 370.819 157.953 248.753 157.953 248.753l69.247-60.368-113.402-243.843-74.33-327.473-54.57-3.477-26.594 15.589z" clip-path="url(#C)"/><defs><path id="D" d="M3627.764 1192.364s-30.522-20.964-24.294-50.613 23.976-41.584 46.51-50.609c22.534-9.025 25.369-28.062 57.93-21.592 32.562 6.47 30.175 20.097 48.904 31.705 18.729 11.608 43.796 7.401 57.06 49.558 13.264 42.157-26.429 61.072-28.328 78.93-1.899 17.858-5.185 37.276-38.572 45.821-33.387 8.544-44.787 19.714-44.787 19.714l-40.934-36.874-33.489-66.04z"/></defs><use fill="#222e92" overflow="visible" xlink:href="#D"/><clipPath id="E"><use overflow="visible" xlink:href="#D"/></clipPath><path fill="#16257f" d="M3794.731 1248.635s-15.639 11.905-30.96-11.606c-15.321-23.511-30.198-74.458-72.946-76.432-42.748-1.973-75.254-7.546-87.323-22.938l-6.618 19.86 20.527 45.921 70.04 67.295 46.451 23.583 59.802-39.633 1.027-6.05z" clip-path="url(#E)"/><path fill="#f19596" d="m3669.442 1272.094 25.026-15.718 25.473 28.353s-1.286 7-1.756 20.869c-.021.61.006 1.195.017 1.789-8.867-.479-31.134.199-50.425 16.126 3.401-25.17 1.665-51.419 1.665-51.419z"/><path fill="#fec3c0" d="M3667.778 1323.512c19.291-15.926 41.558-16.604 50.425-16.126.273 15.649 10.89 25.821 10.89 25.821l-4.166 14.482-25.559 17.941s-39.557-2.581-33.579-30.519c.806-3.77 1.458-7.672 1.989-11.599z"/><path fill="#f19596" d="M3357.489 1413.036s-24.251-17.023-33.102-38.057c-8.851-21.034-23.808-39.161-40.836-22.373s13.767 64.699 32.23 80.756c18.464 16.057 32.311 16.945 32.311 16.945l9.397-37.271z"/><defs><path id="F" d="M3694.646 1347.037c-24.739-.891-28.174-15.353-28.174-15.353s-40.928 1.872-53.896 22.679c-28.015 44.951.98 80.557-73.785 119.713s-154.281-24.301-172.833-61.424c0 0-24.615-1.866-35.068 29.538 0 0 52.683 107.284 134.281 111.955 81.598 4.671 136.354-33.004 153.065-49.412 0 0-6.051 207.89-34.721 307.559 0 0 38.22 49.914 131.075 47.145 92.855-2.769 116.755-18.641 116.755-18.641s1.039-183.82-6.596-211.665c0 0 27.018-16.6 28.518-53.63 1.5-37.031-4.477-135.385-22.991-183.494-18.515-48.109-52.163-57.789-101.184-58.799 0-.001-10.253 14.701-34.446 13.829z"/></defs><use fill="#ff5e5d" overflow="visible" xlink:href="#F"/><clipPath id="G"><use overflow="visible" xlink:href="#F"/></clipPath><path fill="#f74646" d="m3835.183 1633.948-10.434-4.817s-51.845 30.985-153.917-58.555c-102.072-89.54 0 0 0 0l-52.359-39.019s23.62 37.02 48.996 61.276c25.376 24.257 71.792 61.945 124.038 60.868 52.246-1.077 55.748-13.869 55.748-13.869l-12.072-5.884zM3781.355 1384.751s-12.293 15.727-7.3 43.876c4.993 28.149 35.244 124.068 19.288 133.473-15.956 9.405-70.796-13.98-70.796-13.98s66.338 20.413 64.921-.375c-1.417-20.788-21.243-97.265-22.034-122.449-.79-25.184 15.921-40.545 15.921-40.545z" clip-path="url(#G)"/><path fill="#f74646" d="M3334.484 1420.101s32.821 45.981 76.809 79.281c43.989 33.301 84.062 25.458 128.667 17.643a118.43 118.43 0 0 0 6.014-1.234c52.722-16.738 68.523-90.72 68.557-91.49l.006-.008c1.669-36.663 7.605-53.786 7.605-53.786-4.028 31.261-4.255 95.431-4.002 132.641l.76 12.745-.634 1.089c.103 9.073.208 14.576.208 14.576s.009 3.777-1.017-13.186l-30.467 52.303-100.732 13.418-116.062-47.648-52.505-94.71 16.793-21.634z" clip-path="url(#G)"/><path fill="#fec3c0" d="m3695.052 1539.332-24.22 31.244s-58.118-33.343-65.654-54.996c-7.536-21.652 9.095-44.695 45.339-15.176s44.535 38.928 44.535 38.928z"/><defs><path id="H" d="M3629.152 1172.663s-31.351 147.311 28.207 126.804c59.558-20.507 55.965-50.8 55.965-50.8s17.773 2.398 19.561-23.285-22.033-8.77-22.033-8.77-12.75-12.337-20.825-32.187a93.99 93.99 0 0 1-1.15-2.969c-7.947-21.581-44.318 11.794-59.725-8.793z"/></defs><use fill="#fec3c0" overflow="visible" xlink:href="#H"/><clipPath id="I"><use overflow="visible" xlink:href="#H"/></clipPath><path fill="#f19596" d="M3732.181 1247.755s.109-13.946-17.373-13.476c-17.483.47-30.233-39.312-45.018-41.933-14.784-2.621-37.722 2.63-47.069-12.972l4.428-19.17 64.374 11.965 46.605 41.716-5.947 33.87z" clip-path="url(#I)"/></svg>