<svg xmlns="http://www.w3.org/2000/svg" enable-background="new 0 0 2000 2000" viewBox="0 0 2000 2000"><path fill="#e9eef8" fill-rule="evenodd" d="M997.6,1509c186.1,0,357.4,2.8,493.4,7.4c332.7-190.2,217.5-560.8,98-770.4   C1422.8,454.2,1030,349.3,867.5,582.1c-220.5,316-433.3,205.7-548.2,445.7c-114.9,240,59.6,470,184.9,488.6   C640.2,1511.8,811.5,1509,997.6,1509L997.6,1509z M706.1,699.8c-85.1,64.8-226,115-272.8,46.1c-34.9-51.5,8.1-148.1,92.4-221.3   c84.2-73.2,197.1-117.5,258.6-63.6C857.4,525.1,771.7,649.9,706.1,699.8z" clip-rule="evenodd"/><path fill="#d2deec" fill-rule="evenodd" d="M997.6,1509c442,0,800.2,15.7,800.2,35c0,19.4-358.3,35-800.2,35c-442,0-800.2-15.7-800.2-35   C197.4,1524.7,555.7,1509,997.6,1509z" clip-rule="evenodd"/><path fill="#fff" fill-rule="evenodd" d="M1255.7,541.5c199.9,44.5,327,228.3,339.5,317.1c5.1,36.4-4.4-48.8-106.3-126.4   c-91.1-69.3-162.1-82.2-270.5-90.6c-76.6-5.9-156.8-15.3-151.1-61C1071.8,544.5,1126.6,512.8,1255.7,541.5L1255.7,541.5z    M733.1,467.2c34.4,2.1,55.4,30.3,56.8,62.9c0.6,13.9-10.3-22.4-48.4-27.4c-23.7-3.1-27.2,3.8-35.7-5.9   C697.3,487,705.3,465.5,733.1,467.2z" clip-rule="evenodd"/><path fill="#d2deec" fill-rule="evenodd" d="M482.1,1428.2c-9.1-11.4-22-20.9-25.7-35c-4.4-16.7,5.3-34.2,2.9-51.3c-3-21.5-23.8-35.4-35-54   c-11-18.2-5.9-24.3-6.9-45.6c-1.5-32-27.8-72.4-62.8-61.6c-35.5,11-29.7,44-23.5,68.9c4.5,17.7,1.5,20.2-2.8,38   c-5.2,21.4-22.1,42.1-15,63c4.4,12.9,17,21.6,21.6,34.5c5.2,14.5-1.1,30.3-3.5,45.6c-5.1,32.1,2.2,58.8,25.5,85.3   c2.5,2.4,5.1,4.6,7.8,6.7c32.7-1.8,69.4-3.5,109.8-5.1l0.3-0.3C496.3,1493.9,502.6,1453.9,482.1,1428.2z" clip-rule="evenodd"/><path fill="#fff" fill-rule="evenodd" d="M370.8,1209.7c-0.6-1.4-2.2-2.2-3.6-1.6c-1.4,0.6-2.2,2.2-1.6,3.6c2.8,7.3,5.1,14.9,7.1,22.8   c-0.8-0.7-1.6-1.4-2.5-2.1c-3.8-3.1-8.1-5.7-13-8c-1.4-0.7-3.1-0.1-3.7,1.3c-0.7,1.4-0.1,3.1,1.3,3.7c4.4,2.1,8.4,4.5,11.9,7.3   c3.3,2.6,6.1,5.6,8.5,8.8c3.6,17.1,5.9,35.5,8,55c-3.3-5.1-6.7-9.6-10.4-13.6c-6.4-7-13.5-12.4-21.3-16.2c-1.4-0.7-3.1-0.1-3.8,1.3   c-0.7,1.4-0.1,3.1,1.3,3.8c7.1,3.5,13.7,8.5,19.6,15c5.9,6.4,11.3,14.3,16,23.6l0.5,5.3c1.2,11.6,2.4,23.4,3.9,35.6   c0,0.1,0,0.2,0,0.3c1.5,12.7,3.3,25.6,5.5,38.8c-6.1-9.4-12.6-17.6-19.6-24.8c-10.2-10.5-21.5-18.8-33.7-24.6   c-1.4-0.7-3.1-0.1-3.7,1.3c-0.7,1.4-0.1,3.1,1.3,3.7c11.6,5.6,22.3,13.4,32.1,23.5c9.8,10,18.6,22.3,26.5,36.8   c3.5,17.4,7.9,35.2,13.7,53.1l0,0l0,0.1v0c2.9,8.8,6.1,17.7,9.7,26.5c-8.5-7.3-17.5-13.6-27.1-18.9c-13.3-7.4-27.6-12.9-42.8-16.4   c-1.5-0.4-3,0.6-3.4,2.1c-0.4,1.5,0.6,3,2.1,3.4c14.8,3.4,28.6,8.7,41.4,15.8c12.7,7.1,24.4,15.9,35.2,26.6   c2.5,5.5,5.1,11.1,8,16.6l6.2-0.3c-9.9-19.1-17.7-38.2-23.9-57c-1.1-13.7,0.6-27.4,4.9-41.1c4.4-13.9,11.5-27.8,21.3-41.7   c0.9-1.3,0.6-3-0.7-3.9c-1.3-0.9-3-0.6-3.9,0.7c-10.2,14.4-17.6,28.8-22.1,43.2c-2.6,8.2-4.2,16.4-5,24.6   c-8.4-30.4-13.1-60.1-16.5-88.5c3.3-12,7-22.2,11-30.5c4-8.3,8.4-14.7,13.2-19.1c1.1-1.1,1.2-2.8,0.1-4c-1.1-1.1-2.8-1.2-4-0.1   c-5.2,5-10,11.9-14.4,20.8c-2.7,5.5-5.2,11.8-7.6,18.9c-0.8-7.5-1.6-14.9-2.3-22.1l-0.6-5.7c0-0.1,0-0.2,0-0.3   C386.3,1274.5,382.2,1239.5,370.8,1209.7z" clip-rule="evenodd"/><path fill="#c4def3" fill-rule="evenodd" d="M388.2,1443.3c-9.7-5.3-21.5-8-28.3-16.7c-8-10.3-6.4-25.4-13.2-36.6c-8.5-14.1-27.1-17.6-40.4-27.3   c-13.1-9.4-11.3-15.2-18.3-29.7c-10.5-21.9-40.8-42.2-62-24.3c-21.5,18.2-7.7,39.5,4.1,54.9c8.3,11,7.1,13.6,9.3,27.3   c2.7,16.5-2.9,35.9,8.2,48.3c6.9,7.7,18.3,10,25.3,17.6c7.9,8.6,8.2,21.4,11.1,32.8c3.8,15.1,10.3,27.2,20.7,36.9   c28-2.1,60.9-4.1,98-5.9c2.8-4.1,5.2-8.5,6.8-13.2C417.5,1484.8,410.1,1455.1,388.2,1443.3z" clip-rule="evenodd"/><path fill="#fff" fill-rule="evenodd" d="M245.9,1324c-0.8-0.8-2.2-0.9-3-0.1c-0.8,0.8-0.9,2.2-0.1,3c4.1,4.2,8,8.8,11.7,13.7c-0.8-0.3-1.6-0.5-2.4-0.7   c-3.6-1-7.4-1.6-11.4-1.7c-1.2,0-2.2,0.9-2.2,2c0,1.2,0.9,2.2,2,2.2c3.7,0.1,7.2,0.7,10.4,1.6c3.1,0.9,5.9,2.1,8.6,3.6   c7.6,10.9,14.7,23,21.9,35.9c-3.8-2.6-7.5-4.7-11.3-6.4c-6.5-3-13.1-4.6-19.6-5c-1.2-0.1-2.2,0.8-2.2,2c-0.1,1.2,0.8,2.2,2,2.2   c6,0.3,12.1,1.9,18.1,4.6c6,2.7,12.1,6.6,18.2,11.7l1.9,3.5c4.3,7.7,8.6,15.6,13.2,23.6c0,0.1,0.1,0.2,0.1,0.2   c4.8,8.4,9.9,16.9,15.3,25.4c-7-4.7-14-8.6-21-11.5c-10.3-4.3-20.5-6.7-30.8-7.2c-1.2-0.1-2.2,0.9-2.2,2c-0.1,1.2,0.9,2.2,2,2.2   c9.8,0.5,19.5,2.7,29.3,6.9c9.8,4.1,19.6,10,29.4,17.8c7.6,11.1,15.9,22.2,25.3,33l0,0l0,0l0,0c4.6,5.3,9.5,10.5,14.6,15.6   c-8.1-2.6-16.2-4.3-24.4-5.2c-11.5-1.2-23-0.8-34.7,1.3c-1.2,0.2-1.9,1.3-1.7,2.5c0.2,1.2,1.3,1.9,2.5,1.7   c11.3-2,22.5-2.4,33.5-1.2c10.9,1.2,21.7,3.9,32.4,8.1c3.7,3.4,7.5,6.8,11.5,10.1l6.3-0.3c-13.9-11.1-26-22.9-36.6-35.2   c-4.8-9.2-7.7-19.2-8.8-30c-1.1-11-0.2-22.7,2.5-35.4c0.2-1.1-0.5-2.3-1.6-2.5c-1.1-0.3-2.3,0.5-2.5,1.6c-2.8,13-3.7,25.3-2.6,36.7   c0.6,6.5,1.9,12.7,3.8,18.6c-14.9-18.7-26.9-38-37.7-56.8c-1.3-9.3-1.7-17.5-1.4-24.5c0.4-7,1.5-12.7,3.5-17.2   c0.5-1.1,0-2.3-1.1-2.8c-1.1-0.5-2.3,0-2.8,1.1c-2.2,5-3.5,11.3-3.9,18.7c-0.2,4.6-0.1,9.8,0.3,15.4c-2.8-5-5.5-9.9-8.2-14.7   l-2.1-3.8c0-0.1-0.1-0.1-0.1-0.2C275.8,1364.6,262.7,1341.4,245.9,1324z" clip-rule="evenodd"/><path fill="#d2deec" fill-rule="evenodd" d="M1477.8,1417.4c10-12.5,24-22.8,28.1-38.2c4.9-18.2-5.8-37.3-3.2-56c3.3-23.5,25.9-38.7,38.2-59   c12-19.9,6.4-26.5,7.5-49.7c1.6-34.9,30.3-79,68.5-67.2c38.8,12,32.4,48.1,25.6,75.2c-4.9,19.3-1.7,22.1,3,41.4   c5.7,23.4,24.1,45.9,16.4,68.7c-4.8,14.1-18.6,23.6-23.6,37.6c-5.7,15.9,1.2,33.1,3.8,49.7c5.6,35-2.4,64.2-27.9,93.1   c-3.1,2.9-6.3,5.6-9.6,8.1c-35.2-1.8-74.5-3.4-117.2-4.9c-0.6-0.6-1.2-1.2-1.7-1.8C1462.3,1489,1455.4,1445.4,1477.8,1417.4z" clip-rule="evenodd"/><path fill="#fff" fill-rule="evenodd" d="M1599.2,1178.9c0.6-1.6,2.4-2.4,4-1.8c1.6,0.6,2.4,2.4,1.8,4c-3,7.9-5.6,16.2-7.8,24.8   c0.9-0.8,1.8-1.6,2.7-2.3c4.2-3.3,8.9-6.3,14.2-8.8c1.5-0.7,3.4-0.1,4.1,1.5c0.7,1.5,0.1,3.3-1.5,4.1c-4.9,2.3-9.2,5-12.9,8   c-3.6,2.9-6.7,6.1-9.3,9.7c-3.9,18.7-6.5,38.8-8.8,60c3.5-5.5,7.3-10.5,11.4-14.8c7-7.6,14.7-13.5,23.2-17.7   c1.5-0.8,3.3-0.1,4.1,1.4c0.7,1.5,0.1,3.3-1.4,4.1c-7.8,3.9-14.9,9.3-21.4,16.4c-6.5,7-12.3,15.6-17.5,25.8l-0.6,5.7   c-1.3,12.6-2.6,25.6-4.2,38.8c0,0.1,0,0.3,0,0.4c-1.7,13.8-3.6,27.9-6,42.3c6.6-10.2,13.7-19.3,21.4-27.1   c11.2-11.5,23.4-20.5,36.8-26.9c1.5-0.7,3.4-0.1,4.1,1.4c0.7,1.5,0.1,3.4-1.4,4.1c-12.7,6.1-24.4,14.7-35,25.6   c-10.6,11-20.3,24.3-28.9,40.1c-3.8,19-8.6,38.4-14.9,58l0,0l0,0.1l0,0c-3.1,9.6-6.6,19.3-10.6,29c9.3-8,19.1-14.8,29.5-20.6   c14.5-8.1,30.1-14,46.7-17.9c1.7-0.4,3.3,0.6,3.7,2.3c0.4,1.6-0.6,3.3-2.3,3.7c-16.1,3.7-31.2,9.5-45.1,17.3   c-13.8,7.7-26.6,17.4-38.4,29.1c-2.9,6.4-6,12.9-9.3,19.4l-6.8-0.3c11.2-21.3,19.8-42.5,26.7-63.5c1.1-14.9-0.6-29.9-5.3-44.8   c-4.8-15.1-12.5-30.3-23.3-45.5c-1-1.4-0.7-3.3,0.7-4.3c1.4-1,3.3-0.7,4.3,0.7c11.1,15.7,19.2,31.4,24.1,47.2   c2.8,8.9,4.6,17.9,5.4,26.8c9.2-33.2,14.3-65.6,18-96.6c-3.6-13.1-7.6-24.2-12-33.3c-4.4-9-9.2-16-14.4-20.9   c-1.2-1.2-1.3-3.1-0.1-4.3c1.2-1.2,3.1-1.3,4.3-0.1c5.7,5.4,11,13,15.7,22.7c2.9,6,5.7,12.9,8.3,20.7c0.9-8.2,1.7-16.2,2.5-24.2   l0.6-6.2c0-0.1,0-0.2,0-0.3C1582.4,1249.7,1586.8,1211.4,1599.2,1178.9z" clip-rule="evenodd"/><path fill="#c4def3" fill-rule="evenodd" d="M1580.3,1433.8c10.6-5.7,23.4-8.8,30.9-18.3c8.8-11.2,7-27.7,14.4-39.9c9.3-15.4,29.5-19.3,44.1-29.8   c14.3-10.3,12.3-16.6,19.9-32.4c11.5-23.8,44.5-46.1,67.6-26.5c23.4,19.9,8.4,43.1-4.4,59.9c-9.1,12-7.7,14.9-10.2,29.8   c-2.9,18,3.2,39.1-8.9,52.7c-7.5,8.4-19.9,10.9-27.6,19.2c-8.6,9.4-9,23.4-12.1,35.8c-4.2,16.7-11.5,30-23.1,40.8   c-30.6-2.1-66-4-105.7-5.8c-3.5-4.8-6.3-10-8.3-15.5C1548.3,1479.2,1556.4,1446.7,1580.3,1433.8z" clip-rule="evenodd"/><path fill="#fff" fill-rule="evenodd" d="M1735.5,1303.7c0.9-0.9,2.4-0.9,3.3-0.1c0.9,0.9,0.9,2.4,0.1,3.3c-4.5,4.6-8.7,9.6-12.8,15   c0.8-0.3,1.7-0.6,2.6-0.8c3.9-1.1,8-1.7,12.5-1.9c1.3-0.1,2.4,0.9,2.4,2.2c0,1.3-0.9,2.4-2.2,2.4c-4.1,0.2-7.9,0.7-11.4,1.7   c-3.3,0.9-6.5,2.3-9.4,4c-8.3,11.9-16,25.1-23.9,39.2c4.1-2.8,8.2-5.1,12.3-7c7.1-3.2,14.3-5,21.4-5.5c1.3-0.1,2.4,0.9,2.4,2.2   c0.1,1.3-0.9,2.4-2.2,2.4c-6.6,0.4-13.2,2.1-19.8,5.1c-6.6,3-13.2,7.2-19.8,12.8l-2.1,3.8c-4.6,8.4-9.4,17-14.4,25.8   c0,0.1-0.1,0.2-0.1,0.3c-5.2,9.1-10.8,18.4-16.7,27.7c7.6-5.2,15.3-9.3,22.9-12.5c11.2-4.7,22.4-7.3,33.6-7.8   c1.3-0.1,2.4,0.9,2.4,2.2c0.1,1.3-0.9,2.4-2.2,2.4c-10.6,0.5-21.3,3-32,7.5c-10.7,4.5-21.3,10.9-32,19.4   c-8.3,12.1-17.3,24.2-27.6,36l0,0l0,0l0,0c-5,5.8-10.3,11.5-16,17c8.8-2.8,17.7-4.7,26.7-5.6c12.5-1.3,25.1-0.9,37.9,1.4   c1.3,0.2,2.1,1.4,1.9,2.7c-0.2,1.3-1.4,2.1-2.7,1.9c-12.3-2.2-24.5-2.6-36.6-1.3c-11.9,1.3-23.7,4.2-35.4,8.9   c-4.4,4-8.9,8-13.7,11.9l-7-0.3c15.7-12.4,29.2-25.7,41.2-39.4c5.2-10.1,8.4-21,9.6-32.8c1.2-12,0.3-24.8-2.7-38.6   c-0.3-1.2,0.5-2.5,1.8-2.8c1.2-0.3,2.5,0.5,2.8,1.8c3.1,14.2,4,27.6,2.8,40c-0.7,7.1-2.1,13.8-4.2,20.3   c16.2-20.4,29.4-41.5,41.2-61.9c1.4-10.2,1.9-19.1,1.5-26.8c-0.4-7.6-1.7-13.9-3.8-18.8c-0.5-1.2,0-2.5,1.2-3.1   c1.2-0.5,2.5,0,3.1,1.2c2.4,5.5,3.8,12.3,4.2,20.4c0.3,5.1,0.1,10.7-0.3,16.8c3-5.4,6-10.8,8.9-16.1l2.3-4.1c0-0.1,0.1-0.2,0.1-0.2   C1702.9,1348,1717.3,1322.6,1735.5,1303.7z" clip-rule="evenodd"/><path fill="#fff" fill-rule="evenodd" d="M939.5,669.6c-2.9,39.3-8.7,44.7-46.1,47.8c37.5,3,43.3,8.4,46.1,47.8c2.9-39.3,8.7-44.7,46.1-47.8   C948.2,714.4,942.4,709,939.5,669.6L939.5,669.6z M1091.8,773.3c-1.5,21-4.6,23.9-24.6,25.5c20,1.6,23.1,4.5,24.6,25.5   c1.5-21,4.6-23.9,24.6-25.5C1096.5,797.2,1093.4,794.3,1091.8,773.3L1091.8,773.3z M1025.1,611.8c-1.5,21.3-4.7,24.2-24.9,25.8   c20.3,1.6,23.4,4.6,24.9,25.8c1.5-21.3,4.7-24.2,24.9-25.8C1029.8,636,1026.7,633.1,1025.1,611.8z" clip-rule="evenodd"/><path fill="#fff" fill-rule="evenodd" d="M884.3,1314.1c2.3,31.8,7,36.2,37.4,38.7c-30.4,2.5-35.1,6.8-37.4,38.7c-2.3-31.8-7-36.2-37.4-38.7   C877.2,1350.4,881.9,1346,884.3,1314.1L884.3,1314.1z M760.8,1398.1c1.2,17,3.7,19.3,20,20.7c-16.2,1.3-18.7,3.7-20,20.7   c-1.2-17-3.7-19.3-20-20.7C757.1,1417.5,759.6,1415.1,760.8,1398.1L760.8,1398.1z M814.9,1267.3c1.3,17.2,3.8,19.6,20.2,20.9   c-16.4,1.3-19,3.7-20.2,20.9c-1.3-17.2-3.8-19.6-20.2-20.9C811.1,1286.9,813.6,1284.5,814.9,1267.3z" clip-rule="evenodd"/><path fill="#fff" fill-rule="evenodd" d="M1369.3,1235.6c-1.8,24.4-5.4,27.7-28.6,29.6c23.2,1.9,26.8,5.2,28.6,29.6c1.8-24.4,5.4-27.7,28.6-29.6   C1374.7,1263.4,1371.1,1260,1369.3,1235.6L1369.3,1235.6z M1463.8,1299.9c-0.9,13-2.9,14.8-15.3,15.8c12.4,1,14.3,2.8,15.3,15.8   c0.9-13,2.9-14.8,15.3-15.8C1466.7,1314.7,1464.7,1312.9,1463.8,1299.9L1463.8,1299.9z M1422.4,1199.7c-1,13.2-2.9,15-15.5,16   c12.6,1,14.5,2.8,15.5,16c1-13.2,2.9-15,15.5-16C1425.3,1214.7,1423.4,1212.9,1422.4,1199.7z" clip-rule="evenodd"/><path fill="#97c1e7" fill-rule="evenodd" d="M1337.7,1534.9H792c-8.5,0-15.4-6.9-15.4-15.4V690.4c0-8.5,6.9-15.4,15.4-15.4h545.8c8.5,0,15.4,6.9,15.4,15.4  v829.1C1353.1,1527.9,1346.2,1534.9,1337.7,1534.9L1337.7,1534.9z M792,1516.9h545.8c2.5,0,4.6-2.1,4.6-4.6V690.4  c0-2.5-2.1-4.6-4.6-4.6H792c-2.5,0-4.6,2.1-4.6,4.6v821.9C787.4,1514.8,789.4,1516.9,792,1516.9z" clip-rule="evenodd"/><path fill="#fff" fill-rule="evenodd" d="M1337.7,1470.9H792c-2.5,0-4.6-2.1-4.6-4.6v-776c0-2.5,2.1-4.6,4.6-4.6h545.8c2.5,0,4.6,2.1,4.6,4.6v776  C1342.3,1468.9,1340.3,1470.9,1337.7,1470.9z" clip-rule="evenodd"/><path fill="#a4ccec" fill-rule="evenodd" d="M1339.8,1514.4H794c-2.5,0-4.6-2.1-4.6-4.6l-2.1-819.5c0-2.5,2.1-4.6,4.6-4.6h545.8c2.5,0,4.6,2.1,4.6,4.6  l2.1,819.5C1344.4,1512.4,1342.3,1514.4,1339.8,1514.4z" clip-rule="evenodd"/><polygon fill="#eef8fd" fill-rule="evenodd" points="1339.7 1509.7 1337.6 690.6 792.1 690.6 794.2 1509.7" clip-rule="evenodd"/><rect width="545.5" height="41.3" x="792.1" y="690.6" fill="#bcdbf3" fill-rule="evenodd" clip-rule="evenodd"/><path fill="#fff" fill-rule="evenodd" d="M889.1,705.3c-4.2,0-7.6,3.4-7.6,7.6c0,4.2,3.4,7.6,7.6,7.6c4.2,0,7.6-3.4,7.6-7.6  C896.7,708.7,893.3,705.3,889.1,705.3L889.1,705.3z M818.6,705.3c-4.2,0-7.6,3.4-7.6,7.6c0,4.2,3.4,7.6,7.6,7.6s7.6-3.4,7.6-7.6  C826.2,708.7,822.8,705.3,818.6,705.3L818.6,705.3z M853.9,705.3c-4.2,0-7.6,3.4-7.6,7.6c0,4.2,3.4,7.6,7.6,7.6  c4.2,0,7.6-3.4,7.6-7.6C861.5,708.7,858.1,705.3,853.9,705.3z" clip-rule="evenodd"/><path fill="#97c1e7" fill-rule="evenodd" d="M772.5,749v125.3c0,1.6,1.3,2.9,2.9,2.9l0,0c1.6,0,2.9-1.3,2.9-2.9V749c0-1.6-1.3-2.9-2.9-2.9l0,0  C773.8,746.1,772.5,747.4,772.5,749z" clip-rule="evenodd"/><path fill="#97c1e7" fill-rule="evenodd" d="M772.5,884.5v125.3c0,1.6,1.3,2.9,2.9,2.9l0,0c1.6,0,2.9-1.3,2.9-2.9V884.5c0-1.6-1.3-2.9-2.9-2.9l0,0  C773.8,881.6,772.5,882.9,772.5,884.5z" clip-rule="evenodd"/><path fill="#97c1e7" fill-rule="evenodd" d="M1352.4,858.9v125.3c0,1.6,1.3,2.9,2.9,2.9l0,0c1.6,0,2.9-1.3,2.9-2.9V858.9c0-1.6-1.3-2.9-2.9-2.9l0,0  C1353.7,856,1352.4,857.3,1352.4,858.9z" clip-rule="evenodd"/><path fill="#88b9e3" fill-rule="evenodd" d="M975,862.5h324.1c2.1,0,3.9,0.9,3.9,1.9v0c0,1.1-1.8,1.9-3.9,1.9H975c-2.1,0-3.9-0.9-3.9-1.9v0  C971.1,863.3,972.9,862.5,975,862.5z" clip-rule="evenodd"/><path fill="#88b9e3" fill-rule="evenodd" d="M975,880.6h152.8c2.1,0,3.9,0.9,3.9,1.9v0c0,1.1-1.8,1.9-3.9,1.9H975c-2.1,0-3.9-0.9-3.9-1.9v0  C971.1,881.5,972.9,880.6,975,880.6z" clip-rule="evenodd"/><path fill="#88b9e3" fill-rule="evenodd" d="M975,898.8h95.4c2.1,0,3.9,0.9,3.9,1.9v0c0,1.1-1.8,1.9-3.9,1.9H975c-2.1,0-3.9-0.9-3.9-1.9v0  C971.1,899.7,972.9,898.8,975,898.8z" clip-rule="evenodd"/><path fill="#88b9e3" fill-rule="evenodd" d="M975,898.8h215.8c2.1,0,3.9,0.9,3.9,1.9l0,0c0,1.1-1.8,1.9-3.9,1.9H975c-2.1,0-3.9-0.9-3.9-1.9l0,0  C971.1,899.7,972.9,898.8,975,898.8z" clip-rule="evenodd"/><path fill="#88b9e3" fill-rule="evenodd" d="M1147.4,880.6h153.8c2.1,0,3.9,0.9,3.9,1.9v0c0,1-1.8,1.9-3.9,1.9h-153.8c-2.1,0-3.9-0.9-3.9-1.9v0  C1143.5,881.5,1145.2,880.6,1147.4,880.6z" clip-rule="evenodd"/><path fill="#fff" fill-rule="evenodd" d="M889.3,1045.4h352c20.6,0,37.4,16.8,37.4,37.4v2.8c0,20.6-16.8,37.4-37.4,37.4h-352   c-20.6,0-37.4-16.8-37.4-37.4v-2.8C851.9,1062.2,868.8,1045.4,889.3,1045.4z" clip-rule="evenodd"/><path fill="#97c1e7" fill-rule="evenodd" d="M889.3,1043.4h352c10.8,0,20.7,4.4,27.8,11.6l0,0l0,0c7.1,7.1,11.6,17,11.6,27.8v2.8   c0,10.8-4.4,20.7-11.6,27.8l0,0l0,0c-7.1,7.1-17,11.6-27.8,11.6h-352c-10.8,0-20.7-4.4-27.8-11.6l0,0l0,0   c-7.1-7.1-11.6-17-11.6-27.8v-2.8c0-10.8,4.4-20.7,11.6-27.8l0,0l0,0C868.6,1047.8,878.5,1043.4,889.3,1043.4L889.3,1043.4z    M1241.4,1047.4h-352c-9.7,0-18.6,4-25,10.4l0,0c-6.4,6.4-10.4,15.3-10.4,25v2.8c0,9.7,4,18.6,10.4,25l0,0   c6.4,6.4,15.3,10.4,25,10.4h352c9.7,0,18.6-4,25-10.4l0,0c6.4-6.4,10.4-15.3,10.4-25v-2.8c0-9.7-4-18.6-10.4-25l0,0   C1259.9,1051.4,1251.1,1047.4,1241.4,1047.4z" clip-rule="evenodd"/><path fill="#5e9bd3" fill-rule="evenodd" d="M906.6,1082.9l3.1-9.7c7.2,2.5,12.5,4.7,15.8,6.6c-0.9-8.2-1.3-13.9-1.4-17h9.9c-0.1,4.5-0.7,10.1-1.6,16.9   c4.7-2.4,10.1-4.6,16.1-6.5l3.1,9.7c-5.8,1.9-11.4,3.2-17,3.8c2.8,2.4,6.7,6.7,11.7,12.9l-8.2,5.8c-2.6-3.6-5.8-8.5-9.4-14.7   c-3.4,6.4-6.3,11.3-8.9,14.7l-8-5.8c5.3-6.5,9-10.8,11.3-12.9C917.4,1085.6,911.8,1084.3,906.6,1082.9L906.6,1082.9z M961.1,1082.9   l3.1-9.7c7.2,2.5,12.5,4.7,15.8,6.6c-0.9-8.2-1.3-13.9-1.4-17h9.9c-0.1,4.5-0.7,10.1-1.6,16.9c4.7-2.4,10.1-4.6,16.1-6.5l3.1,9.7   c-5.8,1.9-11.4,3.2-17,3.8c2.8,2.4,6.7,6.7,11.7,12.9l-8.2,5.8c-2.6-3.6-5.8-8.5-9.4-14.7c-3.4,6.4-6.3,11.3-8.9,14.7l-8-5.8   c5.2-6.5,9-10.8,11.3-12.9C971.9,1085.6,966.3,1084.3,961.1,1082.9L961.1,1082.9z M1015.6,1082.9l3.1-9.7   c7.2,2.5,12.5,4.7,15.8,6.6c-0.9-8.2-1.3-13.9-1.4-17h9.9c-0.1,4.5-0.7,10.1-1.6,16.9c4.7-2.4,10.1-4.6,16.1-6.5l3.1,9.7   c-5.8,1.9-11.4,3.2-17,3.8c2.8,2.4,6.7,6.7,11.7,12.9l-8.2,5.8c-2.6-3.6-5.8-8.5-9.4-14.7c-3.4,6.4-6.3,11.3-8.9,14.7l-8-5.8   c5.2-6.5,9-10.8,11.3-12.9C1026.4,1085.6,1020.8,1084.3,1015.6,1082.9L1015.6,1082.9z M1070,1082.9l3.1-9.7   c7.2,2.5,12.5,4.7,15.8,6.6c-0.9-8.2-1.3-13.9-1.4-17h9.9c-0.1,4.5-0.7,10.1-1.6,16.9c4.7-2.4,10.1-4.6,16.1-6.5l3.1,9.7   c-5.8,1.9-11.4,3.2-17,3.8c2.8,2.4,6.7,6.7,11.7,12.9l-8.2,5.8c-2.6-3.6-5.8-8.5-9.4-14.7c-3.4,6.4-6.3,11.3-8.9,14.7l-8-5.8   c5.3-6.5,9-10.8,11.3-12.9C1080.9,1085.6,1075.3,1084.3,1070,1082.9L1070,1082.9z M1124.5,1082.9l3.1-9.7   c7.2,2.5,12.5,4.7,15.8,6.6c-0.9-8.2-1.3-13.9-1.4-17h9.9c-0.1,4.5-0.7,10.1-1.6,16.9c4.7-2.4,10.1-4.6,16.1-6.5l3.1,9.7   c-5.8,1.9-11.4,3.2-17,3.8c2.8,2.4,6.7,6.7,11.7,12.9l-8.2,5.8c-2.6-3.6-5.8-8.5-9.4-14.7c-3.4,6.4-6.3,11.3-8.9,14.7l-8-5.8   c5.2-6.5,9-10.8,11.3-12.9C1135.4,1085.6,1129.8,1084.3,1124.5,1082.9L1124.5,1082.9z M1179,1082.9l3.1-9.7   c7.2,2.5,12.5,4.7,15.8,6.6c-0.9-8.2-1.3-13.9-1.4-17h9.9c-0.1,4.5-0.7,10.1-1.6,16.9c4.7-2.4,10.1-4.6,16.1-6.5l3.1,9.7   c-5.8,1.9-11.4,3.2-17,3.8c2.8,2.4,6.7,6.7,11.7,12.9l-8.2,5.8c-2.6-3.6-5.8-8.5-9.4-14.7c-3.4,6.4-6.3,11.3-8.9,14.7l-8-5.8   c5.3-6.5,9-10.8,11.3-12.9C1189.9,1085.6,1184.3,1084.3,1179,1082.9z" clip-rule="evenodd"/><path fill="#fff" fill-rule="evenodd" d="M992.5,915.5H1281c12.6,0,22.9,10.3,22.9,22.9v1.7c0,12.6-10.3,22.9-22.9,22.9H992.5   c-12.6,0-22.9-10.3-22.9-22.9v-1.7C969.7,925.8,979.9,915.5,992.5,915.5z" clip-rule="evenodd"/><path fill="#97c1e7" fill-rule="evenodd" d="M992.5,914.3H1281c6.6,0,12.7,2.7,17,7.1l0,0l0,0c4.4,4.4,7.1,10.4,7.1,17v1.7c0,6.6-2.7,12.7-7.1,17l0,0l0,0   c-4.4,4.4-10.4,7.1-17,7.1H992.5c-6.6,0-12.7-2.7-17-7.1l0,0l0,0c-4.4-4.4-7.1-10.4-7.1-17v-1.7c0-6.6,2.7-12.7,7.1-17l0,0l0,0   C979.9,917,985.9,914.3,992.5,914.3L992.5,914.3z M1281,916.7H992.5c-6,0-11.4,2.4-15.3,6.4l0,0c-3.9,3.9-6.4,9.3-6.4,15.3v1.7   c0,6,2.4,11.4,6.4,15.3l0,0c3.9,3.9,9.3,6.4,15.3,6.4H1281c6,0,11.4-2.4,15.3-6.4l0,0c3.9-3.9,6.4-9.3,6.4-15.3v-1.7   c0-6-2.4-11.4-6.4-15.3l0,0C1292.3,919.2,1286.9,916.7,1281,916.7z" clip-rule="evenodd"/><path fill="#88b9e3" fill-rule="evenodd" d="M975,790.5h324.1c2.1,0,3.9,0.9,3.9,1.9v0c0,1.1-1.8,1.9-3.9,1.9H975c-2.1,0-3.9-0.9-3.9-1.9v0  C971.1,791.4,972.9,790.5,975,790.5z" clip-rule="evenodd"/><path fill="#88b9e3" fill-rule="evenodd" d="M975,808.6h152.8c2.1,0,3.9,0.9,3.9,1.9v0c0,1.1-1.8,1.9-3.9,1.9H975c-2.1,0-3.9-0.9-3.9-1.9v0  C971.1,809.5,972.9,808.6,975,808.6z" clip-rule="evenodd"/><path fill="#88b9e3" fill-rule="evenodd" d="M975,826.8h95.4c2.1,0,3.9,0.9,3.9,1.9v0c0,1.1-1.8,1.9-3.9,1.9H975c-2.1,0-3.9-0.9-3.9-1.9v0  C971.1,827.7,972.9,826.8,975,826.8z" clip-rule="evenodd"/><path fill="#88b9e3" fill-rule="evenodd" d="M975,826.8h215.8c2.1,0,3.9,0.9,3.9,1.9l0,0c0,1.1-1.8,1.9-3.9,1.9H975c-2.1,0-3.9-0.9-3.9-1.9l0,0  C971.1,827.7,972.9,826.8,975,826.8z" clip-rule="evenodd"/><path fill="#88b9e3" fill-rule="evenodd" d="M1147.4,808.6h153.8c2.1,0,3.9,0.9,3.9,1.9v0c0,1-1.8,1.9-3.9,1.9h-153.8c-2.1,0-3.9-0.9-3.9-1.9v0  C1143.5,809.5,1145.2,808.6,1147.4,808.6z" clip-rule="evenodd"/><path fill="#5e9bd3" fill-rule="evenodd" d="M947.3,852.8c0.2,34.7-27.7,63-62.3,63.2c-34.7,0.2-63-27.7-63.2-62.3c-0.2-34.7,27.7-63,62.3-63.2   C918.7,790.2,947,818.1,947.3,852.8z" clip-rule="evenodd"/><path fill="#fff" fill-rule="evenodd" d="M902.1,823.5c0.1,9.9-7.9,17.9-17.8,18c-9.9,0.1-17.9-7.9-18-17.8c-0.1-9.9,7.9-17.9,17.8-18   C894,805.7,902.1,813.7,902.1,823.5z" clip-rule="evenodd"/><path fill="#fff" fill-rule="evenodd" d="M884.4,847.7L884.4,847.7c-18.3,0.1-33.1,15.1-32.9,33.4l0,0c0,4.8,4,8.7,8.8,8.6l48.9-0.4   c4.8,0,8.7-4,8.6-8.8l0,0C917.7,862.3,902.8,847.5,884.4,847.7z" clip-rule="evenodd"/><path fill="#eef8fd" fill-rule="evenodd" d="M1007.4,1412l-24.9-129.8c-3,2.9-6.4,5.3-10.2,7.3l23.5,122.6L1007.4,1412z" clip-rule="evenodd"/><path fill="#eef8fd" fill-rule="evenodd" d="M950.4,1201.5c25.8,0,46.8,20.9,46.8,46.8c0,12.8-5.1,24.4-13.4,32.8c14.1-8.1,23.5-23.2,23.5-40.6  c0-25.8-20.9-46.8-46.8-46.8c-13,0-24.8,5.3-33.3,13.9C934,1203.7,941.9,1201.5,950.4,1201.5z" clip-rule="evenodd"/><path fill="#4189c9" fill-rule="evenodd" d="M960.4,1192.8c13.2,0,25.1,5.3,33.7,14c8.6,8.6,14,20.5,14,33.7c0,9-2.5,17.3-6.8,24.5  c-4.3,7.2-10.5,13.2-17.9,17.3l24.9,129.7l0.2,1.1l-1.1,0l-91.3,0.6l-1.2,0l0.3-1.1l29.3-127c-9.2-3.3-17.2-9.3-22.8-17.1  c-5.6-7.8-9-17.4-9-27.8c0-13.2,5.3-25.1,14-33.7C935.3,1198.1,947.3,1192.8,960.4,1192.8L960.4,1192.8z M992.8,1208  c-8.3-8.3-19.8-13.4-32.4-13.4c-12.7,0-24.1,5.1-32.4,13.4c-8.3,8.3-13.4,19.8-13.4,32.4c0,10,3.2,19.2,8.6,26.8  c5.6,7.7,13.5,13.7,22.7,16.7l0.8,0.3l-0.2,0.8l-29.2,126.7l89-0.6l-24.8-129.2l-0.1-0.7l0.6-0.3c7.4-3.9,13.5-9.8,17.8-16.9  c4.1-6.9,6.5-14.9,6.5-23.6C1006.3,1227.8,1001.1,1216.3,992.8,1208z" clip-rule="evenodd"/><path fill="#97c1e7" fill-rule="evenodd" d="M997.1,1248.2c0-25.8-20.9-46.8-46.8-46.8c-7.3,0-14.1,1.6-20.2,4.6c-0.7,0.6-1.4,1.3-2.1,2  c-8.3,8.3-13.4,19.8-13.4,32.4c0,10,3.2,19.2,8.6,26.8c5.6,7.7,13.5,13.7,22.7,16.7l0.8,0.3l-0.2,0.8l-29.2,126.7l78.4-0.5  l-23.4-121.7c3.4-1.8,6.5-4,9.4-6.6l-0.2-1l-0.1-0.7l0.6-0.3c1.4-0.7,2.7-1.5,4-2.4C992.9,1270.4,997.1,1259.8,997.1,1248.2z" clip-rule="evenodd"/><path fill="#5e9bd3" fill-rule="evenodd" d="M918.1,1408.2c15.5-19.3,28.1-21.3,38.6-13.5c14.8,10.9,24.3,42.3,32.7,70.2c4.7,15.6,9.1,30.1,13.8,38.9  c9.5,17.8,29.6,30.3,53,38.8c33.7,12.2,74.2,16.2,100.3,16.2v0l6.9,0h0c34.3,0.2,170.7,0.8,175.2-4.5c2.8-3.3,3-5.4,1.5-6.7h0  c-6.3-5.5-29.4-5.1-39.5-5l-3.2,0c-6.7,0-14.2,0.1-22.7,0.3c-48.4,1-128.9,2.5-152.8-16.9c-10.7-8.7-16.9-21.7-17.7-34.5  c-0.5-7.5,0.8-15,4.2-21.6c3.3-6.7,8.7-12.4,16.2-16.4c12.1-6.4,29.8-8,53.9-1.2c6.8,1.9,27.3,7.3,43.6,10.5  c2.9,0.6,16.6,3.2,19,2.4l2.4,5.5c-3.4,1.1-12.1-0.3-22.4-2.3c-16.5-3.2-37.2-8.6-44-10.6c-22.5-6.4-38.8-5-49.7,0.8  c-6.4,3.4-11,8.3-13.8,13.9c-2.9,5.7-4,12.2-3.6,18.8c0.7,11.4,6.2,22.9,15.6,30.5c22.3,18.2,101.5,16.6,149.1,15.7  c9.2-0.2,17.2-0.3,22.8-0.3c1.4,0,2.3,0,3.1,0c10.7-0.1,35.4-0.5,43.3,6.4l0,0c4.1,3.5,4.6,8.3-0.9,14.6  c-6.3,7.2-144.7,6.6-179.5,6.4l-6.9,0v0c-26.6,0-67.8-4-102.2-16.5c-24.6-8.9-45.9-22.2-56.1-41.5c-4.9-9.2-9.4-24-14.2-39.9  c-8.2-27.1-17.4-57.5-30.7-67.3c-7.9-5.8-17.8-3.7-30.7,12.4l-0.1,0.1l-5.2,0L918.1,1408.2z" clip-rule="evenodd"/><path fill="#88b9e3" fill-rule="evenodd" d="M1018.8,1277.4h324.1c2.1,0,3.9,0.9,3.9,1.9v0c0,1.1-1.8,1.9-3.9,1.9h-324.1c-2.1,0-3.9-0.9-3.9-1.9v0  C1014.9,1278.3,1016.7,1277.4,1018.8,1277.4z" clip-rule="evenodd"/><path fill="#88b9e3" fill-rule="evenodd" d="M1018.8,1295.6h152.8c2.1,0,3.9,0.9,3.9,1.9v0c0,1.1-1.8,1.9-3.9,1.9h-152.8c-2.1,0-3.9-0.9-3.9-1.9v0  C1014.9,1296.5,1016.7,1295.6,1018.8,1295.6z" clip-rule="evenodd"/><path fill="#88b9e3" fill-rule="evenodd" d="M1018.8,1313.8h95.4c2.1,0,3.9,0.9,3.9,1.9v0c0,1.1-1.8,1.9-3.9,1.9h-95.4c-2.1,0-3.9-0.9-3.9-1.9v0  C1014.9,1314.7,1016.7,1313.8,1018.8,1313.8z" clip-rule="evenodd"/><path fill="#88b9e3" fill-rule="evenodd" d="M1018.8,1313.8h215.8c2.1,0,3.9,0.9,3.9,1.9l0,0c0,1.1-1.8,1.9-3.9,1.9h-215.8c-2.1,0-3.9-0.9-3.9-1.9l0,0  C1014.9,1314.7,1016.7,1313.8,1018.8,1313.8z" clip-rule="evenodd"/><path fill="#88b9e3" fill-rule="evenodd" d="M1191.2,1295.6H1345c2.1,0,3.9,0.9,3.9,1.9v0c0,1-1.8,1.9-3.9,1.9h-153.8c-2.1,0-3.9-0.9-3.9-1.9v0  C1187.3,1296.5,1189,1295.6,1191.2,1295.6z" clip-rule="evenodd"/><path fill="#263c84" fill-rule="evenodd" d="M1381.5,1061.4c-1.1,1.4,2.8,4.5,1.2,5c-0.4,11.8-28.6,27.2-33.7,22c-7.1-7.2,2.2-46.2-11.1-50.3   c-27-8.4-46.6,34.8-58.3,30c-23.8-9.8-44.6-60.7-9.2-88.7c17.2-21.1,0.1-89.8,38.5-102.5C1360.3,854.6,1403.3,1032.8,1381.5,1061.4   z" clip-rule="evenodd"/><path fill="#f48661" fill-rule="evenodd" d="M1284.4,1173.6c-3.8,3.4-8.1,4.8-13,3.7C1276,1180.8,1282.4,1178.1,1284.4,1173.6z" clip-rule="evenodd"/><path fill="#f9af79" fill-rule="evenodd" d="M1267,1507.8c0.7-5.2-0.9-14.2-5-28.2c8.1,0,14.9-3.6,23.1-3.4c2.3,13.2,5.7,34.8,5.7,34.8l0.4,17.1   l-57.5,0.4c0,0,0.5,0.2,17.4-10.5C1252.5,1517.3,1266.3,1512.9,1267,1507.8z" clip-rule="evenodd"/><path fill="#263c84" fill-rule="evenodd" d="M1291.6,1532.5h-59.3c-2.2-0.2-2.7-2-2-3.1c1.6-2.3,13.1-7.7,20.9-11.3c13.6,1.4,37.6-4.2,39.8-7.3   C1294.7,1521.2,1292.8,1532.3,1291.6,1532.5z" clip-rule="evenodd"/><path fill="#f9af79" fill-rule="evenodd" d="M1338.6,1507.8c0.7-5.2,2-11.7,0.2-29.1c8.1,0,15.8-1.5,24-1.4c0,13.6-0.3,33.7-0.3,33.7l0.4,17.1l-57.4,0.4   c0,0,0.5,0.2,17.4-10.5C1324.1,1517.3,1337.9,1512.9,1338.6,1507.8z" clip-rule="evenodd"/><path fill="#263c84" fill-rule="evenodd" d="M1363.1,1532.5h-59.3c-2.2-0.2-2.7-2-2-3.1c1.6-2.3,13.1-7.7,20.9-11.3c13.6,1.4,37.6-4.2,39.8-7.3   C1366.3,1521.2,1364.4,1532.3,1363.1,1532.5z" clip-rule="evenodd"/><path fill="#f9af79" fill-rule="evenodd" d="M1296.9,1011.7l-21.6-22.8c0,0-23.1,12.7-50.1,24.9c-7.4-12.9-19.5-55.4-20.2-57.4   c-0.6-2,14.2-27.5,10.9-28.2c-3.3-0.6-7.6,13.6-11.1,12.2c-3.5-1.4-12.5-34.5-14.6-32.7c-3.9,3.4,4.8,20.6,2.7,21.8   c-2.1,1.2-7.4-19.1-11.4-18.2c-4,0.9,6.8,18.5,5.6,20.2c-1.2,1.7-12.5-14.8-14.8-11c-1.3,2.1,10.4,14.4,8,15.8   c-2.4,1.4-12.9-6.4-14.2-3.9c-1.3,2.5,9.8,5.1,12.9,11.5c3.1,6.3,8.7,8.8,10.5,20.9c1.8,12,6.9,76.3,20,81.4   C1220.9,1050.7,1296.9,1011.7,1296.9,1011.7z" clip-rule="evenodd"/><path fill="#3155a5" fill-rule="evenodd" d="M1282.9,1134.7l17.5,9.8l35.6,54.5l-63.7,149.9c0,0,7.2,22.6,9.5,33.8c2.4,11.8,8.4,113,8.4,113l-27.2,0.5   c0,0-25.8-107.7-30.2-142.7c-5.3-42.5,27-143.5,27-143.5c6-20.6,19-63.1,19-63.1S1282.1,1136.5,1282.9,1134.7z" clip-rule="evenodd"/><path fill="#4361ac" fill-rule="evenodd" d="M1343.9,1114.2c0,0-1.8,12.8,5.4,27.4c4.4,8.9,12.1,15.9,17.5,26.8c10.3,20.7,16,50,12.1,68.8   c0,0-21.4,81.7-20.5,111.5c0.3,11,4.1,30.8,6.5,44.2c2.1,11.8,2.9,101.2,2.9,101.2l-30.4-0.9l-23.2-144.2l-9.8-128.2l-21.4-86.3   L1343.9,1114.2z" clip-rule="evenodd"/><path fill="#88b9e3" fill-rule="evenodd" d="M1273.2,1026c-9.7,4.5-27.2,11.2-27.2,11.2l-10-31.5c56.3-32,51.9-26.9,94.2-26.2c33.8,0.5,47.9-6,77,72.5   c0,0-22.1,9.9-30.1,13.1c-3.4-9.7-9.6-29.1-13.2-18c-5.4,16.7-9.4,33.5-12.1,50.8c-1.7,10.3-5.4,23.4-3.4,33.9c0,0-23,4.7-40.6,5.5   h-0.2c-8.5-0.2-17.2-1-24.9-2.6c0,0-3.4-72.8-5.3-75.9c-2-3.4-10.6-14.2-3.3-30.5C1275.6,1025.5,1275.2,1025.1,1273.2,1026z" clip-rule="evenodd"/><path fill="#f9af79" fill-rule="evenodd" d="M1326.1,948.4c0,0,2.6,20.8,4.1,28c1.6,7.6,4,31.4-11.7,35.2c-15.7,3.9-10.8-25.9-11.1-33.6   c-0.2-7.7-4.7-34.5-4.7-34.5L1326.1,948.4z" clip-rule="evenodd"/><path fill="#f27458" fill-rule="evenodd" d="M1328.3,964.5c-0.2,0.1-0.3,0.2-0.5,0.3c-8.7,5-16.2,4.2-21.8,0.3c-1-6.7-1.9-12.1-1.9-12.1l23.4,4.8   C1327.5,957.8,1327.8,960.6,1328.3,964.5z" clip-rule="evenodd"/><path fill="#f9af79" fill-rule="evenodd" d="M1318.8,904.1c0,0,9.4,1.5,15.7,10c6.3,8.5,11.8,34.2-6.3,47.5c-18.1,13.3-33.9-3-35.1-19.7   C1291.8,925.2,1293.9,902.7,1318.8,904.1z" clip-rule="evenodd"/><path fill="#263c84" fill-rule="evenodd" d="M1342.7,941.8c11.5-13.5,12.1-6.5,13.9-25.6c0.4-52.7-61.5-53.2-58.5-24.9c-5.2,6.1-0.9,8.9,3.6,12.8   C1339.2,936.4,1339.9,897.5,1342.7,941.8z" clip-rule="evenodd"/><path fill="#263c84" fill-rule="evenodd" d="M1299.5,890c3.7,0.3,5.8-0.8,6.3-3.3c-2.6-4.7-6.3-7.6-11.1-8.6C1296.7,879.8,1298.3,883.8,1299.5,890z" clip-rule="evenodd"/><path fill="#263c84" fill-rule="evenodd" d="M1298.6,890.2c-2.4,0.5-3.3-0.4-2.7-2.7c3.4-4.3,6.7-7.1,10.1-8.2C1304.1,881,1301.6,884.6,1298.6,890.2z" clip-rule="evenodd"/><path fill="#263c84" fill-rule="evenodd" d="M1291.6,939c-1.8-9.1,0-18.2,1.8-27.3c2.7-13.5,12.3-7.5,8-0.9C1293,923.7,1295.3,919.4,1291.6,939z" clip-rule="evenodd"/><path fill="#263c84" fill-rule="evenodd" d="M1305.3,898.8c3.4-2.7,4.3-5.3,2.6-7.8c-6-1.8-11.4-1.3-16.2,1.7C1294.8,892.4,1299.4,894.5,1305.3,898.8z" clip-rule="evenodd"/><path fill="#263c84" fill-rule="evenodd" d="M1305.5,903.3c-3.8,0.4-5.7,2.1-5.5,5.1c3.8,4.8,8.2,7.3,13.2,7.4C1310.7,914.4,1308.1,910.2,1305.5,903.3z" clip-rule="evenodd"/><path fill="#f9af79" fill-rule="evenodd" d="M1290.5,923.8c-0.2,3.6,1.4,6.6,3.5,6.7c2.1,0.1,3.9-2.7,4.1-6.4c0.2-3.6-1.4-6.6-3.4-6.7   C1292.5,917.4,1290.7,920.2,1290.5,923.8z" clip-rule="evenodd"/><path fill="#f9af79" fill-rule="evenodd" d="M1337.9,929.9c-0.2,3.7,1.6,6.8,4.1,7c2.5,0.2,4.7-2.7,4.9-6.4c0.2-3.7-1.6-6.8-4.1-7   C1340.3,923.4,1338.1,926.2,1337.9,929.9z" clip-rule="evenodd"/><path fill="#5e9bd3" fill-rule="evenodd" d="M1305.2,978.8c0,18,1.1,26.4,5,31.1c0.8,1,1.7,1.8,2.7,2.4c-0.1,0.3-0.1,0.6-0.1,0.9c0,1.1,0.5,2.1,1.4,2.9   c-0.2,0.4-0.4,0.8-0.4,1.3c0,1,0.6,1.9,1.6,2.4c-0.2,0.2-0.3,0.5-0.3,0.8c0,0.8,0.7,1.5,1.7,1.5c0.9,0,1.7-0.7,1.7-1.5   c0-0.3-0.1-0.6-0.3-0.8c0.9-0.5,1.6-1.3,1.6-2.4c0-0.3,0-0.5-0.1-0.8c1.2-0.7,2.1-2,2.1-3.4c0-0.4-0.1-0.9-0.2-1.2   c0.9-0.5,1.8-1.2,2.6-2.1c5.1-5.1,9.8-15.5,9.2-30.4l-2.5,0c1.2,14.1-3.5,24.2-8.2,28.9c-0.8,0.8-1.6,1.4-2.4,1.9   c-0.8-0.6-1.8-1-3-1c-1.3,0-2.4,0.5-3.2,1.3c-0.8-0.4-1.5-1.1-2.1-1.9c-3.5-4.4-4.4-13.6-4.4-29.8L1305.2,978.8z" clip-rule="evenodd"/><path fill="#5e9bd3" fill-rule="evenodd" d="M1238.9,1004.1c2.8,8.8,5,15.8,6.7,21.1c1.7,5.4,2.9,9,3.5,10.8l1.5-0.6c-0.6-1.8-1.8-5.4-3.5-10.7   c-1.7-5.3-4-12.6-6.8-21.5L1238.9,1004.1z" clip-rule="evenodd"/><path fill="#5e9bd3" fill-rule="evenodd" d="M1405.9,1048.2c-7.8,2.8-14.3,5.2-19.4,7.2c-5.1,2-8.7,3.5-11,4.7l0.5,1.5c2.2-1.1,6-2.7,11-4.7   c5-1.9,11.5-4.3,19.4-7.2L1405.9,1048.2z" clip-rule="evenodd"/><path fill="#5e9bd3" fill-rule="evenodd" d="M1404.9,1045.7c-7.8,2.8-14.3,5.2-19.4,7.2c-5.1,2-8.6,3.5-10.9,4.6l0.5,1.5c2.2-1.1,5.9-2.7,11-4.7   c5-1.9,11.5-4.3,19.4-7.2L1404.9,1045.7z" clip-rule="evenodd"/><path fill="#5e9bd3" fill-rule="evenodd" d="M1241.5,1002.6c2.8,8.8,4.9,15.7,6.7,21c1.7,5.4,3.1,9.5,3.7,11.3l1.5-0.6c-0.6-1.8-2-5.8-3.7-11.2   c-1.7-5.3-4-12.5-6.7-21.3L1241.5,1002.6z" clip-rule="evenodd"/><path fill="#f5916f" fill-rule="evenodd" d="M1283.3,1095.3l-76.9-155.6c1.7-0.7,3.4-1.5,5-2.3c1.7-0.8,3.3-1.7,4.9-2.6l76.9,155.6     c1.4,2.8,0.2,6.1-2.5,7.5l0,0C1288,1099.3,1284.7,1098.1,1283.3,1095.3z" clip-rule="evenodd"/><path fill="#f5916f" fill-rule="evenodd" d="M1082,895c23,46.5,78.1,66.5,125.2,46.4c1.7-0.7,3.4-1.5,5-2.3c1.7-0.8,3.3-1.7,4.9-2.6     c44.6-25.2,62.2-81.2,39.2-127.6c-23.8-48.1-82.1-67.9-130.2-44.1C1078,788.6,1058.3,846.9,1082,895L1082,895z M1208.9,932.2     c-44.3,21.9-98,3.7-119.9-40.6c-21.9-44.3-3.7-98,40.6-119.9c44.3-21.9,98-3.7,119.9,40.6     C1271.4,856.6,1253.2,910.3,1208.9,932.2z" clip-rule="evenodd"/><path fill="#e4e5e5" fill-rule="evenodd" stroke="#f6d7bf" stroke-miterlimit="2.613" stroke-width=".5" d="M1088.9,891.6c21.9,44.3,75.6,62.5,119.9,40.6c44.3-21.9,62.5-75.6,40.6-119.9     c-21.9-44.3-75.6-62.5-119.9-40.6C1085.2,793.6,1067,847.3,1088.9,891.6z" clip-rule="evenodd" opacity=".46"/><path fill="#fff" fill-rule="evenodd" d="M1136.5,888.5l-24.1,32.6c0.9,0.8,1.9,1.5,2.9,2.3L1137,894l75.2-101.6l9.5-12.9c-1-0.7-2-1.4-3-2.1     l-3.6,4.8L1136.5,888.5L1136.5,888.5z M1103.8,913.1c-1.7-1.8-3.3-3.6-4.8-5.6l39.7-53.6l63.2-85.4c2.3,0.9,4.5,1.9,6.7,3     l-71.6,96.8L1103.8,913.1L1103.8,913.1z M1137,868.3c0.1-1.5,0.3-3,0.4-4.5L1137,868.3z" clip-rule="evenodd" opacity=".35"/><path fill="#f37637" fill-rule="evenodd" d="M1230.6,964l-8.4,4.2c-1.9,0.9-2.5,3.5-1.4,5.6l129.6,267.6c1.1,2.2,3.5,3.2,5.3,2.3l8.4-4.2    c1.9-0.9,2.5-3.5,1.4-5.6l-129.6-267.6C1234.8,964.1,1232.4,963.1,1230.6,964z" clip-rule="evenodd"/><path fill="#f9af79" fill-rule="evenodd" d="M1315.5,1152.4c-0.4,0.1-2.2-0.2-3.7-0.2c-2,0-3.8,0.3-3.8,0.3s-0.8-0.7-2.3-1.4c-0.6-0.3-1.7-0.4-2.4-0.7   c-0.7-0.3-1.3-1-2-1.3c-1.8-0.8-3.4-1-4,0c-0.5,0.8,9.5,6.9,9.5,6.9c9.3,0.1,18.9,4.8,40.3-9.2c12.2-5.3,71.6-34.7,72.8-41.1   c0.7-3.6-8.4-31.4-15.9-52.5c-5.7,2.6-18,8-24.8,10.9c6.3,13.3,13.7,30.9,12.9,33c-0.2,0.6-0.9,1.6-41.1,27.9c-1,0.7-2.1,1.3-3.1,2   c-2.8,1.8-5.9,3.8-9.1,5.9l-11.4-1.2c0,0-18.1,1.2-18.7,3.3c-0.2,0.9,1.3,1.4,3.1,1.7h0.1c0.3,0,0.5,0.1,0.8,0.1h0   c2,0.2,4.1,0.3,4.6,0.5c0.6,0.2,1.7,0.7,2.7,1.3c-11.3,4.6-10.4,3-14.2,2.7c-0.9-0.1-1.9,0.2-2.8,0.1c-1.5-0.1-2.7-1-3.9-1.1   c-1.7-0.1-3.1,0.7-3.4,1c-0.4,0.4,0.3,1,1.8,1.6c8.7,3.8,16,2.3,18.3,2.9c1.6,0.4-1.3,1-5.7,0.5c-1.1-0.1-2.6,0.3-4-0.1   c-1-0.2-1.9-0.8-2.8-1.1c-0.9-0.2-1.8-0.2-2.5-0.3c-1-0.2-2.3-0.9-3.1-1c-2.9-0.3-4.3,0.2-4.6,0.4c-0.7,0.6,12.5,5.7,12.5,5.7   s9.1,1.3,11.1,1.3C1316.7,1151.5,1317.9,1152.1,1315.5,1152.4z" clip-rule="evenodd"/><g><path fill="#eef8fd" fill-rule="evenodd" d="M1607.2,1272.5v185.2c0,8.2-6.7,14.9-14.9,14.9h-326c-8.2,0-14.9-6.7-14.9-14.9v-185.2    c0-8.2,6.7-14.9,14.9-14.9h326c3.5,0,6.9,1.2,9.6,3.5C1605.3,1263.9,1607.2,1268.1,1607.2,1272.5z" clip-rule="evenodd"/><polygon fill="#97c1e7" fill-rule="evenodd" points="1482.8 1528.5 1375.8 1528.5 1381.4 1503.9 1390.9 1461.8 1392 1456.9 1466.6 1456.9 1467.7 1461.8 1477.2 1503.9" clip-rule="evenodd"/><polygon fill="#88b9e3" fill-rule="evenodd" points="1477.2 1503.9 1381.4 1503.9 1385.9 1484 1472.7 1484" clip-rule="evenodd"/><path fill="#88b9e3" fill-rule="evenodd" d="M1251.4,1272.5c0-8.2,6.7-14.9,14.9-14.9h326c3.5,0,6.9,1.2,9.6,3.5c3.4,2.8,5.3,7,5.3,11.4l0,185.2    c0,5.2-2.6,9.7-6.6,12.4c-2.4,1.6-5.2,2.5-8.3,2.5h-326c-0.7,0-1.4-0.1-2.1-0.1c-7.2-1-12.8-7.2-12.8-14.8V1272.5L1251.4,1272.5z     M1609.2,1252.4c-3.8-3.2-8.4-5.2-13.2-5.9c-1.2-0.2-2.5-0.3-3.7-0.3h-326c-14.5,0-26.3,11.8-26.3,26.3l0,185.2    c0,7.6,3.3,14.5,8.4,19.3c3.1,2.9,7,5.1,11.3,6.2c2.1,0.5,4.3,0.8,6.5,0.8h326c0.3,0,0.6,0,0.8,0c0.8,0,1.6-0.1,2.4-0.2    c1.3-0.2,2.6-0.4,3.9-0.8c0.8-0.2,1.5-0.5,2.2-0.7c1-0.4,1.9-0.8,2.8-1.3c0.5-0.3,1-0.5,1.5-0.8v0c1.4-0.9,2.8-1.8,4-3    c3.4-3.1,6.1-7.1,7.5-11.6c0.3-0.9,0.5-1.8,0.7-2.7c0.2-0.8,0.3-1.5,0.4-2.3c0.1-1,0.2-2,0.2-3v-185.2    C1618.6,1264.7,1615.2,1257.4,1609.2,1252.4z" clip-rule="evenodd"/><path fill="#88b9e3" fill-rule="evenodd" d="M1612.9,1447v10.7c0,11.4-9.2,20.6-20.6,20.6h-326c-11.4,0-20.6-9.2-20.6-20.6l0-10.7H1612.9z" clip-rule="evenodd"/><path fill="#88b9e3" fill-rule="evenodd" d="M1500,1533.8h-141.4c-1.6,0-2.9-1.3-2.9-2.9c0-1.6,1.3-2.9,2.9-2.9H1500c1.6,0,2.9,1.3,2.9,2.9    c0,0.5-0.1,1-0.3,1.4C1502.1,1533.1,1501.1,1533.8,1500,1533.8z" clip-rule="evenodd"/><path fill="#fff" fill-rule="evenodd" d="M1442.2,1465.5c0,7.2-5.8,13-13,13c-7.2,0-13-5.8-13-13c0-7.2,5.8-13,13-13    C1436.5,1452.6,1442.2,1458.4,1442.2,1465.5z" clip-rule="evenodd"/><path fill="#d1e4f5" fill-rule="evenodd" d="M1499.5,1304.7c-3.3,48.6-15,102.5-68.6,116.4l-1.3,0.3l-1.3-0.3c-53.6-13.9-65.3-67.8-68.6-116.4l-0.3-4.7    l4.6-0.9c22.3-4.2,42.8-12.6,63.4-22l2.2-1l2.2,1c20.6,9.4,41.1,17.8,63.4,22l4.6,0.9L1499.5,1304.7z" clip-rule="evenodd"/><path fill="#88b9e3" fill-rule="evenodd" d="M1494.3,1304.1c-22.1-4.1-41.8-11.9-64.6-22.4c-22.9,10.5-42.5,18.3-64.6,22.4    c4.5,66.4,24.2,101.1,64.6,111.6C1470.1,1405.3,1489.8,1370.5,1494.3,1304.1z" clip-rule="evenodd"/><path fill="#c1ddf3" fill-rule="evenodd" d="M1484,1311.8c-18.9-4.4-36.6-11.5-54.4-19.5c-17.7,8-35.5,15.1-54.4,19.5c2.7,29.5,9.9,66,34.1,84.1    c6.1,4.6,13,7.7,20.2,9.9c7.3-2.1,14.1-5.3,20.2-9.9C1474.1,1377.8,1481.3,1341.3,1484,1311.8z" clip-rule="evenodd"/><path fill="#a4ccec" fill-rule="evenodd" d="M1484,1311.8c-18.9-4.4-36.6-11.5-54.4-19.5v113.5c7.3-2.1,14.1-5.3,20.2-9.9    C1474.1,1377.8,1481.3,1341.3,1484,1311.8z" clip-rule="evenodd"/></g><g><path fill="#a4ccec" fill-rule="evenodd" d="M595.2,1108.2c-16,15.1-23.3,33.2-21.8,54.3c37.9,25.8,57.4,49.9,58.7,72.5c-44.5-39.6-77.9-39.5-93-15.2   c11.1,13.4,18.9,59.8,16.2,81.2c-4.7,37.7,5.5,71.5,34,84.2c6.5,14.6,13.4,22.3,20.6,23.1c-6.9,42.2-12.7,85.1-17.4,128.6   c4.8,2.5,11.7,2.2,15.4-0.3c1.5-17,2.6-28.9,3.7-36.9c2.9-31.6,6.2-62.1,9.9-91.6c1.8-0.2,3.5-0.5,5.2-0.9c33.3-7,20.6-27.8,51-34   c18.8-3.8,35.8-19.7,40.1-33.8c-19.5-6.2-44.1-12.7-69-8c13-18.2,39.3-16.8,75-12.4c13.5-26.2,32.6-23.8,25-64.8   c-10.6-57.2,26.8-73,14.2-141.9c-18.4-7-42.7-6.1-73,2.4c12.8-19,37.2-26.9,73.2-23.6c-7.5-20.2-7.4-46.2-3.8-57.3   c-13.3-9.6-26.8-9.6-40.5,0.2c6.1-10.5,14-16.4,23.7-17.9c-0.5-9-4.3-19-11.6-30c-12,0.3-25.2,2.9-39.7,7.9   c6.6,4.4,8.8,12.2,6.4,23.6c-8-9.4-19.7-12.5-35.3-9.4c-3.3,40.9-39.5,57.4-40.1,75c21.3,18.8,33.8,39.3,37.5,61.4   C637.9,1125.8,616.5,1113.7,595.2,1108.2z" clip-rule="evenodd"/><path fill="#5e9bd3" fill-rule="evenodd" d="M592.6,1536.9c4.7-43.5,10.5-86.4,17.4-128.6c24.6-159.5,67.5-324.3,104.9-393.2   c-49.9,117.6-84.3,279.1-103.3,484.6c-1.1,8-2.2,20-3.7,36.9C604.3,1539.1,597.4,1539.4,592.6,1536.9z" clip-rule="evenodd"/><path fill="#c1ddf3" fill-rule="evenodd" d="M655.9,1005.3c15.5,19.7,20.6,41.4,15.3,64.9c-47,22.6-73.2,46.5-78.5,71.6c56.8-37,94.4-31.2,107.2-1.3   c-14.8,13.2-31.4,64.1-32,88.6c-1.1,43.3-18.4,79.6-52.6,89.1c-9.8,15.4-18.9,22.9-27.1,22.6c0.6,48.7-0.2,98-2.3,147.8   c-5.8,2-13.6,0.5-17.3-2.9c1.2-19.3,2-33,2.2-42.2c2.1-36,3.6-71,4.5-104.8c-1.9-0.5-3.9-1.2-5.7-1.9c-36.3-13.5-18.4-34.8-51.7-47   c-20.5-7.5-37-28.3-39.3-44.9c23-3.6,51.8-6.8,79.1,2.7c-11.5-22.7-41.3-25.6-82.3-26.8c-10.7-31.8-32.7-32.4-17.2-77.3   c21.6-62.6-17.8-86.8,8.1-162.1c21.9-4.7,49.2,0.4,81.8,15.2c-11.2-23.6-37.4-36.6-78.4-39c11.8-21.4,16.2-50.8,14.1-63.9   c16.7-8.6,31.8-6.2,45.5,7.1c-5.1-12.8-13-20.9-23.6-24.2c2.1-10,8.1-20.6,18.1-31.8c13.4,2.3,27.9,7.6,43.4,15.7   c-8.2,3.8-12,12.3-11.2,25.4c10.6-9.2,24.4-10.7,41.4-4.6c-3.3,46.6,34.7,71.4,32.4,91.3c-27.2,17.5-44.8,38.5-52.6,62.8   C604.8,1017.9,631,1007.9,655.9,1005.3z" clip-rule="evenodd"/><path fill="#88b9e3" fill-rule="evenodd" d="M585.9,1488.4c2.1-49.8,2.8-99,2.3-147.8c-0.6-183.8-20.9-376.6-51.3-460.6c36.2,140.9,47.5,328.6,33.9,563.2   c-0.1,9.2-0.9,22.9-2.2,42.2C572.4,1488.9,580.1,1490.4,585.9,1488.4z" clip-rule="evenodd"/><path fill="#c1ddf3" fill-rule="evenodd" d="M543.5,1436.4H664c5.4,0,9.8,4.4,9.8,9.8v27.7c0,5.4-4.4,9.8-9.8,9.8H543.5c-5.4,0-9.8-4.4-9.8-9.8v-27.7   C533.7,1440.8,538.1,1436.4,543.5,1436.4z" clip-rule="evenodd"/><polygon fill="#88b9e3" fill-rule="evenodd" points="544.6 1483.7 662.9 1483.7 651.3 1544.9 556.2 1544.9" clip-rule="evenodd"/><polygon fill="#a4ccec" fill-rule="evenodd" points="662.9 1483.7 544.6 1483.7 546.7 1494.8 660.8 1494.8" clip-rule="evenodd"/></g><g><path fill="#fff" fill-rule="evenodd" d="M373.3,1087.4c0-14.7,11.9-26.5,26.5-26.5c14.7,0,26.5,11.9,26.5,26.5c0,14.7-11.9,26.5-26.5,26.5   C385.2,1113.9,373.3,1102,373.3,1087.4L373.3,1087.4z M399.9,1118.5c17.2,0,31.1-13.9,31.1-31.1c0-17.2-13.9-31.1-31.1-31.1   c-17.2,0-31.1,13.9-31.1,31.1C368.8,1104.5,382.7,1118.5,399.9,1118.5z" clip-rule="evenodd"/><path fill="#fff" fill-rule="evenodd" d="M399.9,1073c-7.9,0-14.3,6.4-14.3,14.3c0,7.9,6.4,14.3,14.3,14.3s14.3-6.4,14.3-14.3   C414.2,1079.4,407.8,1073,399.9,1073z" clip-rule="evenodd"/></g><g><path fill="#fff" fill-rule="evenodd" d="M648,879.8c0-16.7,13.5-30.2,30.2-30.2s30.2,13.5,30.2,30.2c0,16.7-13.5,30.2-30.2,30.2S648,896.5,648,879.8   L648,879.8z M678.2,915.2c19.5,0,35.4-15.8,35.4-35.4c0-19.5-15.8-35.4-35.4-35.4c-19.5,0-35.4,15.8-35.4,35.4   C642.8,899.4,658.6,915.2,678.2,915.2z" clip-rule="evenodd"/><path fill="#fff" fill-rule="evenodd" d="M678.2,863.5c-9,0-16.3,7.3-16.3,16.3c0,9,7.3,16.3,16.3,16.3c9,0,16.3-7.3,16.3-16.3   C694.5,870.8,687.2,863.5,678.2,863.5z" clip-rule="evenodd"/></g><g><path fill="#fff" fill-rule="evenodd" d="M1424.4,837.5c0-16.7,13.5-30.2,30.2-30.2c16.7,0,30.2,13.5,30.2,30.2c0,16.7-13.5,30.2-30.2,30.2   C1437.9,867.7,1424.4,854.1,1424.4,837.5L1424.4,837.5z M1454.6,872.9c19.5,0,35.4-15.8,35.4-35.4c0-19.5-15.8-35.4-35.4-35.4   c-19.5,0-35.4,15.8-35.4,35.4C1419.2,857,1435,872.9,1454.6,872.9z" clip-rule="evenodd"/><path fill="#fff" fill-rule="evenodd" d="M1454.6,821.2c-9,0-16.3,7.3-16.3,16.3c0,9,7.3,16.3,16.3,16.3c9,0,16.3-7.3,16.3-16.3   C1470.9,828.5,1463.6,821.2,1454.6,821.2z" clip-rule="evenodd"/></g><g><path fill="#fff" fill-rule="evenodd" d="M1593.8,1006.9c0-16.7,13.5-30.2,30.2-30.2c16.7,0,30.2,13.5,30.2,30.2c0,16.7-13.5,30.2-30.2,30.2   C1607.3,1037.1,1593.8,1023.6,1593.8,1006.9L1593.8,1006.9z M1624,1042.3c19.5,0,35.4-15.8,35.4-35.4c0-19.5-15.8-35.4-35.4-35.4   c-19.5,0-35.4,15.8-35.4,35.4C1588.6,1026.5,1604.4,1042.3,1624,1042.3z" clip-rule="evenodd"/><path fill="#fff" fill-rule="evenodd" d="M1624,990.6c-9,0-16.3,7.3-16.3,16.3s7.3,16.3,16.3,16.3c9,0,16.3-7.3,16.3-16.3S1633,990.6,1624,990.6z" clip-rule="evenodd"/></g><g><path fill="#fff" fill-rule="evenodd" d="M1466,1026c0-14.2,11.5-25.8,25.8-25.8c14.2,0,25.8,11.5,25.8,25.8c0,14.2-11.5,25.8-25.8,25.8   C1477.5,1051.8,1466,1040.3,1466,1026L1466,1026z M1491.7,1056.2c16.7,0,30.2-13.5,30.2-30.2c0-16.7-13.5-30.2-30.2-30.2   c-16.7,0-30.2,13.5-30.2,30.2C1461.5,1042.7,1475.1,1056.2,1491.7,1056.2z" clip-rule="evenodd"/><path fill="#fff" fill-rule="evenodd" d="M1491.7,1012.1c-7.7,0-13.9,6.2-13.9,13.9c0,7.7,6.2,13.9,13.9,13.9c7.7,0,13.9-6.2,13.9-13.9   C1505.7,1018.3,1499.4,1012.1,1491.7,1012.1z" clip-rule="evenodd"/></g></svg>