<svg xmlns="http://www.w3.org/2000/svg" viewBox="0 0 3000 2000"><path fill="#fcfcfc" d="M2620.518,517.697c0-42.851-34.737-77.588-77.588-77.588-39.79,0-72.579,29.954-77.06,68.542-5.921-3.662-12.898-5.78-20.371-5.78-13.704,0-25.739,7.112-32.64,17.839-20.566-52.56-71.715-89.787-131.562-89.787-54.383,0-101.578,30.744-125.176,75.794-13.807-12.661-32.21-20.39-52.42-20.39-37.025,0-67.988,25.936-75.724,60.63-8.56-6.149-19.049-9.782-30.394-9.782-28.81,0-52.164,23.355-52.164,52.165s23.355,52.164,52.164,52.164c20.151,0,37.621-11.434,46.31-28.161,14.231,17.201,35.739,28.161,59.808,28.161.106,0,.211-.003.317-.004,2.845,26.122,24.968,46.454,51.847,46.454,11.771,0,22.629-3.902,31.358-10.479,24.977,22.324,57.937,35.903,94.073,35.903,28.755,0,55.498-8.602,77.81-23.362,14.087,14.412,33.739,23.362,55.485,23.362,41.034,0,74.624-31.856,77.398-72.186,1.864.202,3.756.312,5.674.312,26.895,0,49.029-20.356,51.853-46.5,39.768-3.343,71.002-36.675,71.002-77.307Z"/><path fill="#f7f7f7" d="M2576.926,447.938c9.299,12.484,14.804,27.96,14.804,44.723,0,39.246-30.169,71.441-68.58,74.67-2.728,25.253-24.107,44.914-50.084,44.914-1.853,0-3.68-.107-5.48-.302-2.68,38.954-35.123,69.724-74.758,69.724-21.004,0-39.985-8.644-53.592-22.565-21.551,14.256-47.382,22.565-75.156,22.565-34.903,0-66.739-13.115-90.864-34.678-8.431,6.352-18.919,10.122-30.288,10.122-25.962,0-47.33-19.639-50.079-44.87-.102,0-.204.004-.307.004-23.248,0-44.022-10.586-57.768-27.2-8.392,16.157-25.266,27.2-44.73,27.2-19.264,0-35.996-10.815-44.474-26.7-.09,1.255-.152,2.517-.152,3.795,0,28.81,23.355,52.164,52.164,52.164,20.151,0,37.621-11.434,46.31-28.161,14.231,17.201,35.739,28.161,59.808,28.161.106,0,.211-.003.317-.004,2.845,26.122,24.968,46.454,51.847,46.454,11.771,0,22.629-3.902,31.358-10.479,24.977,22.324,57.937,35.903,94.073,35.903,28.755,0,55.498-8.602,77.81-23.362,14.087,14.412,33.739,23.362,55.485,23.362,41.034,0,74.624-31.856,77.398-72.186,1.864.202,3.756.312,5.674.312,26.895,0,49.029-20.356,51.853-46.5,39.768-3.343,71.003-36.675,71.003-77.307,0-30.656-17.782-57.157-43.592-69.759Z"/><path fill="#fcfcfc" d="M1087.006,1101.182c.023-.975.037-1.951.037-2.931,0-68.235-55.315-123.55-123.55-123.55-40.483,0-76.418,19.471-98.952,49.559-27.374-30.423-67.049-49.559-111.197-49.559-30.934,0-59.674,9.393-83.524,25.482-8.503-3.063-17.668-4.74-27.226-4.74-32.516,0-60.5,19.328-73.144,47.112-9.922-4.384-20.888-6.838-32.432-6.838-34.36,0-63.668,21.577-75.151,51.914-14.703-16.281-35.975-26.517-59.64-26.517-44.372,0-80.343,35.97-80.343,80.342s35.971,80.343,80.343,80.343c34.36,0,63.668-21.577,75.151-51.914,14.703,16.281,35.975,26.517,59.64,26.517.478,0,.95-.028,1.426-.036,7.043,37.182,39.686,65.307,78.917,65.307,18.175,0,34.935-6.042,48.396-16.217,24.618,17.82,54.873,28.333,87.588,28.333,27.568,0,53.388-7.468,75.563-20.478,10.755,5.343,22.868,8.363,35.691,8.363,9.369,0,18.357-1.62,26.717-4.568,13.07,26.669,40.475,45.038,72.178,45.038,34.688,0,64.241-21.984,75.488-52.78,12.377,7.788,27.016,12.31,42.719,12.31,44.372,0,80.343-35.97,80.343-80.343,0-42.588-33.141-77.415-75.038-80.149Z"/><path fill="#f7f7f7" d="M1087.652,1213.527c-15.703,0-30.343-4.522-42.719-12.31-11.247,30.795-40.8,52.78-75.488,52.78-31.703,0-59.107-18.368-72.178-45.038-8.361,2.948-17.348,4.568-26.717,4.568-12.824,0-24.936-3.019-35.691-8.363-22.175,13.01-47.995,20.478-75.563,20.478-32.714,0-62.969-10.513-87.588-28.333-13.461,10.175-30.221,16.217-48.396,16.217-39.231,0-71.874-28.125-78.917-65.307-.476.008-.948.036-1.426.036-23.665,0-44.937-10.236-59.64-26.517-11.483,30.338-40.79,51.914-75.151,51.914-39.36,0-72.086-28.311-78.983-65.675-4.681,10.194-7.311,21.527-7.311,33.479,0,44.372,35.971,80.343,80.343,80.343,34.36,0,63.668-21.577,75.151-51.914,14.703,16.281,35.975,26.517,59.64,26.517.478,0,.95-.028,1.426-.036,7.043,37.182,39.686,65.307,78.917,65.307,18.175,0,34.935-6.042,48.396-16.217,24.618,17.82,54.873,28.333,87.588,28.333,27.568,0,53.388-7.468,75.563-20.478,10.755,5.343,22.868,8.363,35.691,8.363,9.369,0,18.357-1.62,26.717-4.568,13.07,26.669,40.475,45.038,72.178,45.038,34.688,0,64.241-21.984,75.488-52.78,12.377,7.788,27.016,12.31,42.719,12.31,44.372,0,80.343-35.97,80.343-80.343,0-5.016-.476-9.919-1.355-14.679-12.695,27.657-40.613,46.875-73.037,46.875Z"/><path fill="#e5e5e5" d="M689.289,1426.142c-186.116,0-336.994,150.877-336.994,336.994h673.987c0-186.116-150.877-336.994-336.994-336.994Z"/><path fill="#ddd" d="M689.289,1426.142c-18.317,0-36.286,1.483-53.811,4.295,40.916,6.879,78.881,22.451,111.932,44.751,105.873,71.437,54.619,237.029-73.101,237.029h-318.187c-2.517,16.606-3.827,33.609-3.827,50.918h673.987c0-186.116-150.877-336.994-336.994-336.994Z"/><path fill="#f2f2f2" d="M2349.579,1763.136c112.832-146.153,179.965-329.39,179.965-528.312,0-477.895-387.41-865.305-865.305-865.305s-865.305,387.41-865.305,865.305c0,198.922,67.133,382.159,179.965,528.312h1370.681Z"/><path fill="#eaeaea" d="M2220.683,572.151c126.453,150.436,202.631,344.542,202.631,556.445,0,2.763-.013,5.523-.039,8.279-2.704,288.397-238.986,520.032-527.395,520.032h-987.177c20.821,37.189,44.301,72.688,70.195,106.229h1370.681c112.832-146.153,179.965-329.39,179.965-528.312,0-265.992-120.025-503.944-308.86-662.674Z"/><rect width="2871.839" height="21.085" x="5" y="1753.324" fill="#b3b3b3"/><path fill="#fcfcfc" d="M1123.003,421.024c0-57.537-46.643-104.18-104.18-104.18-53.427,0-97.454,40.22-103.471,92.034-7.951-4.917-17.318-7.761-27.353-7.761-18.4,0-34.56,9.549-43.827,23.953-27.615-70.573-96.294-120.559-176.652-120.559-73.022,0-136.392,41.28-168.078,101.771-18.539-17-43.249-27.378-70.385-27.378-49.714,0-91.289,34.825-101.677,81.409-11.493-8.257-25.578-13.135-40.811-13.135-38.683,0-70.043,31.359-70.043,70.043s31.359,70.042,70.043,70.042c27.058,0,50.515-15.352,62.181-37.812,19.109,23.096,47.988,37.812,80.306,37.812.142,0,.284-.005.426-.006,3.821,35.075,33.525,62.375,69.617,62.375,15.806,0,30.385-5.24,42.105-14.071,33.537,29.976,77.794,48.208,126.314,48.208,38.611,0,74.518-11.55,104.478-31.368,18.915,19.351,45.303,31.368,74.501,31.368,55.098,0,100.199-42.774,103.924-96.927,2.503.271,5.043.42,7.619.42,36.113,0,65.832-27.332,69.624-62.437,53.397-4.489,95.337-49.245,95.337-103.803Z"/><path fill="#f7f7f7" d="M1064.471,327.357c12.486,16.762,19.877,37.543,19.877,60.051,0,52.697-40.509,95.926-92.085,100.262-3.663,33.907-32.369,60.307-67.249,60.307-2.488,0-4.941-.144-7.359-.405-3.598,52.305-47.161,93.62-100.379,93.62-28.202,0-53.689-11.607-71.96-30.298-28.938,19.142-63.621,30.298-100.914,30.298-46.866,0-89.612-17.61-122.005-46.563-11.321,8.53-25.403,13.591-40.669,13.591-34.86,0-63.552-26.37-67.242-60.248-.137,0-.274.005-.412.005-31.215,0-59.11-14.214-77.567-36.522-11.268,21.694-33.925,36.522-60.06,36.522-25.866,0-48.333-14.521-59.716-35.851-.121,1.685-.204,3.38-.204,5.096,0,38.684,31.359,70.042,70.043,70.042,27.058,0,50.515-15.352,62.181-37.812,19.109,23.096,47.988,37.812,80.306,37.812.142,0,.284-.005.426-.006,3.821,35.075,33.525,62.375,69.617,62.375,15.806,0,30.385-5.24,42.105-14.071,33.537,29.976,77.794,48.208,126.314,48.208,38.611,0,74.518-11.55,104.478-31.368,18.915,19.351,45.303,31.368,74.501,31.368,55.098,0,100.199-42.774,103.924-96.927,2.503.271,5.043.42,7.619.42,36.112,0,65.832-27.332,69.624-62.437,53.397-4.489,95.337-49.245,95.337-103.803,0-41.163-23.876-76.746-58.532-93.667Z"/><path fill="#fcfcfc" d="M2916.638,1452.789c2.542-9.213,3.907-18.915,3.907-28.936,0-59.942-48.592-108.535-108.534-108.535s-108.534,48.593-108.534,108.535c0,.247.008.494.009.741-4.161-.484-8.39-.741-12.681-.741-8.586,0-16.938,1.001-24.949,2.886-10.863-100.328-95.826-178.431-199.042-178.431-77.919,0-145.438,44.511-178.529,109.49-12.296-23.302-36.753-39.195-64.933-39.195-40.53,0-73.386,32.856-73.386,73.386,0,24.726,12.24,46.578,30.979,59.874-4.815,6.176-8.976,12.887-12.38,20.029-9.442-4.424-19.974-6.909-31.091-6.909-40.53,0-73.386,32.856-73.386,73.386s32.856,73.387,73.386,73.387c19.138,0,36.56-7.332,49.625-19.333,19.817,21.309,48.094,34.645,79.489,34.645,26.915,0,51.538-9.801,70.504-26.024,34.944,29.752,80.232,47.717,129.723,47.717,52.412,0,100.112-20.147,135.801-53.107,19.7,27.411,51.858,45.266,88.19,45.266,38.876,0,72.972-20.444,92.14-51.163,13.87,43.966,54.97,75.845,103.52,75.845,59.942,0,108.534-48.592,108.534-108.534,0-49.471-33.101-91.207-78.362-104.28Z"/><path fill="#f7f7f7" d="M2690.806,1640.921c38.876,0,72.972-20.444,92.14-51.163,13.87,43.966,54.97,75.845,103.52,75.845,59.942,0,108.534-48.592,108.534-108.534,0-2.691-.116-5.356-.309-7.998-14.356,43.133-55.042,74.236-102.998,74.236-48.55,0-89.65-31.88-103.52-75.845-19.168,30.719-53.264,51.163-92.14,51.163-36.332,0-68.49-17.855-88.19-45.266-35.69,32.96-83.389,53.107-135.801,53.107-49.49,0-94.779-17.965-129.723-47.717-18.967,16.223-43.589,26.024-70.504,26.024-31.395,0-59.672-13.336-79.489-34.645-13.065,12.001-30.486,19.333-49.625,19.333-36.259,0-66.355-26.304-72.301-60.866-4.047,9.102-6.313,19.17-6.313,29.774,0,40.531,32.856,73.387,73.386,73.387,19.138,0,36.56-7.332,49.625-19.333,19.817,21.309,48.094,34.645,79.489,34.645,26.915,0,51.538-9.801,70.504-26.024,34.944,29.752,80.232,47.717,129.723,47.717,52.412,0,100.112-20.147,135.801-53.107,19.7,27.411,51.858,45.266,88.19,45.266Z"/><rect width="7.042" height="35.153" x="1614.307" y="730.308" fill="#ccc" rx="3.521" ry="3.521"/><rect width="7.042" height="35.153" x="1614.307" y="774.717" fill="#ccc" rx="3.521" ry="3.521"/><rect width="7.042" height="35.153" x="1636.512" y="752.513" fill="#ccc" rx="3.521" ry="3.521" transform="rotate(90 1640.033 770.089)"/><rect width="7.042" height="35.153" x="1592.103" y="752.513" fill="#ccc" rx="3.521" ry="3.521" transform="rotate(90 1595.624 770.089)"/><rect width="7.042" height="35.153" x="1353.116" y="225.59" fill="#ccc" rx="3.521" ry="3.521"/><rect width="7.042" height="35.153" x="1353.116" y="269.999" fill="#ccc" rx="3.521" ry="3.521"/><rect width="7.042" height="35.153" x="1375.321" y="247.795" fill="#ccc" rx="3.521" ry="3.521" transform="rotate(90 1378.842 265.371)"/><rect width="7.042" height="35.153" x="1330.912" y="247.795" fill="#ccc" rx="3.521" ry="3.521" transform="rotate(90 1334.433 265.371)"/><rect width="7.042" height="35.153" x="1534.745" y="1417.174" fill="#ccc" rx="3.521" ry="3.521"/><rect width="7.042" height="35.153" x="1534.745" y="1461.583" fill="#ccc" rx="3.521" ry="3.521"/><rect width="7.042" height="35.153" x="1556.95" y="1439.379" fill="#ccc" rx="3.521" ry="3.521" transform="rotate(90 1560.471 1456.955)"/><rect width="7.042" height="35.153" x="1512.541" y="1439.379" fill="#ccc" rx="3.521" ry="3.521" transform="rotate(90 1516.062 1456.955)"/><rect width="7.042" height="35.153" x="1022.761" y="1479.16" fill="#ccc" rx="3.521" ry="3.521"/><rect width="7.042" height="35.153" x="1022.761" y="1523.569" fill="#ccc" rx="3.521" ry="3.521"/><rect width="7.042" height="35.153" x="1044.966" y="1501.364" fill="#ccc" rx="3.521" ry="3.521" transform="rotate(90 1048.487 1518.941)"/><rect width="7.042" height="35.153" x="1000.557" y="1501.364" fill="#ccc" rx="3.521" ry="3.521" transform="rotate(90 1004.078 1518.941)"/><rect width="7.042" height="35.153" x="2268.106" y="1587.099" fill="#ccc" rx="3.521" ry="3.521"/><rect width="7.042" height="35.153" x="2268.106" y="1631.508" fill="#ccc" rx="3.521" ry="3.521"/><rect width="7.042" height="35.153" x="2290.311" y="1609.304" fill="#ccc" rx="3.521" ry="3.521" transform="rotate(90 2293.832 1626.88)"/><rect width="7.042" height="35.153" x="2245.902" y="1609.304" fill="#ccc" rx="3.521" ry="3.521" transform="rotate(90 2249.423 1626.88)"/><rect width="7.042" height="35.153" x="1146.529" y="871.856" fill="#ccc" rx="3.521" ry="3.521"/><rect width="7.042" height="35.153" x="1146.529" y="916.265" fill="#ccc" rx="3.521" ry="3.521"/><rect width="7.042" height="35.153" x="1168.733" y="894.06" fill="#ccc" rx="3.521" ry="3.521" transform="rotate(90 1172.255 911.637)"/><rect width="7.042" height="35.153" x="1124.324" y="894.06" fill="#ccc" rx="3.521" ry="3.521" transform="rotate(90 1127.846 911.637)"/><rect width="7.042" height="35.153" x="1609.679" y="1127.862" fill="#ccc" rx="3.521" ry="3.521"/><rect width="7.042" height="35.153" x="1609.679" y="1172.271" fill="#ccc" rx="3.521" ry="3.521"/><rect width="7.042" height="35.153" x="1631.884" y="1150.067" fill="#ccc" rx="3.521" ry="3.521" transform="rotate(90 1635.405 1167.643)"/><rect width="7.042" height="35.153" x="1587.475" y="1150.067" fill="#ccc" rx="3.521" ry="3.521" transform="rotate(90 1590.996 1167.643)"/><rect width="7.042" height="35.153" x="553.831" y="1417.174" fill="#ccc" rx="3.521" ry="3.521"/><rect width="7.042" height="35.153" x="553.831" y="1461.583" fill="#ccc" rx="3.521" ry="3.521"/><rect width="7.042" height="35.153" x="576.035" y="1439.379" fill="#ccc" rx="3.521" ry="3.521" transform="rotate(90 579.556 1456.955)"/><rect width="7.042" height="35.153" x="531.626" y="1439.379" fill="#ccc" rx="3.521" ry="3.521" transform="rotate(90 535.147 1456.955)"/><rect width="7.042" height="35.153" x="813.934" y="792.294" fill="#ccc" rx="3.521" ry="3.521"/><rect width="7.042" height="35.153" x="813.934" y="836.703" fill="#ccc" rx="3.521" ry="3.521"/><rect width="7.042" height="35.153" x="836.139" y="814.498" fill="#ccc" rx="3.521" ry="3.521" transform="rotate(90 839.66 832.075)"/><rect width="7.042" height="35.153" x="791.73" y="814.498" fill="#ccc" rx="3.521" ry="3.521" transform="rotate(90 795.251 832.075)"/><rect width="7.042" height="35.153" x="2044.175" y="1068.198" fill="#ccc" rx="3.521" ry="3.521"/><rect width="7.042" height="35.153" x="2044.175" y="1112.607" fill="#ccc" rx="3.521" ry="3.521"/><rect width="7.042" height="35.153" x="2066.379" y="1090.402" fill="#ccc" rx="3.521" ry="3.521" transform="rotate(90 2069.9 1107.979)"/><rect width="7.042" height="35.153" x="2021.97" y="1090.402" fill="#ccc" rx="3.521" ry="3.521" transform="rotate(90 2025.491 1107.979)"/><rect width="7.042" height="35.153" x="2100.347" y="287.576" fill="#ccc" rx="3.521" ry="3.521"/><rect width="7.042" height="35.153" x="2100.347" y="331.985" fill="#ccc" rx="3.521" ry="3.521"/><rect width="7.042" height="35.153" x="2122.552" y="309.78" fill="#ccc" rx="3.521" ry="3.521" transform="rotate(90 2126.073 327.357)"/><rect width="7.042" height="35.153" x="2078.143" y="309.78" fill="#ccc" rx="3.521" ry="3.521" transform="rotate(90 2081.664 327.357)"/><rect width="7.042" height="35.153" x="2656.778" y="792.294" fill="#ccc" rx="3.521" ry="3.521"/><rect width="7.042" height="35.153" x="2656.778" y="836.703" fill="#ccc" rx="3.521" ry="3.521"/><rect width="7.042" height="35.153" x="2678.983" y="814.498" fill="#ccc" rx="3.521" ry="3.521" transform="rotate(90 2682.504 832.075)"/><rect width="7.042" height="35.153" x="2634.574" y="814.498" fill="#ccc" rx="3.521" ry="3.521" transform="rotate(90 2638.095 832.075)"/><rect width="7.042" height="35.153" x="2044.175" y="580.658" fill="#ccc" rx="3.521" ry="3.521"/><rect width="7.042" height="35.153" x="2044.175" y="625.067" fill="#ccc" rx="3.521" ry="3.521"/><rect width="7.042" height="35.153" x="2066.379" y="602.862" fill="#ccc" rx="3.521" ry="3.521" transform="rotate(90 2069.9 620.44)"/><rect width="7.042" height="35.153" x="2021.97" y="602.862" fill="#ccc" rx="3.521" ry="3.521" transform="rotate(90 2025.492 620.439)"/><circle cx="1872.741" cy="854.279" r="27.753" fill="#ccc"/><circle cx="1786.545" cy="1197.44" r="17.769" fill="#ccc"/><circle cx="2204.093" cy="974.702" r="27.753" fill="#ccc"/><circle cx="2529.544" cy="765.461" r="27.753" fill="#ccc"/><circle cx="1657.609" cy="322.729" r="27.753" fill="#ccc"/><circle cx="1062.923" cy="1194.107" r="14.436" fill="#ccc"/><circle cx="669.765" cy="809.87" r="27.753" fill="#ccc"/><circle cx="741.965" cy="1360.258" r="27.753" fill="#ccc"/><circle cx="663.341" cy="1336.795" r="13.199" fill="#ccc"/><circle cx="1928.248" cy="1406.997" r="27.753" fill="#ccc"/><circle cx="1420.908" cy="948.154" r="24.49" fill="#ccc"/><circle cx="1103.994" cy="533.317" r="27.753" fill="#ccc"/><circle cx="2516.144" cy="1594.639" r="27.753" fill="#ccc"/><path fill="#ffc942" d="M1125.483,1094.367c66.189,72.176,162.397,113.808,282.042,131.592l-33.734,281.713c-10.32,86.188-72.033,157.429-155.868,179.935,0,0-92.441,24.817-92.441,24.817l-92.441-24.817c-83.835-22.506-145.547-93.748-155.868-179.935l-33.734-281.713c119.645-17.784,215.853-59.416,282.042-131.592Z"/><path fill="#ffb703" d="M1125.483,1094.367c66.189,72.176,162.397,113.808,282.042,131.592l-33.734,281.713c-10.32,86.188-72.033,157.429-155.868,179.935,0,0-92.441,24.817-92.441,24.817v-618.057Z"/><path fill="#fff9ed" d="M1042.31,1653.084c-34.213-9.185-64.557-28.192-87.751-54.968-23.194-26.776-37.68-59.52-41.892-94.694l-29.692-247.967c100.437-19.51,181.732-56.71,242.509-110.952,60.776,54.242,142.072,91.442,242.509,110.952l-29.692,247.967c-4.212,35.173-18.698,67.918-41.892,94.694-23.194,26.775-53.538,45.783-87.751,54.968l-83.173,22.329-83.173-22.329Z"/><path fill="#fff2dc" d="M974.96,1613.476c-23.98-27.683-38.956-61.536-43.311-97.9l-9.912-82.775c-10.924-91.225,37.742-179.596,121.184-218.05,35.669-16.438,67.595-36.153,95.668-59.091-4.466-3.638-8.843-7.351-13.107-11.157-60.776,54.242-142.071,91.442-242.509,110.952l29.692,247.967c4.212,35.173,18.698,67.918,41.892,94.694,11.007,12.707,23.627,23.66,37.503,32.648-6.042-5.349-11.757-11.117-17.102-17.288Z"/><path fill="#90cfde" d="M1983.231,789.985l51.323,45.403-48.844,48.06c-2.727,2.684-3.502,6.778-1.945,10.272l14.686,32.955c1.557,3.495,5.12,5.656,8.939,5.422l68.396-4.186-.555,68.521c-.031,3.826,2.316,7.269,5.888,8.639l33.687,12.918c3.572,1.37,7.62.379,10.155-2.487l45.403-51.323,48.06,48.844c2.683,2.727,6.778,3.502,10.272,1.945l32.955-14.686c3.495-1.557,5.656-5.12,5.422-8.939l-4.185-68.396,68.521.555c3.826.031,7.269-2.316,8.639-5.888l12.918-33.687c1.37-3.572.379-7.62-2.487-10.155l-51.323-45.403,48.844-48.06c2.727-2.683,3.502-6.778,1.945-10.272l-14.686-32.955c-1.557-3.495-5.12-5.656-8.939-5.422l-68.396,4.186.555-68.521c.031-3.826-2.316-7.269-5.888-8.639l-33.687-12.918c-3.572-1.37-7.62-.379-10.155,2.487l-45.403,51.323-48.06-48.844c-2.683-2.727-6.778-3.502-10.272-1.945l-32.955,14.686c-3.495,1.557-5.656,5.12-5.422,8.939l4.185,68.396-68.521-.555c-3.826-.031-7.269,2.316-8.639,5.888l-12.918,33.687c-1.37,3.572-.379,7.62,2.487,10.155ZM2197.033,753.188c43.46,16.666,65.181,65.408,48.515,108.869s-65.408,65.181-108.869,48.515c-43.46-16.666-65.181-65.408-48.515-108.869,16.666-43.46,65.408-65.181,108.868-48.515Z"/><path fill="#59b6cd" d="M2112.344,974.03c78.507,30.106,166.556-9.131,196.662-87.638,30.106-78.507-9.131-166.556-87.638-196.662-78.507-30.106-166.556,9.131-196.662,87.638-30.106,78.507,9.131,166.556,87.638,196.662ZM2201.538,741.44c49.949,19.154,74.912,75.173,55.758,125.122-19.154,49.948-75.173,74.912-125.122,55.758-49.949-19.154-74.912-75.173-55.758-125.122,19.154-49.948,75.173-74.912,125.122-55.758Z"/><path fill="#fff2dc" d="M1885.187,478.063l38.58,34.13-36.716,36.127c-2.05,2.017-2.633,5.095-1.462,7.722l11.039,24.773c1.171,2.627,3.849,4.251,6.72,4.076l51.414-3.146-.417,51.508c-.023,2.876,1.741,5.464,4.426,6.494l25.323,9.711c2.685,1.03,5.728.285,7.634-1.869l34.13-38.58,36.127,36.716c2.017,2.05,5.095,2.633,7.722,1.462l24.773-11.04c2.627-1.171,4.251-3.849,4.076-6.72l-3.146-51.413,51.508.417c2.876.023,5.464-1.741,6.494-4.426l9.711-25.323c1.03-2.685.285-5.728-1.869-7.634l-38.58-34.13,36.716-36.127c2.05-2.017,2.633-5.095,1.462-7.722l-11.039-24.773c-1.171-2.627-3.849-4.251-6.72-4.076l-51.414,3.146.417-51.508c.023-2.876-1.741-5.464-4.426-6.494l-25.323-9.711c-2.685-1.03-5.728-.285-7.634,1.869l-34.13,38.58-36.127-36.716c-2.017-2.05-5.095-2.633-7.722-1.462l-24.773,11.039c-2.627,1.171-4.252,3.849-4.076,6.72l3.146,51.413-51.508-.417c-2.876-.023-5.464,1.741-6.494,4.426l-9.711,25.323c-1.03,2.685-.285,5.728,1.869,7.634ZM2045.903,450.403c32.669,12.528,48.997,49.168,36.469,81.837-12.528,32.669-49.168,48.997-81.837,36.469-32.669-12.528-48.997-49.168-36.469-81.837s49.168-48.997,81.837-36.469Z"/><path fill="#ffecca" d="M1982.242,616.411c59.015,22.631,125.201-6.864,147.832-65.878,22.631-59.015-6.864-125.201-65.878-147.832-59.015-22.631-125.201,6.864-147.832,65.878-22.631,59.015,6.864,125.201,65.878,147.832ZM2049.29,441.572c37.547,14.398,56.312,56.508,41.914,94.055-14.398,37.547-56.508,56.312-94.055,41.914-37.547-14.398-56.312-56.508-41.914-94.055s56.508-56.312,94.055-41.914Z"/><path fill="#416475" d="M2172.486,532.11l24.209,21.417-23.04,22.67c-1.286,1.266-1.652,3.197-.918,4.846l6.927,15.545c.735,1.648,2.415,2.668,4.217,2.558l32.262-1.974-.262,32.322c-.015,1.805,1.092,3.429,2.778,4.075l15.89,6.094c1.685.646,3.594.179,4.79-1.173l21.417-24.209,22.67,23.04c1.266,1.286,3.197,1.652,4.846.918l15.545-6.927c1.648-.735,2.668-2.415,2.558-4.217l-1.974-32.262,32.322.262c1.805.015,3.429-1.092,4.075-2.778l6.094-15.89c.646-1.685.179-3.594-1.173-4.79l-24.209-21.417,23.04-22.67c1.286-1.266,1.652-3.197.918-4.846l-6.927-15.545c-.735-1.649-2.415-2.668-4.217-2.558l-32.262,1.974.262-32.322c.015-1.805-1.092-3.429-2.778-4.075l-15.89-6.094c-1.685-.646-3.594-.179-4.79,1.173l-21.417,24.209-22.67-23.04c-1.266-1.286-3.197-1.652-4.846-.917l-15.545,6.927c-1.648.735-2.668,2.415-2.558,4.217l1.974,32.262-32.322-.262c-1.805-.015-3.429,1.092-4.075,2.778l-6.094,15.89c-.646,1.685-.179,3.594,1.173,4.79ZM2273.337,514.752c20.5,7.862,30.746,30.853,22.885,51.354-7.862,20.5-30.853,30.746-51.354,22.885-20.5-7.861-30.746-30.853-22.885-51.354,7.862-20.5,30.853-30.746,51.354-22.885Z"/><path fill="#023047" d="M2233.389,618.924c37.032,14.201,78.565-4.307,92.766-41.339,14.201-37.032-4.307-78.565-41.339-92.766s-78.565,4.307-92.766,41.339c-14.201,37.032,4.307,78.565,41.339,92.766ZM2275.462,509.211c23.561,9.035,35.336,35.46,26.301,59.02-9.035,23.561-35.46,35.336-59.02,26.301-23.561-9.035-35.336-35.46-26.301-59.02,9.035-23.561,35.46-35.336,59.02-26.301Z"/><rect width="834.972" height="1326.056" x="1125.483" y="287.576" fill="#416475" rx="66.433" ry="66.433"/><path fill="#c8e7ee" d="M1941.076,354.009v1193.19c0,25.981-21.071,47.052-47.052,47.052h-702.11c-25.981,0-47.052-21.071-47.052-47.052V354.009c0-25.981,21.071-47.052,47.052-47.052h163.559c8.23,0,15.87,4.264,20.19,11.266l17.55,28.428c3.368,5.459,9.328,8.787,15.749,8.787h268.016c6.421,0,12.381-3.327,15.749-8.787l17.55-28.428c4.321-7.002,11.961-11.266,20.19-11.266h163.559c25.981,0,47.052,21.071,47.052,47.052Z"/><path fill="#90cfde" d="M1899.463,307.28c.206,1.786.323,3.598.323,5.439v1030.206c0,115.999-94.036,210.035-210.035,210.035h-539.126c-1.841,0-3.653-.117-5.439-.323,2.699,23.418,22.588,41.613,46.729,41.613h702.11c25.986,0,47.052-21.066,47.052-47.052V354.009c0-24.14-18.194-44.03-41.613-46.729Z"/><path fill="#90cfde" d="M1367.671,314.148h4.801c-4.416-4.54-10.521-7.191-17-7.191h-2.435c3.479,4.501,8.867,7.191,14.634,7.191Z"/><path fill="#416475" d="M1542.969,994.271h0c-70.476,0-127.609,57.132-127.609,127.609v127.609h34.957v-127.609c0-51.088,41.563-92.652,92.652-92.652s92.651,41.564,92.651,92.652v127.609h34.958v-127.609c0-70.476-57.132-127.609-127.609-127.609Z"/><path fill="#416475" d="M1705.045,1182.453v210.065c0,34.742-28.167,62.909-62.909,62.909h-198.328c-34.749,0-62.916-28.167-62.916-62.909v-210.065h324.153Z"/><path fill="#023047" d="M1681.345,1182.453v110.148c0,76.837-62.288,139.125-139.125,139.125h-122.111c-11.287,0-21.871-2.987-31.03-8.192,10.816,19.039,31.265,31.891,54.729,31.891h198.328c34.743,0,62.908-28.165,62.908-62.908v-210.065h-23.7Z"/><rect width="324.153" height="78.981" x="1380.893" y="1182.453" fill="#8198a3"/><rect width="23.7" height="78.982" x="1681.345" y="1182.453" fill="#416475"/><path fill="#8198a3" d="M1571.663,1322.189c0-16.466-13.87-29.693-30.565-28.634-14.112.895-25.647,12.259-26.735,26.357-.858,11.118,4.628,21.022,13.216,26.49,2.02,1.286,2.956,3.739,2.209,6.013l-8.309,25.276c-1.905,5.795,2.412,11.759,8.513,11.759h25.954c6.1,0,10.418-5.963,8.513-11.759l-8.307-25.272c-.751-2.286.204-4.74,2.233-6.034,7.983-5.094,13.279-14.024,13.279-24.196Z"/><path fill="#023047" d="M1526.838,1377.692l8.309-25.276c.748-2.275-.189-4.727-2.209-6.013-8.588-5.468-14.074-15.372-13.216-26.49,1.068-13.838,12.202-25.034,25.957-26.29-1.496-.14-3.026-.166-4.58-.068-14.112.895-25.647,12.259-26.735,26.358-.858,11.118,4.628,21.022,13.216,26.49,2.02,1.286,2.956,3.739,2.208,6.013l-8.309,25.276c-1.905,5.795,2.412,11.759,8.513,11.759h5.358c-6.101,0-10.418-5.963-8.513-11.759Z"/><path fill="#fff9ed" d="M1750.769,457.188h-542.743c-14.705,0-26.625,11.92-26.625,26.625v178.183c0,14.705,11.92,26.625,26.625,26.625h38.656c4.389,0,7.947,3.558,7.947,7.947v39.918l48.374-41.113c5.129-4.359,11.641-6.752,18.372-6.752h429.393c14.705,0,26.625-11.92,26.625-26.625v-178.183c0-14.705-11.92-26.625-26.625-26.625Z"/><path fill="#fff2dc" d="M1759.684,458.722c.991,2.788,1.534,5.787,1.534,8.915v102.027c0,56.765-46.017,102.782-102.782,102.782h-466.586c-3.127,0-6.127-.544-8.914-1.534,3.667,10.319,13.513,17.711,25.091,17.711h38.656c4.389,0,7.947,3.558,7.947,7.947v39.918s48.374-41.113,48.374-41.113c5.129-4.359,11.641-6.752,18.372-6.752h429.393c14.705,0,26.625-11.92,26.625-26.625v-178.183c0-11.577-7.391-21.424-17.711-25.091Z"/><path fill="#416475" d="M1395.115,566.336h-7.363c.033-1.933.206-3.438.517-4.514.311-1.076.849-2.126,1.614-3.152.765-1.025,1.769-1.853,3.013-2.484,1.244-.63,2.589-.946,4.034-.946,2.589,0,4.724.929,6.405,2.786,1.681,1.858,2.521,4.215,2.521,7.073,0,3.329-1.286,5.943-3.858,7.842,3.026,1.563,4.539,4.354,4.539,8.372,0,1.597-.374,3.19-1.122,4.778-.748,1.589-1.837,2.74-3.265,3.455-1.429.714-3.102,1.072-5.018,1.072-2.875,0-5.229-.845-7.061-2.534-1.833-1.689-2.816-4.013-2.95-6.972h7.237c.033,2.068.857,3.102,2.471,3.102,1.58,0,2.37-1.412,2.37-4.236,0-1.311-.231-2.223-.693-2.736-.463-.513-1.282-.769-2.459-.769h-2.32v-6.985h2.521c1.076,0,1.845-.281,2.307-.845.462-.563.693-1.483.693-2.761,0-2.757-.773-4.135-2.32-4.135-.723,0-1.206.286-1.45.857-.244.572-.366,1.58-.366,3.026v.706Z"/><path fill="#416475" d="M1434.452,556.073h7.842v20.854h2.623v6.102h-2.623v6.707h-6.985v-6.707h-10.793v-5.472l9.935-21.484ZM1435.209,566.235l-4.892,10.692h4.993v-10.692h-.101Z"/><path fill="#416475" d="M1464.61,556.073h19.795l-12.709,33.663h-7.741l9.96-26.754h-9.305v-6.909Z"/><path fill="#416475" d="M1514.639,571.354c1.916.824,3.4,2.076,4.451,3.757,1.05,1.681,1.576,3.581,1.576,5.699,0,2.975-.916,5.354-2.748,7.136-1.832,1.782-4.287,2.673-7.363,2.673-3.144,0-5.628-.883-7.452-2.648-1.824-1.765-2.736-4.152-2.736-7.161,0-.756.05-1.466.152-2.131.101-.664.256-1.286.466-1.866.21-.58.475-1.126.794-1.639.319-.513.693-.987,1.122-1.425.429-.437.933-.845,1.513-1.223.58-.378,1.181-.752,1.803-1.122v-.05h-.051c0-.034-.017-.05-.05-.05,0-.033-.017-.05-.05-.05-1.009-.47-1.845-.992-2.509-1.563-.664-.571-1.231-1.383-1.702-2.433-.471-1.05-.706-2.265-.706-3.644,0-2.404.891-4.409,2.673-6.014,1.781-1.605,4.009-2.408,6.682-2.408,2.723,0,4.951.816,6.682,2.446,1.731,1.631,2.597,3.724,2.597,6.279,0,1.681-.416,3.11-1.248,4.287-.832,1.177-2.131,2.228-3.896,3.152ZM1513.227,580.179c0-3.295-.908-4.942-2.723-4.942-1.9,0-2.85,1.513-2.85,4.539,0,3.228.967,4.842,2.9,4.842,1.781,0,2.673-1.479,2.673-4.438ZM1512.42,564.999c0-2.437-.639-3.656-1.916-3.656-1.311,0-1.967,1.084-1.967,3.253,0,1.311.155,2.24.467,2.786.311.547.827.82,1.551.82,1.244,0,1.866-1.067,1.866-3.202Z"/><path fill="#416475" d="M1548.428,555.19c3.648,0,6.418,1.505,8.309,4.514,1.891,3.009,2.837,7.439,2.837,13.289,0,5.699-.963,10.061-2.887,13.087-1.925,3.026-4.678,4.539-8.259,4.539-3.396,0-6.098-1.416-8.107-4.249-2.009-2.832-3.013-7.409-3.013-13.73,0-5.548.966-9.843,2.9-12.885,1.933-3.042,4.64-4.564,8.12-4.564h.101ZM1544.646,572.589c0,7.195,1.243,10.793,3.732,10.793,1.345,0,2.316-.794,2.913-2.383.597-1.589.895-4.114.895-7.577,0-3.816-.299-6.594-.895-8.334-.597-1.74-1.585-2.61-2.963-2.61-2.454,0-3.681,3.371-3.681,10.112Z"/><rect width="121.679" height="14.045" x="1248.58" y="565.882" fill="#416475"/><rect width="121.679" height="14.045" x="1248.58" y="528.702" fill="#416475"/><rect width="209.736" height="14.045" x="1248.58" y="491.523" fill="#416475"/><rect width="205.698" height="14.045" x="1384.078" y="528.702" fill="#416475"/><rect width="121.679" height="14.045" x="1248.58" y="640.241" fill="#416475"/><rect width="209.736" height="14.045" x="1488.379" y="603.062" fill="#416475"/><rect width="209.736" height="14.045" x="1248.58" y="603.062" fill="#416475"/><rect width="205.698" height="14.045" x="1384.078" y="640.241" fill="#416475"/><rect width="121.679" height="14.045" x="1576.437" y="565.882" fill="#416475"/></svg>