<svg xmlns="http://www.w3.org/2000/svg" enable-background="new 0 0 2800 2000" viewBox="0 0 2800 2000"><rect width="2000" height="2000" x="400" fill="#fff" fill-rule="evenodd" clip-rule="evenodd" display="none"/><path fill="#d5f0ff" d="M707.58,1359.79c19.22,29.67,207.5,255.11,359.27,257.85c136.87,2.47,181.26-195.94,325.02-181.25  c107.05,10.94,120.67,124.87,244.7,164.42c121.91,38.87,283.1-8.02,364.25-95.77c422.15-456.43,199.57-1136.24-156.86-1327.9  c-160.95-86.55-258.86,152.78-596.89,109.99c-203.27-25.73-165.41-147.52-340.55-66.72C703.32,314.16,374.55,845.69,707.58,1359.79z  " display="none" opacity=".5"/><path fill="#62cbec" d="M2317.92,1798.83c43.99-6.62,104.87-129.56,54.97-162.2c-3.25-2.12-21.43-14.01-48.69-10.53     c-29.38,3.76-50.95,23.02-53.43,25.23C2218.1,1698.36,2273.6,1805.5,2317.92,1798.83z"/><path fill="#bbe6f9" d="M2311.7,1803.09c43.99-6.62,104.87-129.56,54.97-162.2c-3.25-2.13-21.43-14.01-48.69-10.53     c-29.38,3.76-50.95,23.02-53.43,25.23C2211.89,1702.62,2267.38,1809.76,2311.7,1803.09z"/><path fill="#fff" d="M2323.52,1840.49c0.03-0.01,0.05-0.02,0.08-0.02c1.1-0.37,1.78-1.24,1.51-1.96       c-12.48-33.28-17.81-68.67-15.84-105.17c1.57-29.19,7.84-59.1,18.63-88.92c0.29-0.8-0.36-1.48-1.46-1.5       c-1.1-0.02-2.22,0.61-2.51,1.42c-10.87,30.03-17.18,60.17-18.77,89.56c-1.98,36.77,3.39,72.41,15.96,105.93       C2321.37,1840.53,2322.44,1840.82,2323.52,1840.49z"/><path fill="#fff" d="M2312.28,1692.49c0.42-0.13,0.81-0.34,1.12-0.63c0.75-0.71,0.68-1.59-0.17-1.98       c-7.81-3.53-14.12-8.21-18.74-13.93c-4.48-5.54-7.18-11.81-8.03-18.65c-0.1-0.77-1.09-1.18-2.22-0.93       c-1.13,0.25-1.97,1.07-1.87,1.84c0.9,7.18,3.74,13.78,8.44,19.6c4.86,6.01,11.48,10.93,19.69,14.64       C2311.01,1692.68,2311.67,1692.68,2312.28,1692.49z"/><path fill="#fff" d="M2304.91,1752.63c0.6-0.18,1.13-0.53,1.43-0.99c0.51-0.78,0.1-1.57-0.92-1.75       c-9.35-1.71-17.59-4.76-24.48-9.05c-6.68-4.16-11.82-9.32-15.26-15.34c-0.39-0.67-1.56-0.86-2.63-0.42       c-1.07,0.44-1.62,1.34-1.23,2.02c3.62,6.33,9.02,11.75,16.04,16.12c7.25,4.51,15.9,7.71,25.73,9.51       C2304,1752.81,2304.47,1752.77,2304.91,1752.63z"/><path fill="#fff" d="M2318.29,1715.45c8.41-2.56,16.46-5.93,24.01-10.06c9.31-5.08,17.46-11.09,24.25-17.86       c0.72-0.72,0.6-1.6-0.27-1.95c-0.87-0.36-2.17-0.06-2.89,0.66c-6.46,6.45-14.22,12.17-23.08,17       c-9.14,4.99-19.04,8.82-29.42,11.38c-1.13,0.28-1.93,1.12-1.79,1.87c0.14,0.76,1.16,1.14,2.29,0.86       C2313.72,1716.78,2316.02,1716.15,2318.29,1715.45z"/><path fill="#fff" d="M2309.4,1784.38c0.11-0.03,0.22-0.07,0.32-0.12c10.27-4.39,19.54-9.9,27.57-16.38       c7.78-6.28,14.05-13.21,18.65-20.59c0.49-0.79,0.06-1.56-0.97-1.73c-1.02-0.17-2.25,0.33-2.74,1.11       c-4.37,7.03-10.34,13.62-17.75,19.59c-7.64,6.17-16.46,11.41-26.23,15.58c-1.06,0.45-1.59,1.36-1.19,2.03       C2307.44,1784.48,2308.44,1784.68,2309.4,1784.38z"/><path fill="#8bdcef" d="M2365.79,1799.63c41.19,40.87,217.23,8.81,212.51-68.82c-0.31-5.06-2.03-33.33-26.91-59.14     c-26.81-27.81-63.76-35.38-68-36.25C2393.17,1616.95,2324.29,1758.45,2365.79,1799.63z"/><path fill="#d2edf7" d="M2356.49,1796.44c41.19,40.87,217.23,8.81,212.51-68.82c-0.31-5.05-2.03-33.33-26.91-59.14     c-26.81-27.81-63.76-35.38-68-36.25C2383.87,1613.76,2314.99,1755.26,2356.49,1796.44z"/><path fill="#fff" d="M2326.56,1837.93c0.03,0.02,0.06,0.04,0.08,0.06c1.24,0.87,2.69,0.89,3.23,0.05       c25.1-38.98,57.97-72.12,97.69-98.49c31.76-21.08,67.94-37.82,107.54-49.76c1.07-0.32,1.26-1.53,0.43-2.69       c-0.83-1.16-2.37-1.85-3.44-1.53c-39.89,12.02-76.33,28.88-108.32,50.12c-40.01,26.56-73.12,59.94-98.4,99.2       C2324.85,1835.72,2325.38,1837.06,2326.56,1837.93z"/><path fill="#fff" d="M2472.65,1710.91c0.46,0.34,0.99,0.59,1.53,0.68c1.33,0.24,2.2-0.53,1.94-1.71       c-2.39-10.92-2.4-21.17-0.02-30.45c2.31-9,6.77-16.71,13.25-22.93c0.73-0.7,0.39-2.06-0.75-3.05       c-1.14-0.99-2.66-1.22-3.38-0.53c-6.82,6.53-11.5,14.64-13.93,24.09c-2.5,9.76-2.5,20.53,0.02,32       C2471.46,1709.72,2471.98,1710.42,2472.65,1710.91z"/><path fill="#fff" d="M2403.98,1750.03c0.65,0.48,1.44,0.77,2.14,0.72c1.22-0.08,1.72-1.12,1.12-2.33       c-5.49-11.11-8.72-22.1-9.6-32.66c-0.85-10.23,0.55-19.62,4.16-27.92c0.4-0.93-0.31-2.31-1.61-3.08       c-1.29-0.77-2.67-0.65-3.07,0.28c-3.8,8.71-5.27,18.59-4.38,29.34c0.92,11.1,4.31,22.65,10.09,34.33       C2403.1,1749.22,2403.51,1749.68,2403.98,1750.03z"/><path fill="#fff" d="M2453.31,1735.08c9.23,6.8,19.02,12.6,29.22,17.29c12.56,5.78,25.2,9.64,37.58,11.46       c1.32,0.19,2.14-0.61,1.83-1.81c-0.31-1.19-1.63-2.32-2.94-2.51c-11.77-1.74-23.8-5.4-35.76-10.9       c-12.33-5.68-24.05-13.05-34.81-21.92c-1.17-0.96-2.67-1.15-3.35-0.42c-0.68,0.73-0.29,2.1,0.88,3.07       C2448.36,1731.33,2450.81,1733.24,2453.31,1735.08z"/><path fill="#fff" d="M2374.27,1779.47c0.12,0.09,0.24,0.17,0.38,0.25c12.58,7.33,25.57,12.74,38.61,16.09       c12.63,3.25,24.76,4.42,36.07,3.48c1.2-0.1,1.68-1.16,1.06-2.36c-0.62-1.2-2.1-2.1-3.3-2c-10.76,0.9-22.3-0.22-34.32-3.31       c-12.4-3.19-24.76-8.34-36.73-15.31c-1.3-0.76-2.66-0.61-3.04,0.34C2372.64,1777.49,2373.21,1778.68,2374.27,1779.47z"/><g><path fill="#d5f0ff" d="M2160.89,728.16c50.39,110.85,209.75,80.39,320.61,207.12c115.15,131.63,115.66,355.03-25.48,490.3    c-143.21,137.26-375.07,128.97-488.12,124.92c-185.78-6.65-254.18-58.8-400.75-90.84c-513.07-112.18-804.04,280.01-1131.94,146.68    c-178.42-72.55-297.95-272.48-260.99-413.74c63.25-241.79,600.34-283.1,578.97-404.91c-17.95-102.36-399.48-86.2-462.54-238.36    c-56.53-136.42,181.38-315.31,347.09-393.58c76.38-36.08,299.94-145.5,484.6-68.47c146.1,60.95,140.7,177.41,269.35,205.98    c155.1,34.45,217.27-122.77,438.58-135.2c163.07-9.16,369.31,62.72,416.55,183.12C2302.35,482.72,2100.12,594.47,2160.89,728.16z" opacity=".42"/><path fill="#d5f0ff" d="M2228.29,791.03c50.39,110.85,209.75,80.39,320.61,207.12c115.15,131.63,115.66,355.03-25.48,490.3    c-143.21,137.26-375.07,128.97-488.12,124.92c-185.78-6.65-254.18-58.8-400.75-90.84c-513.07-112.18-804.04,280.01-1131.94,146.68    c-178.42-72.55-297.95-272.48-260.99-413.74c63.25-241.79,600.34-283.1,578.97-404.91c-17.95-102.36-399.48-86.2-462.54-238.36    c-56.53-136.42,181.38-315.31,347.09-393.58c76.38-36.08,299.94-145.5,484.6-68.47c146.1,60.95,140.7,177.41,269.35,205.98    c155.1,34.45,217.27-122.77,438.58-135.2c163.07-9.16,369.31,62.72,416.55,183.12C2369.75,545.6,2167.52,657.35,2228.29,791.03z" opacity=".39"/></g><ellipse cx="1400" cy="1863.92" fill="#dfe6ff" rx="1183.37" ry="75.67"/><g><path fill="#2c7efe" d="M1623.38,369.42c-0.98-55.13-43.86-100.4-98.85-104.38c-254.14-18.42-508.27-36.83-762.41-55.25    c-66.79-4.84-121.44,52.39-113.52,118.88c14.5,121.79,29,243.59,43.5,365.38c7.06,59.28,61.42,101.2,120.55,92.95    c0.58-0.08,1.16-0.16,1.74-0.24c67.94,82.92,146.38,157.81,150.85,152.9c4.04-4.44-60.13-65.55-69.06-164.31    c213.04-29.73,426.08-59.45,639.12-89.18c53.37-7.45,92.78-53.57,91.82-107.45C1625.88,508.95,1624.63,439.18,1623.38,369.42z" opacity=".5"/><path fill="#fff" d="M770.67,624.07c-12.59-11.94-18.88-29.06-18.88-51.38v-6.47c0-5.13,4.16-9.28,9.28-9.28h29.33     c5.13,0,9.28,4.16,9.28,9.28v9.62c0,17.85,8.75,26.77,26.25,26.77c8.59,0,15.12-2.17,19.57-6.5c4.45-4.33,6.68-11.35,6.68-21.06     c0-11.54-3.07-21.71-9.21-30.51c-6.14-8.79-17.5-19.35-34.08-31.69c-20.88-15.75-35.46-29.98-43.75-42.72     c-8.29-12.73-12.43-27.1-12.43-43.11c0-21.78,6.45-38.64,19.34-50.59c12.9-11.94,31.62-17.91,56.19-17.91     c24.25,0,42.6,5.97,55.04,17.91c12.43,11.95,18.65,29.07,18.65,51.38v2.13c0,5.13-4.16,9.28-9.28,9.28H863.3     c-5.13,0-9.28-4.16-9.28-9.28v-4.89c0-9.45-2.15-16.34-6.45-20.67c-4.3-4.33-10.59-6.5-18.88-6.5c-16.89,0-25.33,8.8-25.33,26.38     c0,9.98,3.14,19.29,9.44,27.95c6.29,8.66,17.73,19.16,34.31,31.49c21.18,15.75,35.76,30.06,43.75,42.91     c7.98,12.86,11.97,27.95,11.97,45.27c0,22.58-6.53,39.9-19.57,51.97c-13.05,12.08-32.01,18.11-56.88,18.11     C801.83,641.98,783.25,636.01,770.67,624.07z"/><path fill="#fff" d="M938.57,376.7h25.32c5.55,0,10.05,4.5,10.05,10.05v227.01c0,5.55-4.5,10.05-10.05,10.05h-25.32     c-5.55,0-10.05-4.5-10.05-10.05V386.75C928.52,381.2,933.02,376.7,938.57,376.7z"/><path fill="#fff" d="M1009.43,598.52c-10.23-9.48-15.35-23.07-15.35-40.78V442.76c0-17.7,5.12-31.29,15.35-40.78     c10.23-9.48,25.09-14.22,44.59-14.22c19.49,0,34.36,4.74,44.59,14.22c10.23,9.48,15.35,23.07,15.35,40.78v8.7     c0,5.55-4.5,10.05-10.05,10.05h-17.91c-5.55,0-10.05-4.5-10.05-10.05v-10.88c0-14.37-6.94-21.56-20.83-21.56     c-13.89,0-20.83,7.19-20.83,21.56v119.67c0,14.17,6.94,21.25,20.83,21.25c13.89,0,20.83-7.08,20.83-21.25v-32.75     c0-5.55-4.5-10.05-10.05-10.05l0,0c-5.55,0-10.05-4.5-10.05-10.05v-11.14c0-5.55,4.5-10.05,10.05-10.05h38.01     c5.55,0,10.05,4.5,10.05,10.05v61.5c0,17.71-5.12,31.3-15.35,40.78c-10.24,9.48-25.1,14.22-44.59,14.22     C1034.53,612.73,1019.67,608,1009.43,598.52z"/><path fill="#fff" d="M1150.16,405.75h26.05c4.44,0,8.36,2.92,9.63,7.17l31.65,105.96h0.63V415.8c0-5.55,4.5-10.05,10.05-10.05     h10.85c5.55,0,10.05,4.5,10.05,10.05v168.9c0,5.55-4.5,10.05-10.05,10.05h-18.18c-4.43,0-8.34-2.9-9.62-7.14l-39.53-130.83h-0.63     V584.7c0,5.55-4.5,10.05-10.05,10.05h-10.85c-5.55,0-10.05-4.5-10.05-10.05V415.8C1140.11,410.25,1144.61,405.75,1150.16,405.75z     "/><path fill="#fff" d="M1327.23,578.47c-8.28-7.66-12.42-18.66-12.42-32.98v-124.9c0-5.55,4.5-10.05,10.05-10.05h12.42     c5.55,0,10.05,4.5,10.05,10.05v126.92c0,6.07,1.43,10.45,4.29,13.14c2.85,2.7,6.95,4.04,12.27,4.04c5.32,0,9.41-1.35,12.27-4.04     c2.85-2.69,4.29-7.08,4.29-13.14V420.59c0-5.55,4.5-10.05,10.05-10.05h11.24c5.55,0,10.05,4.5,10.05,10.05v124.9     c0,14.32-4.14,25.32-12.42,32.98c-8.28,7.67-20.3,11.5-36.07,11.5C1347.53,589.97,1335.51,586.14,1327.23,578.47z"/><path fill="#fff" d="M1434.19,428.61c0-5.55,4.5-10.05,10.05-10.05h34.18c14.92,0,26.12,3.42,33.58,10.27     c7.46,6.85,11.19,16.88,11.19,30.11v16.1c0,13.23-3.73,23.26-11.19,30.11c-7.47,6.85-18.66,10.27-33.58,10.27h-4.15     c-5.55,0-10.05,4.5-10.05,10.05v46.42c0,5.55-4.5,10.05-10.05,10.05h-9.93c-5.55,0-10.05-4.5-10.05-10.05V428.61z      M1478.42,492.08c4.92,0,8.6-1.17,11.06-3.5c2.46-2.33,3.69-6.3,3.69-11.9V457.3c0-5.6-1.23-9.57-3.69-11.9     c-2.46-2.33-6.14-3.5-11.06-3.5h-4.15c-5.55,0-10.05,4.5-10.05,10.05v30.08c0,5.55,4.5,10.05,10.05,10.05H1478.42z"/></g><g><rect width="589.36" height="637.92" x="1985.92" y="480.17" fill="#2c7efe"/><rect width="589.36" height="637.92" x="1972.33" y="466.99" fill="#fff"/><rect width="589.36" height="111.76" x="1972.33" y="466.99" fill="#84b2fe"/><circle cx="2058.15" cy="522.87" r="22.64" fill="#fff" transform="rotate(-76.714 2058.31 522.852)"/><circle cx="2129.83" cy="522.87" r="22.64" fill="#fff" transform="rotate(-45.001 2129.838 522.9)"/><circle cx="2201.52" cy="522.87" r="22.64" fill="#fff" transform="rotate(-45.001 2201.527 522.9)"/><circle cx="2264.31" cy="712.55" r="89.78" fill="#84b2fe" transform="rotate(-82.981 2264.34 712.548)"/><path fill="#dfe6ff" d="M2347.91,712.55c0,13.76-3.32,26.74-9.21,38.19c-13.87,26.97-41.98,45.41-74.39,45.41    c-46.17,0-83.6-37.43-83.6-83.6c0-29.74,15.53-55.86,38.93-70.68c12.92-8.19,28.24-12.92,44.67-12.92    C2310.48,628.95,2347.91,666.38,2347.91,712.55z"/><path fill="#fff" d="M2347.91,712.55c0,13.76-3.32,26.74-9.21,38.19c-10.39,4.23-21.76,6.57-33.67,6.57    c-49.31,0-89.28-39.97-89.28-89.28c0-9.1,1.36-17.88,3.89-26.15c12.92-8.19,28.24-12.92,44.67-12.92    C2310.48,628.95,2347.91,666.38,2347.91,712.55z"/><path fill="#2c7efe" d="M2264.21,642.15c23.87,0,43.21,19.35,43.21,43.21c0,11.98-4.87,22.82-12.74,30.64     c-7.81,7.77-18.58,12.57-30.47,12.57s-22.65-4.8-30.47-12.57c-7.87-7.83-12.75-18.67-12.75-30.64     C2221,661.49,2240.35,642.15,2264.21,642.15z"/><path fill="#2c7efe" d="M2201.63,749.79c13.67,19.91,36.6,32.98,62.58,32.98s48.91-13.06,62.58-32.98     c-6.89-10-16.11-18.27-26.89-24.02c-9.15,9.1-21.76,14.73-35.69,14.73s-26.54-5.63-35.69-14.73     C2217.75,731.52,2208.52,739.79,2201.63,749.79z"/><path fill="#84b2fe" d="M2462.6,840.2h-396.58c-14.62,0-26.47,11.85-26.47,26.47l0,0c0,14.62,11.85,26.47,26.47,26.47h396.58    c14.62,0,26.47-11.85,26.47-26.47l0,0C2489.07,852.06,2477.22,840.2,2462.6,840.2z"/><path fill="#2c7efe" d="M2241.46,877.86H2069.9c-6.18,0-11.18-5.01-11.18-11.18l0,0c0-6.18,5.01-11.18,11.18-11.18h171.56    c6.18,0,11.18,5.01,11.18,11.18l0,0C2252.64,872.85,2247.63,877.86,2241.46,877.86z"/><path fill="#2c7efe" d="M2406.29,877.86h-115.93c-6.18,0-11.18-5.01-11.18-11.18l0,0c0-6.18,5.01-11.18,11.18-11.18h115.93    c6.18,0,11.18,5.01,11.18,11.18l0,0C2417.48,872.85,2412.47,877.86,2406.29,877.86z"/><path fill="#84b2fe" d="M2462.6,918.56h-396.58c-14.62,0-26.47,11.85-26.47,26.47l0,0c0,14.62,11.85,26.47,26.47,26.47h396.58    c14.62,0,26.47-11.85,26.47-26.47l0,0C2489.07,930.41,2477.22,918.56,2462.6,918.56z"/><circle cx="2076.06" cy="945.03" r="12.78" fill="#2c7efe" transform="rotate(-45.001 2076.057 945.062)"/><circle cx="2118.05" cy="945.03" r="12.78" fill="#2c7efe" transform="rotate(-45.001 2118.05 945.062)"/><circle cx="2160.04" cy="945.03" r="12.78" fill="#2c7efe" transform="rotate(-80.781 2160.063 944.999)"/><circle cx="2202.04" cy="945.03" r="12.78" fill="#2c7efe" transform="rotate(-80.781 2202.056 944.998)"/><circle cx="2244.03" cy="945.03" r="12.78" fill="#2c7efe" transform="rotate(-80.781 2244.049 944.997)"/><circle cx="2286.02" cy="945.03" r="12.78" fill="#2c7efe" transform="rotate(-80.781 2286.042 944.997)"/><circle cx="2328.01" cy="945.03" r="12.78" fill="#2c7efe" transform="rotate(-80.781 2328.034 944.996)"/><path fill="#2c7efe" d="M2330.04,1015.48h-131.46c-14.62,0-26.47,11.85-26.47,26.47l0,0c0,14.62,11.85,26.47,26.47,26.47h131.46    c14.62,0,26.47-11.85,26.47-26.47l0,0C2356.51,1027.33,2344.66,1015.48,2330.04,1015.48z"/></g><g><path fill="#ffcdad" d="M1858.67,1659.52c3.32,13.01,8.38,17.44,9.28,27.47c1.21,13.45-6.21,24.33-10.14,30.09     c-21.95,32.19-75.99,29.03-79.24,28.8c48.7-31.96,57.74-55.48,56.51-71.33c-1.16-14.94-11.92-29.22-5.18-38.08     c5.3-6.97,18.07-6.14,27.14-4.65C1856.25,1638.27,1855.78,1648.18,1858.67,1659.52z"/><path fill="#0643a3" d="M1861.67,1669.45c-7.05,0.17-7.86,17.75-18.28,33.17c-7.3,10.81-21.57,23.87-52.48,30.83     c-10.64,0.71-35.14,2.96-36.28,10.63c-0.81,5.48,10.56,11.89,18.26,14.6c20.12,7.07,39.93-2.52,47.92-6.38     c6.5-3.14,16.77-9.13,26.93-20.21c1.44,7.01,2.88,14.03,4.32,21.04c0.24,0.29,2.05,2.42,4.82,2.35c2.67-0.07,5.13-2.17,5.84-5.16     c0-3.25,0.22-6.88,0.8-10.8c1.32-8.83,4.07-16.04,6.64-21.33c2.12-4.01,7.28-15.11,4.42-28.52     C1872.91,1681.78,1867.64,1669.31,1861.67,1669.45z"/><path fill="#0643a3" d="M1825.58,1280.5c-11,37.55-20.83,82.96-25.16,134.95c-8.48,101.82,7.65,186.85,24.02,244.73     c2.67,1.54,10.14,5.41,20.27,4.62c10.47-0.81,17.41-6.1,19.75-8.05c-10.1-42.7-19.19-106.79-3.43-179.55     c25.17-116.24,97.77-180.91,69.76-219.58c-14.43-19.91-52.57-28.82-77.77-14.87C1834.85,1252.82,1827.95,1272.27,1825.58,1280.5z     "/><path fill="#ffcdad" d="M1718.18,1175.95c-10.06-3.1-11.68,0.36-22.27-2.53c-5.52-1.51-18.62-5.01-24.28-16.29    c-6.09-12.14-2.2-29.49,5.05-32.08c1.69-0.6,3.25-0.3,3.61-0.22c6.17,1.34,5.53,10.69,12.53,17.4c5.71,5.47,14.37,7.14,16.22,4.91    c1.89-2.28-4.25-7.62-2.16-14.82c0.52-1.8,2.09-5.64,4.19-5.72c4.59-0.18,3.26,17.84,14.85,28.55    c10.63,9.83,23.49,4.89,26.53,12.59c2.59,6.55-3.72,17.49-11.02,19.06C1734.46,1188.33,1731.89,1180.18,1718.18,1175.95z"/><path fill="#8183f1" d="M1724.66,1174.07c-2.88,10.22,0.18,18.69,1.27,21.37c11.2,6.73,65.95,38.1,125.44,18.08    c61.47-20.69,106.91-89.16,92.22-119.59c-8.66-17.93-40.26-26.89-56.87-16.83c-16.9,10.24-5.11,32.21-22.78,56.94    c-22.06,30.89-70.36,38.51-104.14,32.58c-11.09-1.95-19.92-5.23-25.77-7.78C1731.78,1160.93,1726.94,1165.96,1724.66,1174.07z"/><path fill="#ffcdad" d="M2045.8,1593.71c8.66,0.19,21.31-2.01,28.73-1.39c9.96,0.83,21.25,10.56,24.84,15.14     c20.06,25.58,15.91,55.32,5.49,83.06c-2.35-32.35-26.55-68.11-53.22-72.93c-25.14-4.55-32.12-0.9-40.2-14.68     c-6.36-10.85,11.09-12.97,13.12-19.56C2030.27,1588.67,2038.24,1593.54,2045.8,1593.71z"/><path fill="#084db2" d="M2057.44,1593.96c-1.46,9.01,15.48,13.37,26.51,24.83c7.73,8.03,19.76,38.61,14,55.26     c-0.73,10.01-8.61,30.88-0.16,37.54c6.04,4.75,13.6-6.14,16.85-11.28c8.49-13.42,9.58-31.34,7.67-46.76     c-1.56-12.54-4.21-22.05-10.46-32.4c6.65,0.65,13.06,1.75,19.6,3.09c1.64-1.07,2.69-1.49,3.23-3.82s-0.56-5.57-2.8-7.11     c-3.29-1.42-6.18-2.44-9.28-4.24c-6.97-4.07-11.04-6.03-18.27-11.8c-5.58-4.45-15.46-10.11-24.49-9.79     C2074.52,1587.65,2058.68,1586.32,2057.44,1593.96z"/><path fill="#084db2" d="M1879.43,1291.04c-10.02,44.49-13.99,101.43-5.54,141.58c16.54,78.64,73.87,172.13,154.75,186.56     c5.69-4.8,11.29-9.12,13.44-15.54c2.28-6.8,1.66-10.49,0.12-18.43c-56.89-1.65-83.44-71-93.78-114.13     c-16.53-68.9,55.34-175.95,26.31-210.49c-14.95-17.79-53.16-21.38-72.63-8.96C1888.05,1260.6,1881.62,1281.31,1879.43,1291.04z"/><path fill="#8183f1" d="M1987.83,1228.98c-2.18,13.1-4.88,26.63-8.08,40.52c-16.1,6.34-48.22,16.37-88.39,11.2    c-25.78-3.32-45.97-11.75-59.17-18.62c9.48-22.01,16.38-42.8,21.44-62c2.73-10.38,4.92-20.28,6.67-29.66    c13.16-70.24,2.93-114.1,31.84-133.33c18.74-12.46,42.71-7.14,43.86-6.88c20.89,4.88,32.8,21.06,38.76,29.1    C1996.16,1088.2,2000.92,1150.84,1987.83,1228.98z"/><path fill="#f9bb98" d="M1906.35,1013.65c-3.47,12.29-2.29,23.02-1.01,29.42c0.81,8.12,7.34,14.46,15.18,15.02    c8.38,0.59,16.13-5.6,17.42-14.26c1.82-9.56,3.32-20.58,3.93-32.84c0.71-14.24,0.06-27-1.13-37.85    C1936.12,975.5,1913.72,987.56,1906.35,1013.65z"/><path fill="#f9d5c0" d="M1894.61,956.57c-5.64,4.29-7.76,9.98-10.05,16.12c-1.96,5.27-12.88,34.58,3.36,48.87    c11.25,9.9,30.17,7.87,42.22,0.18c17.99-11.5,26.88-39.64,13.34-57.16C1931.98,949.72,1907.59,946.69,1894.61,956.57z"/><path fill="#fff" d="M1889.21,1009.01c3.18,1.85,8.61,4.38,15.85,4.93c5.21,0.4,9.66-0.36,12.83-1.18    c-0.87,1.1-5.45,6.67-12.46,7.3C1898.57,1020.67,1892.14,1016.31,1889.21,1009.01z"/><path fill="#66f" d="M1941.72,1030.66"/><path fill="#656ce5" d="M1893.72,1197.18c48.62-1.37,84.72-18.6,92.52-43.38c0.89-2.8,5.91-20.02-2.46-34.48    c-2.33-4.01-5.26-7.09-8.55-9.57c-0.67,13.36,2.5,31.09-3.42,45.85C1965.37,1171.64,1946.38,1188.76,1893.72,1197.18z"/><path fill="#6a70e5" d="M1987.83,1228.98c-2.18,13.1-4.88,26.63-8.08,40.52c-16.1,6.34-48.22,16.37-88.39,11.2    c-25.78-3.32-45.97-11.75-59.17-18.62c9.48-22.01,16.38-42.8,21.44-62c28.66,2.94,57.32,5.87,85.98,8.81    C1955.68,1215.58,1971.75,1222.28,1987.83,1228.98z"/><g><path fill="#f4629d" d="M2087.96,1265.57L2087.96,1265.57c7.63-19.56-2.05-41.6-21.61-49.23l-85.56-33.36     c-19.56-7.63-41.6,2.05-49.23,21.61h0c-7.63,19.56,2.05,41.6,21.61,49.23l85.56,33.36     C2058.29,1294.81,2080.33,1285.13,2087.96,1265.57z"/><path fill="#153663" d="M1576.1,1065.82L1576.1,1065.82c1.69-4.33,8.66-5.66,15.58-2.97l37.34,14.56      c6.91,2.7,11.15,8.39,9.46,12.73l0,0c-1.69,4.33-8.66,5.66-15.58,2.97l-37.34-14.56      C1578.65,1075.85,1574.41,1070.15,1576.1,1065.82z"/><path fill="#fee7ed" d="M1603.01,1084.33l5.77-14.79c9.63-1.94,22.69-3.65,38.78-3.35c22.33,0.42,41.54,4.55,54.51,8.13      c-5.48,14.07-10.97,28.14-16.45,42.2L1603.01,1084.33z"/><path fill="#fee7ed" d="M1608.3,1070.76l-5.77,14.79c5.78,7.95,14.23,18.04,26.28,28.71c16.73,14.8,33.66,24.77,45.63,30.91      c5.48-14.07,10.97-28.14,16.45-42.2L1608.3,1070.76z"/><path fill="#f8ea14" d="M1680.21,1079.46L1680.21,1079.46c2.55-6.55,13.09-8.55,23.53-4.48l288.55,112.49      c10.44,4.07,16.84,12.68,14.29,19.22l0,0c-2.55,6.55-13.09,8.55-23.53,4.48l-288.55-112.49      C1684.05,1094.61,1677.65,1086.01,1680.21,1079.46z"/><path fill="#f8cd12" d="M1670.96,1103.17L1670.96,1103.17c2.55-6.55,13.09-8.55,23.53-4.48l288.55,112.49      c10.44,4.07,16.84,12.68,14.29,19.22l0,0c-2.55,6.55-13.09,8.55-23.53,4.48l-288.55-112.49      C1674.81,1118.32,1668.41,1109.71,1670.96,1103.17z"/><path fill="#f09c23" d="M1661.83,1126.6L1661.83,1126.6c2.55-6.55,13.09-8.55,23.53-4.48l288.55,112.49      c10.44,4.07,16.84,12.68,14.29,19.22l0,0c-2.55,6.55-13.09,8.55-23.53,4.48l-288.55-112.49      C1665.68,1141.75,1659.28,1133.14,1661.83,1126.6z"/><rect width="76.03" height="43.49" x="1959.47" y="1208.56" fill="#fff" transform="rotate(111.297 1997.507 1230.333)"/><g><linearGradient id="a" x1="314.913" x2="390.946" y1="-827.95" y2="-827.95" gradientTransform="scale(-1 1) rotate(68.698 -2312.21 -1507.574)" gradientUnits="userSpaceOnUse"><stop offset="0" stop-color="#dfe6ff"/><stop offset="1" stop-color="#84b2fe"/></linearGradient><polygon fill="url(#a)" points="1957.27 1255.43 1969.57 1260.22 1997.19 1189.38 1984.89 1184.59"/><linearGradient id="b" x1="314.911" x2="390.944" y1="-806.318" y2="-806.318" gradientTransform="scale(-1 1) rotate(68.698 -2312.21 -1507.574)" gradientUnits="userSpaceOnUse"><stop offset="0" stop-color="#dfe6ff"/><stop offset="1" stop-color="#84b2fe"/></linearGradient><polygon fill="url(#b)" points="1977.21 1263.2 1989.94 1268.16 2017.56 1197.32 2004.83 1192.36"/><linearGradient id="c" x1="314.91" x2="390.943" y1="-784.459" y2="-784.459" gradientTransform="scale(-1 1) rotate(68.698 -2312.21 -1507.574)" gradientUnits="userSpaceOnUse"><stop offset="0" stop-color="#dfe6ff"/><stop offset="1" stop-color="#84b2fe"/></linearGradient><polygon fill="url(#c)" points="1997.58 1271.14 2010.31 1276.1 2037.93 1205.26 2025.2 1200.3"/></g></g><g><path fill="#ffcdad" d="M1855.96,1217.02c-10.52-0.38-11.19,3.39-22.16,3.36c-5.72-0.02-19.29,0.01-27.68-9.4     c-9.04-10.13-9.8-27.9-3.48-32.29c1.47-1.02,3.06-1.13,3.43-1.15c6.3-0.32,8.12,8.89,16.63,13.54     c6.93,3.79,15.73,3.15,16.94,0.52c1.23-2.69-6.09-6.25-5.94-13.74c0.04-1.87,0.55-5.99,2.56-6.62     c4.38-1.37,7.79,16.37,21.77,23.7c12.82,6.72,23.95-1.39,28.89,5.25c4.2,5.65,0.96,17.85-5.68,21.28     C1874.9,1224.73,1870.3,1217.53,1855.96,1217.02z"/><path fill="#8183f1" d="M1861.73,1213.51c-0.12,10.62,5.04,18,6.79,20.31c98.97,22.23,176.15-33.82,181.18-86.88     c3.59-37.87-28.98-80.14-76.67-105.09c-16.52-1.93-31.27,4.2-37.57,15.51c-3.94,7.07-4.88,16.69-1.49,24.98     c6.94,16.94,27.28,16.87,41.26,27.41c3.29,2.48,6.22,5.56,8.55,9.57c8.38,14.46,3.35,31.69,2.46,34.48     c-7.81,24.78-43.9,42.01-92.52,43.38c-8.6,0.24-17.61-0.01-26.91-0.81C1865.18,1198.98,1861.82,1205.09,1861.73,1213.51z"/></g><path fill="#060352" d="M1881.11,966.91c-8.33-5.61-8.18-27.45,1.49-40.87c19.33-26.82,80.8-25.71,102.05,1.49    c15.33,19.62-2.45,37.21,10.79,67.18c19.46,44.06,74.18,42.93,74.11,64.56c-0.07,22.24-58.02,55.26-100.41,35.05    c-1.48-0.7-31.57-15.58-36.1-43.54c-4.41-27.25,19.42-42.43,10.19-65.46c-4.02-10.02-13.57-19.69-24.75-22.57    C1901.18,958.3,1889.48,972.55,1881.11,966.91z"/></g><g><path fill="#00aeef" d="M2025.81,1754.74H1155.9c-32.35,0-58.57,24.64-58.57,55.03c0,30.39,26.23,55.04,58.57,55.04h869.92    c32.35,0,58.57-24.64,58.57-55.04C2084.39,1779.38,2058.16,1754.74,2025.81,1754.74z"/><path fill="#00aeef" d="M1599.64,1864.81H563.55c-52.49-273.92-104.98-547.84-157.47-821.76h1048.27    c16.64,0,30.95,11.81,34.11,28.15l145.29,752.29C1637.89,1844.92,1621.47,1864.81,1599.64,1864.81z"/><path fill="#62cbec" d="M1556.11,1864.81H548.73c-16.67,0-30.98-11.83-34.12-28.2c-48.05-250.76-96.1-501.53-144.16-752.29    c-4.1-21.42,12.31-41.27,34.12-41.27h1006.25c16.65,0,30.95,11.81,34.11,28.15l145.29,752.29    C1594.35,1844.92,1577.93,1864.81,1556.11,1864.81z"/><path fill="#fff" d="M968.41,1433.28c-18.99-24.93-23.16-50.88-17.48-72.88c-75.32,19.59-120.99,112.66-55.91,198.08    c114.19,86.96,241.99-23.93,189.76-138.99C1062.71,1453.24,1013.87,1467.9,968.41,1433.28z"/></g><g><path fill="#62cbec" d="M441.5,1691.45c69.41-34.55,104.5-271.06,4.25-298.45c-6.53-1.78-43.04-11.76-86.39,8.63      c-46.71,21.97-72.16,65.47-75.08,70.47C222.13,1578.3,371.57,1726.26,441.5,1691.45z"/><path fill="#bbe6f9" d="M433.48,1701.85c69.41-34.55,104.5-271.06,4.25-298.44c-6.53-1.78-43.04-11.76-86.39,8.63      c-46.71,21.97-72.16,65.47-75.09,70.47C214.11,1588.7,363.54,1736.66,433.48,1701.85z"/><path fill="#fff" d="M473.11,1757.54c0.04-0.03,0.08-0.05,0.11-0.08c1.63-1.2,2.28-3.02,1.45-4.06        c-38.53-48.51-66.33-104.34-82.63-165.93c-13.03-49.24-18.66-102.22-16.74-157.45c0.05-1.49-1.39-2.25-3.22-1.7        c-1.83,0.55-3.36,2.21-3.41,3.7c-1.93,55.63,3.74,108.98,16.86,158.59c16.41,62.04,44.41,118.27,83.22,167.13        C469.57,1758.76,471.5,1758.66,473.11,1757.54z"/><path fill="#fff" d="M375.18,1518.12c0.63-0.44,1.17-1,1.52-1.64c0.87-1.58,0.27-3.01-1.34-3.19        c-14.85-1.66-27.81-6.06-38.54-13.06c-10.39-6.79-18.23-15.75-23.31-26.62c-0.57-1.22-2.44-1.38-4.18-0.36        c-1.74,1.02-2.69,2.84-2.12,4.05c5.33,11.43,13.58,20.84,24.5,27.98c11.27,7.36,24.9,11.98,40.5,13.73        C373.16,1519.12,374.26,1518.76,375.18,1518.12z"/><path fill="#fff" d="M395.17,1621.81c0.89-0.62,1.59-1.49,1.84-2.4c0.42-1.57-0.68-2.65-2.46-2.42        c-16.42,2.17-31.72,1.54-45.45-1.89c-13.31-3.32-24.59-9.13-33.53-17.27c-1-0.91-3.05-0.6-4.59,0.71        c-1.53,1.3-1.97,3.1-0.96,4.01c9.4,8.55,21.25,14.65,35.24,18.15c14.44,3.6,30.51,4.27,47.77,1.99        C393.76,1622.58,394.52,1622.26,395.17,1621.81z"/><path fill="#fff" d="M397.45,1552.98c12.57-8.75,24.11-18.65,34.44-29.54c12.71-13.41,23.02-27.75,30.65-42.62        c0.81-1.58,0.14-2.97-1.5-3.09c-1.64-0.12-3.63,1.06-4.44,2.65c-7.26,14.15-17.07,27.8-29.16,40.55        c-12.48,13.17-26.84,24.82-42.69,34.63c-1.72,1.07-2.6,2.88-1.97,4.06c0.63,1.18,2.54,1.27,4.26,0.21        C390.57,1557.63,394.05,1555.34,397.45,1552.98z"/><path fill="#fff" d="M419.64,1672.05c0.16-0.11,0.32-0.24,0.47-0.37c14.68-12.77,27.11-26.88,36.95-41.93        c9.54-14.58,16.23-29.43,19.9-44.14c0.39-1.57-0.74-2.62-2.53-2.36c-1.79,0.26-3.56,1.75-3.95,3.32        c-3.49,14-9.86,28.13-18.93,42c-9.36,14.32-21.19,27.74-35.16,39.9c-1.51,1.32-1.91,3.11-0.88,3.99        C416.43,1673.26,418.19,1673.06,419.64,1672.05z"/><g><path fill="#8bdcef" d="M495.31,1705.03c58.83,26.82,230.44-74.63,195.54-153.95c-2.27-5.16-14.98-34.05-50.95-51.42      c-38.76-18.72-80.3-12.37-85.07-11.64C453.41,1503.53,436.04,1678.01,495.31,1705.03z"/><path fill="#d2edf7" d="M484.35,1705.29c58.82,26.82,230.44-74.63,195.54-153.95c-2.27-5.16-14.98-34.05-50.95-51.42      c-38.76-18.72-80.3-12.37-85.07-11.64C442.46,1503.79,425.09,1678.27,484.35,1705.29z"/><path fill="#fff" d="M469.09,1760.21c0.04,0.01,0.07,0.02,0.11,0.03c1.63,0.43,3.15-0.1,3.39-1.19        c11.19-50.43,32.75-97.75,64.09-140.64c25.06-34.29,56.41-65.76,93.19-93.51c0.99-0.75,0.73-2.08-0.59-2.98        c-1.32-0.9-3.19-1.02-4.18-0.27c-37.05,27.96-68.63,59.65-93.87,94.19c-31.57,43.2-53.28,90.86-64.56,141.66        C466.45,1758.55,467.52,1759.75,469.09,1760.21z"/><path fill="#fff" d="M572.75,1571.06c0.61,0.18,1.26,0.23,1.86,0.12c1.48-0.26,2.09-1.4,1.36-2.54        c-6.72-10.49-10.68-21.2-11.77-31.82c-1.06-10.3,0.62-20.08,5-29.08c0.49-1.01-0.39-2.3-1.96-2.9        c-1.57-0.59-3.25-0.25-3.74,0.75c-4.6,9.46-6.37,19.74-5.26,30.56c1.15,11.17,5.31,22.42,12.37,33.44        C571.05,1570.28,571.86,1570.8,572.75,1571.06z"/><path fill="#fff" d="M516.09,1638.45c0.87,0.25,1.8,0.25,2.52-0.07c1.24-0.55,1.36-1.83,0.28-2.86        c-10.03-9.5-17.65-19.74-22.64-30.43c-4.84-10.37-7-20.72-6.42-30.79c0.07-1.13-1.22-2.29-2.87-2.6        c-1.65-0.31-3.04,0.35-3.1,1.48c-0.6,10.57,1.67,21.46,6.75,32.35c5.25,11.24,13.25,22,23.79,31.98        C514.85,1637.95,515.45,1638.27,516.09,1638.45z"/><path fill="#fff" d="M561.87,1603.79c12.27,3.55,24.74,5.83,37.22,6.79c15.36,1.19,30.06,0.34,43.7-2.53        c1.45-0.31,2-1.47,1.21-2.6c-0.78-1.13-2.59-1.79-4.05-1.49c-12.98,2.73-26.97,3.54-41.58,2.4        c-15.08-1.17-30.17-4.36-44.85-9.47c-1.59-0.55-3.23-0.17-3.67,0.86c-0.43,1.03,0.51,2.31,2.1,2.87        C555.24,1601.78,558.55,1602.83,561.87,1603.79z"/><path fill="#fff" d="M496.39,1680.69c0.16,0.05,0.32,0.08,0.49,0.11c15.98,2.8,31.64,3.44,46.56,1.92        c14.45-1.48,27.59-4.94,39.04-10.29c1.22-0.57,1.31-1.86,0.2-2.88c-1.11-1.02-3-1.39-4.22-0.82        c-10.9,5.09-23.4,8.38-37.15,9.79c-14.19,1.45-29.1,0.84-44.3-1.82c-1.65-0.29-3.02,0.39-3.05,1.53        C493.92,1679.24,494.98,1680.28,496.39,1680.69z"/></g><g><path fill="#84b2fe" d="M585.05,1777.42c0,64.22-52.06,116.27-116.27,116.27c-7.77,0-15.36-0.76-22.7-2.22     c-53.35-10.56-93.57-57.61-93.57-114.05c0-11.43,1.65-22.47,4.72-32.91h223.09C583.4,1754.95,585.05,1765.99,585.05,1777.42z"/><path fill="#b0cdf7" d="M564.78,1775.22c0,64.22-52.06,116.27-116.27,116.27c-0.82,0-1.63-0.01-2.44-0.03     c-53.35-10.56-93.57-57.61-93.57-114.05c0-11.43,1.65-22.47,4.72-32.91h203.45C563.36,1754.29,564.78,1764.59,564.78,1775.22z"/><path fill="#84b2fe" d="M586.64,1753.29H350.92c-2.37,0-4.29-1.92-4.29-4.29v-13.36c0-2.37,1.92-4.29,4.29-4.29h235.72     c2.37,0,4.29,1.92,4.29,4.29V1749C590.93,1751.37,589.01,1753.29,586.64,1753.29z"/></g></g></svg>