<svg width="1159" height="977" viewBox="0 0 1159 977" fill="none" xmlns="http://www.w3.org/2000/svg">
<g opacity="0.08">
<path opacity="0.010101" d="M366.82 467.874L558.687 107.024C562.45 99.9479 570.342 96.099 578.234 97.4907L980.713 168.459C988.606 169.85 994.705 176.166 995.821 184.103L1052.7 588.813C1053.81 596.75 1049.69 604.502 1042.49 608.016L675.163 787.173C667.959 790.686 659.313 789.162 653.745 783.396L369.847 489.411C364.279 483.646 363.057 474.951 366.82 467.874Z" stroke="url(#paint0_linear_3299_546676)" stroke-width="3"/>
<path opacity="0.020202" d="M362.779 462.85L560.528 106.102C564.414 99.0923 572.371 95.3817 580.238 96.911L980.633 174.74C988.501 176.269 994.489 182.691 995.465 190.645L1045.17 595.494C1046.15 603.449 1041.89 611.128 1034.63 614.515L664.958 786.897C657.694 790.284 649.075 788.609 643.609 782.747L365.43 484.436C359.964 478.574 358.894 469.86 362.779 462.85Z" stroke="url(#paint1_linear_3299_546676)" stroke-width="3"/>
<path opacity="0.030303" d="M358.851 457.84L562.397 105.29C566.404 98.3489 574.425 94.7777 582.264 96.4441L980.459 181.083C988.298 182.749 994.173 189.274 995.011 197.245L1037.56 602.105C1038.4 610.076 1034.01 617.68 1026.69 620.939L654.794 786.518C647.472 789.778 638.884 787.952 633.521 781.996L361.125 479.469C355.762 473.513 354.844 464.781 358.851 457.84Z" stroke="url(#paint2_linear_3299_546676)" stroke-width="3"/>
<path opacity="0.040404" d="M355.036 452.847L564.292 104.587C568.419 97.7171 576.501 94.2866 584.311 96.0895L980.189 187.485C987.998 189.288 993.758 195.914 994.457 203.899L1029.87 608.644C1030.57 616.628 1026.04 624.154 1018.67 627.286L644.673 786.036C637.296 789.168 628.741 787.193 623.483 781.144L356.931 474.512C351.673 468.463 350.908 459.717 355.036 452.847Z" stroke="url(#paint3_linear_3299_546676)" stroke-width="3"/>
<path opacity="0.050505" d="M351.331 447.871L566.209 103.993C570.457 97.1966 578.597 93.9075 586.374 95.8464L979.822 193.944C987.598 195.883 993.242 202.609 993.801 210.604L1022.09 615.109C1022.65 623.104 1017.99 630.55 1010.56 633.552L634.596 785.452C627.165 788.455 618.645 786.331 613.494 780.191L352.848 469.566C347.696 463.426 347.084 454.667 351.331 447.871Z" stroke="url(#paint4_linear_3299_546676)" stroke-width="3"/>
<path opacity="0.0606061" d="M347.74 442.911L568.152 103.507C572.518 96.7849 580.714 93.6384 588.456 95.7127L979.36 200.455C987.102 202.53 992.627 209.353 993.047 217.357L1014.23 621.496C1014.65 629.499 1009.86 636.863 1002.38 639.735L624.568 784.765C617.085 787.637 608.604 785.364 603.561 779.136L348.879 464.63C343.835 458.401 343.375 449.633 347.74 442.911Z" stroke="url(#paint5_linear_3299_546676)" stroke-width="3"/>
<path opacity="0.0707071" d="M344.258 437.974L570.113 103.13C574.595 96.4857 582.845 93.4828 590.55 95.6919L978.798 207.02C986.503 209.23 991.908 216.148 992.188 224.158L1006.28 627.807C1006.56 635.817 1001.65 643.096 994.122 645.837L614.585 783.977C607.054 786.718 598.614 784.298 593.68 777.983L345.017 459.709C340.083 453.393 339.776 444.619 344.258 437.974Z" stroke="url(#paint6_linear_3299_546676)" stroke-width="3"/>
<path opacity="0.0808081" d="M340.886 433.062L572.092 102.865C576.689 96.2999 584.991 93.4414 592.655 95.7847L978.138 213.639C985.803 215.982 991.087 222.994 991.227 231.007L998.262 634.042C998.401 642.056 993.365 649.248 985.787 651.857L604.652 783.092C597.074 785.702 588.678 783.135 583.855 776.734L341.265 454.807C336.442 448.406 336.289 439.627 340.886 433.062Z" stroke="url(#paint7_linear_3299_546676)" stroke-width="3"/>
<path opacity="0.0909091" d="M337.624 428.174L574.088 102.709C578.799 96.2247 587.149 93.5116 594.772 95.9883L977.379 220.305C985.002 222.782 990.162 229.885 990.162 237.9V640.197C990.162 648.212 985.002 655.315 977.379 657.791L594.772 782.108C587.149 784.585 578.799 781.872 574.088 775.388L337.624 449.922C332.913 443.438 332.913 434.658 337.624 428.174Z" stroke="url(#paint8_linear_3299_546676)" stroke-width="3"/>
<path opacity="0.10101" d="M334.47 423.312L576.098 102.661C580.921 96.2606 589.317 93.6935 596.895 96.3029L976.52 227.018C984.098 229.627 989.134 236.819 988.994 244.833L981.987 646.27C981.847 654.284 976.563 661.296 968.898 663.639L584.943 781.026C577.279 783.369 568.977 780.511 564.38 773.945L334.09 445.057C329.493 438.492 329.646 429.713 334.47 423.312Z" stroke="url(#paint9_linear_3299_546676)" stroke-width="3"/>
<path opacity="0.111111" d="M331.426 418.481L578.121 102.725C583.055 96.4095 591.495 93.9894 599.027 96.7306L975.561 233.778C983.092 236.519 988.002 243.798 987.723 251.808L973.738 652.264C973.459 660.273 968.053 667.192 960.349 669.401L575.172 779.849C567.467 782.058 559.217 779.055 554.735 772.411L330.667 440.216C326.185 433.571 326.491 424.797 331.426 418.481Z" stroke="url(#paint10_linear_3299_546676)" stroke-width="3"/>
<path opacity="0.121212" d="M328.486 413.678L580.151 102.897C585.195 96.6682 593.676 94.3958 601.158 97.268L974.498 240.58C981.98 243.452 986.762 250.815 986.343 258.819L965.414 658.172C964.994 666.176 959.469 672.999 951.727 675.073L565.453 778.575C557.711 780.65 549.514 777.503 545.149 770.782L327.347 435.396C322.982 428.675 323.442 419.907 328.486 413.678Z" stroke="url(#paint11_linear_3299_546676)" stroke-width="3"/>
<path opacity="0.131313" d="M325.656 408.91L582.194 103.18C587.345 97.0407 595.864 94.9166 603.296 97.919L973.337 247.425C980.768 250.428 985.42 257.873 984.861 265.869L957.021 663.999C956.462 671.994 950.819 678.72 943.042 680.658L555.795 777.21C548.018 779.149 539.878 775.86 535.63 769.063L324.139 430.605C319.891 423.808 320.504 415.05 325.656 408.91Z" stroke="url(#paint12_linear_3299_546676)" stroke-width="3"/>
<path opacity="0.141414" d="M322.93 404.176L584.24 103.573C589.498 97.5241 598.053 95.5491 605.431 98.6807L972.071 254.31C979.449 257.442 983.971 264.968 983.272 272.952L948.558 669.74C947.859 677.724 942.099 684.35 934.29 686.153L546.195 775.752C538.386 777.555 530.303 774.124 526.176 767.254L321.034 425.842C316.906 418.972 317.672 410.225 322.93 404.176Z" stroke="url(#paint13_linear_3299_546676)" stroke-width="3"/>
<path opacity="0.151515" d="M320.31 399.478L586.292 104.075C591.655 98.1184 600.243 96.2929 607.565 99.5528L970.703 261.232C978.025 264.492 982.415 272.096 981.577 280.067L940.027 675.394C939.189 683.364 933.314 689.889 925.475 691.556L536.657 774.201C528.817 775.868 520.796 772.297 516.789 765.356L318.037 421.107C314.029 414.166 314.947 405.434 320.31 399.478Z" stroke="url(#paint14_linear_3299_546676)" stroke-width="3"/>
<path opacity="0.161616" d="M317.794 394.818L588.347 104.686C593.813 98.8245 602.431 97.1492 609.695 100.536L969.233 268.191C976.496 271.578 980.753 279.258 979.776 287.213L931.43 680.961C930.453 688.916 924.465 695.338 916.598 696.867L527.181 772.562C519.313 774.091 511.356 770.381 507.47 763.371L315.144 416.404C311.258 409.394 312.328 400.68 317.794 394.818Z" stroke="url(#paint15_linear_3299_546676)" stroke-width="3"/>
<path opacity="0.171717" d="M315.381 390.199L590.401 105.408C595.968 99.6423 604.615 98.1177 611.818 101.631L967.657 275.185C974.86 278.699 978.982 286.451 977.867 294.388L922.767 686.442C921.652 694.378 915.553 700.694 907.66 702.086L517.768 770.834C509.875 772.226 501.983 768.377 498.221 761.301L312.354 411.736C308.591 404.659 309.813 395.964 315.381 390.199Z" stroke="url(#paint16_linear_3299_546676)" stroke-width="3"/>
<path opacity="0.181818" d="M313.069 385.621L592.453 106.237C598.12 100.57 606.792 99.1965 613.933 102.835L965.977 282.21C973.118 285.849 977.104 293.672 975.85 301.588L914.042 691.832C912.788 699.748 906.58 705.956 898.664 707.21L508.42 769.018C500.504 770.272 492.681 766.286 489.042 759.145L309.667 407.101C306.029 399.96 307.402 391.288 313.069 385.621Z" stroke="url(#paint17_linear_3299_546676)" stroke-width="3"/>
<path opacity="0.191919" d="M310.859 381.086L594.501 107.176C600.266 101.609 608.961 100.387 616.037 104.149L964.192 289.266C971.268 293.029 975.117 300.92 973.725 308.813L905.254 697.132C903.863 705.025 897.547 711.124 889.61 712.24L499.138 767.117C491.202 768.232 483.449 764.11 479.936 756.907L307.082 402.504C303.569 395.3 305.093 386.654 310.859 381.086Z" stroke="url(#paint18_linear_3299_546676)" stroke-width="3"/>
<path opacity="0.20202" d="M308.75 376.595L596.546 108.222C602.407 102.756 611.122 101.686 618.132 105.571L962.304 296.349C969.313 300.235 973.024 308.192 971.495 316.06L896.409 702.34C894.88 710.208 888.459 716.196 880.504 717.172L489.927 765.129C481.972 766.106 474.293 761.849 470.905 754.585L304.601 397.944C301.213 390.68 302.889 382.061 308.75 376.595Z" stroke="url(#paint19_linear_3299_546676)" stroke-width="3"/>
<path opacity="0.212121" d="M306.741 372.154L598.582 109.379C604.539 104.016 613.27 103.098 620.211 107.105L960.31 303.461C967.251 307.468 970.822 315.489 969.155 323.329L887.506 707.459C885.84 715.298 879.315 721.173 871.344 722.011L480.784 763.061C472.813 763.898 465.209 759.508 461.949 752.187L302.219 393.427C298.959 386.105 300.785 377.517 306.741 372.154Z" stroke="url(#paint20_linear_3299_546676)" stroke-width="3"/>
<path opacity="0.222222" d="M304.828 367.759L600.609 110.641C606.658 105.382 615.404 104.617 622.274 108.745L958.209 310.595C965.079 314.723 968.509 322.805 966.707 330.614L878.545 712.482C876.742 720.292 870.116 726.052 862.132 726.75L471.71 760.908C463.726 761.606 456.2 757.084 453.069 749.707L299.936 388.949C296.805 381.572 298.78 373.017 304.828 367.759Z" stroke="url(#paint21_linear_3299_546676)" stroke-width="3"/>
<path opacity="0.232323" d="M303.015 363.415L602.626 112.012C608.765 106.86 617.524 106.248 624.321 110.495L956.004 317.754C962.801 322.001 966.09 330.142 964.151 337.918L869.532 717.415C867.593 725.191 860.867 730.835 852.872 731.394L462.711 758.677C454.716 759.236 447.27 754.583 444.268 747.152L297.754 384.517C294.751 377.086 296.875 368.567 303.015 363.415Z" stroke="url(#paint22_linear_3299_546676)" stroke-width="3"/>
<path opacity="0.242424" d="M301.299 359.123L604.631 113.49C610.859 108.446 619.627 107.987 626.349 112.352L953.695 324.933C960.417 329.298 963.563 337.495 961.489 345.236L860.468 722.252C858.393 729.993 851.57 735.519 843.566 735.938L453.786 756.366C445.782 756.785 438.419 752.003 435.547 744.521L295.67 380.13C292.798 372.648 295.07 364.167 301.299 359.123Z" stroke="url(#paint23_linear_3299_546676)" stroke-width="3"/>
<path opacity="0.252525" d="M299.677 354.884L606.62 115.074C612.935 110.14 621.71 109.833 628.355 114.315L951.278 332.13C957.923 336.611 960.926 344.862 958.716 352.566L851.351 726.993C849.142 734.698 842.223 740.103 834.213 740.383L444.934 753.977C436.925 754.256 429.646 749.347 426.904 741.815L293.682 375.79C290.941 368.258 293.361 359.819 299.677 354.884Z" stroke="url(#paint24_linear_3299_546676)" stroke-width="3"/>
<path opacity="0.262626" d="M298.146 350.7L608.59 116.764C614.991 111.94 623.769 111.787 630.335 116.384L948.753 339.343C955.319 343.94 958.177 352.242 955.834 359.906L842.184 731.639C839.841 739.303 832.829 744.587 824.815 744.727L436.157 751.511C428.143 751.651 420.951 746.615 418.342 739.037L291.788 371.497C289.178 363.919 291.745 355.523 298.146 350.7Z" stroke="url(#paint25_linear_3299_546676)" stroke-width="3"/>
<path opacity="0.272727" d="M296.712 346.573L610.545 118.56C617.029 113.849 625.809 113.849 632.293 118.56L946.126 346.573C952.61 351.284 955.323 359.634 952.846 367.257L832.973 736.189C830.496 743.812 823.393 748.973 815.378 748.973L427.46 748.973C419.445 748.973 412.342 743.812 409.865 736.189L289.992 367.257C287.515 359.634 290.228 351.284 296.712 346.573Z" stroke="url(#paint26_linear_3299_546676)" stroke-width="3"/>
<path opacity="0.282828" d="M295.366 342.505L612.477 120.462C619.042 115.865 627.82 116.018 634.221 120.841L943.389 353.816C949.79 358.639 952.357 367.036 949.748 374.614L823.714 740.643C821.104 748.221 813.912 753.257 805.899 753.117L418.838 746.361C410.824 746.221 403.812 740.937 401.469 733.272L288.286 363.068C285.943 355.403 288.801 347.102 295.366 342.505Z" stroke="url(#paint27_linear_3299_546676)" stroke-width="3"/>
<path opacity="0.292929" d="M294.114 338.496L614.388 122.468C621.033 117.987 629.808 118.293 636.123 123.227L940.548 361.07C946.864 366.005 949.284 374.445 946.543 381.976L814.413 744.999C811.672 752.53 804.393 757.44 796.383 757.16L410.298 743.678C402.288 743.398 395.369 737.993 393.16 730.289L286.675 358.933C284.466 351.229 287.469 342.978 294.114 338.496Z" stroke="url(#paint28_linear_3299_546676)" stroke-width="3"/>
<path opacity="0.30303" d="M292.948 334.547L616.275 124.577C622.996 120.212 631.764 120.671 637.993 125.715L937.6 368.332C943.828 373.376 946.101 381.857 943.229 389.339L805.07 749.255C802.198 756.737 794.834 761.519 786.83 761.1L401.836 740.923C393.833 740.504 387.009 734.978 384.935 727.237L285.155 354.851C283.08 347.109 286.227 338.912 292.948 334.547Z" stroke="url(#paint29_linear_3299_546676)" stroke-width="3"/>
<path opacity="0.313131" d="M291.871 330.663L618.135 126.791C624.932 122.543 633.69 123.156 639.83 128.308L934.545 375.603C940.685 380.755 942.809 389.274 939.806 396.705L795.686 753.415C792.684 760.846 785.238 765.498 777.243 764.939L393.457 738.102C385.462 737.543 378.736 731.9 376.797 724.123L283.724 350.827C281.785 343.051 285.074 334.91 291.871 330.663Z" stroke="url(#paint30_linear_3299_546676)" stroke-width="3"/>
<path opacity="0.323232" d="M290.881 326.841L619.969 129.105C626.839 124.977 635.585 125.742 641.634 131L931.386 382.877C937.435 388.136 939.41 396.691 936.278 404.068L786.267 757.473C783.135 764.85 775.609 769.372 767.625 768.674L385.161 735.212C377.177 734.514 370.551 728.754 368.748 720.944L282.384 346.86C280.581 339.05 284.011 330.968 290.881 326.841Z" stroke="url(#paint31_linear_3299_546676)" stroke-width="3"/>
<path opacity="0.333333" d="M289.975 323.085L621.771 131.522C628.712 127.515 637.444 128.433 643.4 133.796L928.118 390.157C934.074 395.52 935.9 404.108 932.64 411.43L776.808 761.433C773.549 768.754 765.945 773.144 757.974 772.307L376.947 732.259C368.976 731.421 362.451 725.546 360.785 717.707L281.129 342.953C279.462 335.114 283.034 327.093 289.975 323.085Z" stroke="url(#paint32_linear_3299_546676)" stroke-width="3"/>
<path opacity="0.343434" d="M289.153 319.396L623.544 134.04C630.553 130.155 639.268 131.225 645.13 136.691L924.746 397.437C930.607 402.903 932.283 411.522 928.896 418.786L767.317 765.292C763.93 772.555 756.251 776.812 748.296 775.835L368.819 729.241C360.864 728.265 354.443 722.277 352.913 714.409L279.962 339.107C278.433 331.239 282.143 323.282 289.153 319.396Z" stroke="url(#paint33_linear_3299_546676)" stroke-width="3"/>
<path opacity="0.353535" d="M288.415 315.777L625.284 136.66C632.361 132.898 641.056 134.12 646.821 139.687L921.269 404.719C927.034 410.286 928.559 418.933 925.046 426.137L757.795 769.052C754.281 776.255 746.529 780.377 738.592 779.262L360.777 726.164C352.84 725.048 346.525 718.949 345.133 711.056L278.881 335.324C277.49 327.431 281.338 319.54 288.415 315.777Z" stroke="url(#paint34_linear_3299_546676)" stroke-width="3"/>
<path opacity="0.363636" d="M287.757 312.225L626.99 139.378C634.131 135.739 642.803 137.113 648.47 142.78L917.686 411.996C923.353 417.663 924.727 426.335 921.088 433.477L748.241 772.709C744.602 779.85 736.779 783.836 728.863 782.582L352.821 723.023C344.905 721.769 338.697 715.561 337.443 707.645L277.884 331.603C276.63 323.687 280.616 315.864 287.757 312.225Z" stroke="url(#paint35_linear_3299_546676)" stroke-width="3"/>
<path opacity="0.373737" d="M287.178 308.746L628.658 142.196C635.861 138.682 644.508 140.207 650.076 145.972L913.997 419.271C919.565 425.037 920.787 433.731 917.024 440.808L738.658 776.267C734.895 783.343 727.003 787.192 719.111 785.8L344.952 719.826C337.059 718.434 330.96 712.118 329.844 704.182L276.968 327.949C275.853 320.012 279.975 312.26 287.178 308.746Z" stroke="url(#paint36_linear_3299_546676)" stroke-width="3"/>
<path opacity="0.383838" d="M286.679 305.338L630.289 145.11C637.553 141.723 646.172 143.398 651.638 149.26L910.205 426.539C915.671 432.401 916.741 441.115 912.855 448.125L729.048 779.721C725.163 786.731 717.205 790.441 709.338 788.912L337.172 716.57C329.305 715.041 323.317 708.62 322.34 700.665L276.135 324.359C275.159 316.404 279.415 308.725 286.679 305.338Z" stroke="url(#paint37_linear_3299_546676)" stroke-width="3"/>
<path opacity="0.393939" d="M286.256 302.004L631.88 148.122C639.202 144.863 647.79 146.688 653.153 152.644L906.307 433.8C911.67 439.756 912.588 448.488 908.58 455.429L719.414 783.075C715.406 790.016 707.386 793.587 699.546 791.921L329.481 713.261C321.641 711.595 315.766 705.07 314.928 697.099L275.382 320.839C274.544 312.868 278.934 305.264 286.256 302.004Z" stroke="url(#paint38_linear_3299_546676)" stroke-width="3"/>
<path opacity="0.40404" d="M285.907 298.744L633.429 151.229C640.807 148.098 649.362 150.073 654.62 156.121L902.304 441.05C907.563 447.099 908.328 455.845 904.2 462.715L709.756 786.325C705.628 793.195 697.546 796.626 689.736 794.823L321.878 709.896C314.069 708.093 308.309 701.467 307.61 693.483L274.706 317.385C274.008 309.401 278.53 301.875 285.907 298.744Z" stroke="url(#paint39_linear_3299_546676)" stroke-width="3"/>
<path opacity="0.414141" d="M285.634 295.56L634.937 154.432C642.368 151.43 650.887 153.554 656.039 159.694L898.2 448.29C903.352 454.429 903.964 463.188 899.717 469.985L700.078 789.474C695.831 796.271 687.69 799.56 679.913 797.621L314.369 706.481C306.592 704.542 300.948 697.816 300.389 689.821L274.109 314.003C273.55 306.008 278.203 298.562 285.634 295.56Z" stroke="url(#paint40_linear_3299_546676)" stroke-width="3"/>
<path opacity="0.424242" d="M285.433 292.454L636.4 157.731C643.883 154.858 652.363 157.131 657.407 163.359L893.992 455.517C899.036 461.746 899.495 470.514 895.13 477.235L690.38 792.522C686.015 799.244 677.818 802.39 670.077 800.316L306.95 703.016C299.208 700.942 293.683 694.119 293.263 686.115L273.588 310.694C273.169 302.69 277.951 295.326 285.433 292.454Z" stroke="url(#paint41_linear_3299_546676)" stroke-width="3"/>
<path opacity="0.434343" d="M285.302 289.426L637.816 161.121C645.347 158.38 653.787 160.8 658.721 167.116L889.679 462.728C894.613 469.044 894.92 477.819 890.438 484.463L680.664 795.466C676.182 802.111 667.931 805.114 660.227 802.905L299.622 699.503C291.918 697.293 286.512 690.375 286.232 682.365L273.14 307.456C272.86 299.446 277.77 292.167 285.302 289.426Z" stroke="url(#paint42_linear_3299_546676)" stroke-width="3"/>
<path opacity="0.444444" d="M285.241 286.477L639.186 164.604C646.764 161.995 655.16 164.562 659.984 170.962L885.266 469.923C890.09 476.324 890.243 485.102 885.646 491.668L670.934 798.308C666.337 804.873 658.035 807.732 650.371 805.388L292.389 695.942C284.724 693.599 279.44 686.587 279.3 678.574L272.767 304.292C272.627 296.278 277.663 289.086 285.241 286.477Z" stroke="url(#paint43_linear_3299_546676)" stroke-width="3"/>
<path opacity="0.454545" d="M285.246 283.609L640.504 168.178C648.126 165.702 656.477 168.415 661.188 174.899L880.749 477.099C885.46 483.583 885.46 492.363 880.749 498.847L661.188 801.048C656.477 807.532 648.126 810.245 640.504 807.768L285.246 692.338C277.624 689.861 272.463 682.758 272.463 674.743L272.463 301.203C272.463 293.189 277.624 286.085 285.246 283.609Z" stroke="url(#paint44_linear_3299_546676)" stroke-width="3"/>
<path opacity="0.464646" d="M285.32 280.823L641.775 171.844C649.439 169.5 657.741 172.359 662.338 178.924L876.133 484.256C880.73 490.821 880.577 499.6 875.754 506.001L651.432 803.685C646.609 810.086 638.213 812.653 630.635 810.044L278.201 688.691C270.623 686.082 265.587 678.889 265.727 670.876L272.232 298.191C272.372 290.178 277.656 283.166 285.32 280.823Z" stroke="url(#paint45_linear_3299_546676)" stroke-width="3"/>
<path opacity="0.474747" d="M285.457 278.117L642.991 175.596C650.695 173.387 658.946 176.39 663.427 183.034L871.415 491.388C875.897 498.033 875.59 506.808 870.656 513.123L641.665 806.218C636.731 812.534 628.291 814.954 620.76 812.213L271.248 685.001C263.717 682.26 258.807 674.981 259.087 666.971L272.068 295.255C272.347 287.245 277.753 280.326 285.457 278.117Z" stroke="url(#paint46_linear_3299_546676)" stroke-width="3"/>
<path opacity="0.484848" d="M285.657 275.495L644.154 179.436C651.896 177.362 660.093 180.508 664.458 187.23L866.597 498.497C870.962 505.219 870.503 513.987 865.459 520.216L631.89 808.648C626.847 814.877 618.366 817.149 610.883 814.277L264.391 681.271C256.909 678.399 252.127 671.035 252.546 663.032L271.97 292.397C272.39 284.393 277.915 277.57 285.657 275.495Z" stroke="url(#paint47_linear_3299_546676)" stroke-width="3"/>
<path opacity="0.494949" d="M285.917 272.957L645.261 183.363C653.038 181.424 661.179 184.713 665.426 191.51L861.679 505.58C865.926 512.377 865.313 521.136 860.161 527.275L622.108 810.976C616.957 817.115 608.437 819.24 601.006 816.237L257.629 677.504C250.197 674.501 245.545 667.055 246.104 659.06L271.938 289.617C272.497 281.622 278.141 274.896 285.917 272.957Z" stroke="url(#paint48_linear_3299_546676)" stroke-width="3"/>
<path opacity="0.50505" d="M286.239 270.507L646.313 187.377C654.123 185.574 662.205 189.005 666.333 195.875L856.663 512.637C860.791 519.507 860.025 528.254 854.767 534.303L612.323 813.203C607.065 819.251 598.51 821.226 591.133 818.095L250.964 673.702C243.586 670.57 239.064 663.044 239.763 655.06L271.971 286.92C272.669 278.936 278.43 272.31 286.239 270.507Z" stroke="url(#paint49_linear_3299_546676)" stroke-width="3"/>
<path opacity="0.515152" d="M286.617 268.142L647.306 191.475C655.146 189.809 663.166 193.38 667.174 200.321L851.547 519.666C855.555 526.607 854.637 535.339 849.274 541.295L602.534 815.327C597.171 821.283 588.583 823.109 581.261 819.849L244.394 669.866C237.072 666.606 232.682 659.002 233.52 651.031L272.064 284.304C272.902 276.334 278.777 269.809 286.617 268.142Z" stroke="url(#paint50_linear_3299_546676)" stroke-width="3"/>
<path opacity="0.525253" d="M287.05 265.864L648.238 195.656C656.106 194.126 664.063 197.837 667.949 204.847L846.334 526.662C850.219 533.672 849.149 542.386 843.683 548.248L592.743 817.348C587.277 823.21 578.658 824.885 571.395 821.498L237.92 665.996C230.656 662.609 226.4 654.93 227.376 646.975L272.218 281.769C273.195 273.814 279.183 267.393 287.05 265.864Z" stroke="url(#paint51_linear_3299_546676)" stroke-width="3"/>
<path opacity="0.535354" d="M287.54 263.674L649.112 199.919C657.005 198.527 664.896 202.376 668.659 209.453L841.025 533.627C844.788 540.703 843.566 549.398 837.999 555.163L582.955 819.269C577.388 825.034 568.741 826.558 561.537 823.045L231.546 662.097C224.342 658.584 220.22 650.832 221.335 642.895L272.433 279.318C273.548 271.382 279.647 265.066 287.54 263.674Z" stroke="url(#paint52_linear_3299_546676)" stroke-width="3"/>
<path opacity="0.545455" d="M288.082 261.572L649.922 204.262C657.838 203.008 665.661 206.994 669.3 214.136L835.62 540.556C839.258 547.698 837.885 556.37 832.218 562.037L573.168 821.086C567.501 826.753 558.829 828.127 551.688 824.488L225.267 658.168C218.126 654.53 214.14 646.707 215.394 638.791L272.704 276.95C273.957 269.034 280.166 262.826 288.082 261.572Z" stroke="url(#paint53_linear_3299_546676)" stroke-width="3"/>
<path opacity="0.555556" d="M288.676 259.56L650.671 208.685C658.607 207.569 666.36 211.691 669.873 218.895L830.121 547.451C833.634 554.654 832.109 563.301 826.344 568.868L563.388 822.802C557.623 828.369 548.928 829.591 541.852 825.829L219.088 654.212C212.012 650.45 208.163 642.558 209.555 634.665L273.032 274.667C274.424 266.774 280.74 260.675 288.676 259.56Z" stroke="url(#paint54_linear_3299_546676)" stroke-width="3"/>
<path opacity="0.565657" d="M289.319 257.638L651.353 213.186C659.308 212.209 666.987 216.466 670.375 223.729L824.526 554.308C827.913 561.572 826.238 570.19 820.376 575.656L553.613 824.418C547.751 829.884 539.037 830.954 532.027 827.068L213.006 650.232C205.997 646.347 202.286 638.389 203.815 630.522L273.413 272.47C274.943 264.603 281.364 258.615 289.319 257.638Z" stroke="url(#paint55_linear_3299_546676)" stroke-width="3"/>
<path opacity="0.575758" d="M290.011 255.806L651.971 217.762C659.942 216.924 667.546 221.314 670.806 228.636L818.839 561.125C822.099 568.447 820.274 577.035 814.318 582.398L543.847 825.931C537.891 831.294 529.159 832.211 522.218 828.204L207.024 646.227C200.083 642.22 196.512 634.199 198.179 626.359L273.849 270.358C275.515 262.518 282.04 256.643 290.011 255.806Z" stroke="url(#paint56_linear_3299_546676)" stroke-width="3"/>
<path opacity="0.585859" d="M290.747 254.067L652.521 222.416C660.505 221.717 668.031 226.239 671.163 233.617L813.059 567.903C816.19 575.281 814.215 583.836 808.167 589.094L534.09 827.345C528.041 832.604 519.294 833.369 512.424 829.241L201.139 642.202C194.269 638.074 190.839 629.992 192.642 622.183L274.334 268.335C276.137 260.526 282.763 254.765 290.747 254.067Z" stroke="url(#paint57_linear_3299_546676)" stroke-width="3"/>
<path opacity="0.59596" d="M291.53 252.419L653.004 227.142C660.999 226.583 668.445 231.236 671.447 238.667L807.188 574.638C810.191 582.069 808.067 590.588 801.927 595.74L524.346 828.659C518.206 833.81 509.448 834.423 502.651 830.176L195.355 638.156C188.558 633.909 185.269 625.768 187.208 617.991L274.87 266.398C276.809 258.622 283.535 252.978 291.53 252.419Z" stroke="url(#paint58_linear_3299_546676)" stroke-width="3"/>
<path opacity="0.606061" d="M292.353 250.866L653.416 231.943C661.419 231.524 668.783 236.306 671.655 243.788L801.226 581.331C804.098 588.814 801.826 597.295 795.597 602.338L514.614 829.874C508.385 834.918 499.617 835.377 492.896 831.012L189.668 634.094C182.946 629.729 179.8 621.532 181.874 613.79L275.452 264.552C277.526 256.811 284.35 251.285 292.353 250.866Z" stroke="url(#paint59_linear_3299_546676)" stroke-width="3"/>
<path opacity="0.616162" d="M293.218 249.404L653.757 236.813C661.767 236.534 669.046 241.443 671.787 248.975L795.174 587.977C797.915 595.509 795.495 603.949 789.179 608.883L504.897 830.988C498.582 835.923 489.807 836.229 483.162 831.747L184.08 630.014C177.435 625.532 174.432 617.281 176.641 609.577L276.08 262.793C278.289 255.089 285.208 249.683 293.218 249.404Z" stroke="url(#paint60_linear_3299_546676)" stroke-width="3"/>
<path opacity="0.626263" d="M294.122 248.037L654.027 241.755C662.041 241.615 669.233 246.651 671.842 254.229L789.034 594.578C791.643 602.156 789.076 610.552 782.676 615.376L495.198 832.005C488.798 836.829 480.019 836.982 473.454 832.385L178.592 625.92C172.026 621.323 169.168 613.021 171.511 605.357L276.753 261.125C279.096 253.461 286.109 248.177 294.122 248.037Z" stroke="url(#paint61_linear_3299_546676)" stroke-width="3"/>
<path opacity="0.636364" d="M295.064 246.764L654.225 246.764C662.24 246.764 669.343 251.925 671.82 259.548L782.807 601.13C785.283 608.753 782.57 617.103 776.086 621.814L485.519 832.924C479.035 837.635 470.255 837.635 463.77 832.924L173.203 621.814C166.719 617.103 164.006 608.753 166.482 601.13L277.469 259.548C279.946 251.925 287.049 246.764 295.064 246.764Z" stroke="url(#paint62_linear_3299_546676)" stroke-width="3"/>
<path opacity="0.646465" d="M296.039 245.586L654.347 251.84C662.36 251.98 669.372 257.264 671.716 264.929L776.491 607.633C778.834 615.297 775.975 623.599 769.41 628.196L475.857 833.744C469.291 838.341 460.513 838.188 454.112 833.365L167.911 617.697C161.51 612.873 158.943 604.477 161.552 596.899L278.224 258.06C280.833 250.482 288.025 245.446 296.039 245.586Z" stroke="url(#paint63_linear_3299_546676)" stroke-width="3"/>
<path opacity="0.656566" d="M297.05 244.504L654.396 256.983C662.406 257.263 669.325 262.668 671.534 270.372L770.092 614.085C772.301 621.789 769.298 630.04 762.653 634.521L466.22 834.468C459.575 838.95 450.8 838.644 444.485 833.709L162.721 613.571C156.405 608.637 153.985 600.197 156.726 592.666L279.02 256.666C281.761 249.134 289.04 244.224 297.05 244.504Z" stroke="url(#paint64_linear_3299_546676)" stroke-width="3"/>
<path opacity="0.666667" d="M298.092 243.516L654.368 262.187C662.371 262.607 669.195 268.132 671.269 275.874L763.607 620.482C765.681 628.224 762.535 636.421 755.813 640.786L456.605 835.094C449.883 839.459 441.115 839 434.886 833.956L157.628 609.436C151.399 604.392 149.127 595.912 151.999 588.429L279.852 255.36C282.724 247.878 290.088 243.096 298.092 243.516Z" stroke="url(#paint65_linear_3299_546676)" stroke-width="3"/>
<path opacity="0.676768" d="M299.165 242.625L654.264 267.456C662.259 268.015 668.985 273.659 670.924 281.436L757.04 626.828C758.979 634.605 755.69 642.745 748.893 646.993L447.016 835.626C440.22 839.873 431.461 839.261 425.321 834.109L152.635 605.298C146.496 600.146 144.372 591.627 147.374 584.196L280.721 254.15C283.724 246.719 291.17 242.066 299.165 242.625Z" stroke="url(#paint66_linear_3299_546676)" stroke-width="3"/>
<path opacity="0.686869" d="M300.265 241.83L654.081 272.785C662.065 273.484 668.692 279.244 670.495 287.053L750.39 633.118C752.193 640.927 748.762 649.009 741.892 653.137L437.454 836.062C430.584 840.19 421.838 839.424 415.789 834.166L147.741 601.155C141.692 595.897 139.717 587.342 142.849 579.965L281.624 253.032C284.755 245.654 292.281 241.132 300.265 241.83Z" stroke="url(#paint67_linear_3299_546676)" stroke-width="3"/>
<path opacity="0.69697" d="M301.393 241.133L653.82 278.174C661.791 279.012 668.316 284.887 669.982 292.727L743.659 639.351C745.326 647.191 741.754 655.212 734.814 659.219L427.921 836.403C420.98 840.411 412.249 839.493 406.292 834.13L142.945 597.011C136.989 591.648 135.164 583.06 138.424 575.738L282.558 252.007C285.818 244.685 293.422 240.295 301.393 241.133Z" stroke="url(#paint68_linear_3299_546676)" stroke-width="3"/>
<path opacity="0.707071" d="M302.545 240.533L653.479 283.622C661.434 284.599 667.855 290.587 669.385 298.454L736.849 645.528C738.378 653.395 734.668 661.353 727.658 665.238L418.419 836.652C411.409 840.538 402.694 839.468 396.833 834.002L138.248 592.868C132.387 587.402 130.711 578.783 134.099 571.52L283.524 251.076C286.911 243.813 294.59 239.556 302.545 240.533Z" stroke="url(#paint69_linear_3299_546676)" stroke-width="3"/>
<path opacity="0.717172" d="M303.72 240.028L653.057 289.124C660.994 290.239 667.31 296.339 668.702 304.231L729.96 651.643C731.351 659.536 727.502 667.427 720.426 671.19L408.948 836.806C401.871 840.569 393.176 839.347 387.411 833.779L133.649 588.724C127.884 583.156 126.359 574.51 129.873 567.306L284.517 250.238C288.031 243.034 295.783 238.912 303.72 240.028Z" stroke="url(#paint70_linear_3299_546676)" stroke-width="3"/>
<path opacity="0.727273" d="M304.916 239.622L652.555 294.682C660.471 295.936 666.68 302.145 667.933 310.061L722.994 657.699C724.248 665.615 720.262 673.438 713.12 677.077L399.511 836.869C392.37 840.508 383.698 839.134 378.031 833.467L129.149 584.585C123.482 578.918 122.108 570.246 125.747 563.105L285.539 249.495C289.177 242.354 297 238.368 304.916 239.622Z" stroke="url(#paint71_linear_3299_546676)" stroke-width="3"/>
<path opacity="0.737374" d="M306.133 239.313L651.971 300.294C659.864 301.685 665.963 308.001 667.079 315.938L715.953 663.694C717.068 671.63 712.946 679.383 705.743 682.896L390.11 836.84C382.907 840.354 374.26 838.829 368.693 833.064L124.747 580.451C119.18 574.686 117.958 565.991 121.72 558.914L286.586 248.847C290.349 241.77 298.24 237.921 306.133 239.313Z" stroke="url(#paint72_linear_3299_546676)" stroke-width="3"/>
<path opacity="0.747475" d="M307.366 239.104L651.303 305.958C659.17 307.488 665.158 313.909 666.135 321.864L708.835 669.627C709.812 677.582 705.555 685.261 698.291 688.648L380.744 836.723C373.48 840.11 364.862 838.434 359.396 832.573L120.441 576.325C114.975 570.464 113.905 561.749 117.791 554.739L287.655 248.295C291.541 241.285 299.498 237.574 307.366 239.104Z" stroke="url(#paint73_linear_3299_546676)" stroke-width="3"/>
<path opacity="0.757576" d="M308.614 238.989L650.551 311.67C658.39 313.336 664.265 319.861 665.103 327.832L701.644 675.493C702.482 683.463 698.092 691.067 690.77 694.327L371.417 836.512C364.095 839.772 355.507 837.947 350.144 831.991L116.232 572.205C110.869 566.249 109.951 557.517 113.959 550.576L288.747 247.835C292.754 240.894 300.775 237.323 308.614 238.989Z" stroke="url(#paint74_linear_3299_546676)" stroke-width="3"/>
<path opacity="0.767677" d="M309.879 238.974L649.716 317.432C657.526 319.235 663.286 325.861 663.984 333.845L694.382 681.295C695.081 689.279 690.559 696.805 683.181 699.937L362.13 836.215C354.753 839.346 346.198 837.371 340.94 831.322L112.121 568.097C106.863 562.048 106.098 553.302 110.226 546.432L289.859 247.472C293.987 240.602 302.069 237.171 309.879 238.974Z" stroke="url(#paint75_linear_3299_546676)" stroke-width="3"/>
<path opacity="0.777778" d="M311.154 239.058L648.796 323.241C656.572 325.18 662.216 331.906 662.775 339.901L687.049 687.032C687.608 695.027 682.955 702.473 675.524 705.475L352.885 835.83C345.453 838.832 336.934 836.708 331.783 830.569L108.107 564.002C102.955 557.862 102.342 549.104 106.589 542.307L290.99 247.205C295.237 240.408 303.378 237.119 311.154 239.058Z" stroke="url(#paint76_linear_3299_546676)" stroke-width="3"/>
<path opacity="0.787879" d="M312.44 239.239L647.789 329.096C655.531 331.17 661.056 337.994 661.476 345.997L679.646 692.701C680.065 700.705 675.283 708.068 667.801 710.94L343.681 835.358C336.199 838.23 327.718 835.958 322.674 829.729L104.187 559.92C99.1431 553.692 98.6836 544.924 103.049 538.202L292.136 247.033C296.501 240.311 304.698 237.165 312.44 239.239Z" stroke="url(#paint77_linear_3299_546676)" stroke-width="3"/>
<path opacity="0.79798" d="M313.735 239.517L646.697 334.992C654.401 337.201 659.807 344.12 660.086 352.13L672.175 698.299C672.455 706.309 667.545 713.588 660.013 716.329L334.522 834.798C326.991 837.54 318.551 835.12 313.617 828.804L100.364 555.852C95.4293 549.537 95.1229 540.762 99.6046 534.118L293.298 246.955C297.78 240.311 306.03 237.308 313.735 239.517Z" stroke="url(#paint78_linear_3299_546676)" stroke-width="3"/>
<path opacity="0.808081" d="M315.035 239.895L645.517 340.933C653.181 343.276 658.465 350.288 658.605 358.302L664.636 703.831C664.776 711.844 659.74 719.036 652.162 721.646L325.408 834.156C317.83 836.765 309.434 834.198 304.61 827.797L96.6342 551.804C91.8108 545.403 91.6576 536.624 96.2546 530.059L294.472 246.975C299.069 240.41 307.371 237.551 315.035 239.895Z" stroke="url(#paint79_linear_3299_546676)" stroke-width="3"/>
<path opacity="0.818182" d="M316.342 240.368L644.25 346.911C651.872 349.388 657.033 356.491 657.033 364.506L657.033 709.289C657.033 717.304 651.872 724.407 644.25 726.883L316.342 833.427C308.719 835.904 300.369 833.191 295.658 826.707L92.9999 547.771C88.289 541.287 88.289 532.507 92.9999 526.023L295.658 247.088C300.369 240.604 308.719 237.891 316.342 240.368Z" stroke="url(#paint80_linear_3299_546676)" stroke-width="3"/>
<path opacity="0.828283" d="M317.65 240.941L642.893 352.931C650.472 355.54 655.508 362.732 655.368 370.746L649.364 714.677C649.224 722.691 643.94 729.703 636.276 732.046L307.322 832.617C299.658 834.961 291.356 832.102 286.759 825.537L89.4581 543.762C84.8611 537.196 85.0143 528.418 89.8377 522.017L296.852 247.299C301.676 240.898 310.072 238.331 317.65 240.941Z" stroke="url(#paint81_linear_3299_546676)" stroke-width="3"/>
<path opacity="0.838384" d="M318.963 241.609L641.451 358.986C648.982 361.727 653.892 369.006 653.613 377.016L641.635 719.992C641.356 728.002 635.95 734.92 628.246 737.129L298.355 831.724C290.651 833.933 282.401 830.93 277.919 824.286L86.0121 539.772C81.5304 533.128 81.8368 524.353 86.7711 518.038L298.057 247.604C302.991 241.288 311.431 238.868 318.963 241.609Z" stroke="url(#paint82_linear_3299_546676)" stroke-width="3"/>
<path opacity="0.848485" d="M320.273 242.377L639.919 365.077C647.401 367.949 652.183 375.313 651.763 383.317L633.844 725.234C633.425 733.238 627.899 740.061 620.158 742.135L289.438 830.751C281.696 832.826 273.5 829.679 269.134 822.958L82.6574 535.808C78.2923 529.086 78.7518 520.318 83.7956 514.09L299.266 248.006C304.31 241.777 312.791 239.505 320.273 242.377Z" stroke="url(#paint83_linear_3299_546676)" stroke-width="3"/>
<path opacity="0.858586" d="M321.583 243.24L638.297 371.201C645.728 374.203 650.381 381.649 649.822 389.644L625.994 730.4C625.435 738.395 619.791 745.121 612.014 747.06L280.573 829.697C272.797 831.636 264.656 828.347 260.409 821.55L79.3952 531.868C75.148 525.071 75.7605 516.312 80.9123 510.173L300.48 248.501C305.632 242.362 314.151 240.238 321.583 243.24Z" stroke="url(#paint84_linear_3299_546676)" stroke-width="3"/>
<path opacity="0.868687" d="M322.889 244.2L636.586 377.357C643.964 380.488 648.486 388.014 647.787 395.998L618.086 735.49C617.387 743.474 611.627 750.101 603.818 751.904L271.763 828.565C263.954 830.367 255.872 826.937 251.744 820.067L76.2249 527.954C72.097 521.084 72.8622 512.337 78.1203 506.289L301.698 249.092C306.956 243.043 315.511 241.068 322.889 244.2Z" stroke="url(#paint85_linear_3299_546676)" stroke-width="3"/>
<path opacity="0.878788" d="M324.188 245.259L634.784 383.545C642.106 386.805 646.496 394.408 645.658 402.379L610.119 740.507C609.281 748.478 603.407 755.002 595.567 756.669L263.007 827.357C255.167 829.023 247.146 825.452 243.139 818.511L73.1438 524.071C69.1364 517.13 70.0542 508.398 75.4171 502.442L302.915 249.78C308.278 243.824 316.866 241.999 324.188 245.259Z" stroke="url(#paint86_linear_3299_546676)" stroke-width="3"/>
<path opacity="0.888889" d="M325.482 246.412L632.894 389.76C640.157 393.147 644.414 400.826 643.437 408.781L602.1 745.444C601.123 753.399 595.136 759.821 587.268 761.35L254.309 826.071C246.441 827.6 238.484 823.889 234.598 816.879L70.1553 520.216C66.2697 513.206 67.3397 504.492 72.8057 498.63L304.134 250.561C309.599 244.7 318.218 243.025 325.482 246.412Z" stroke="url(#paint87_linear_3299_546676)" stroke-width="3"/>
<path opacity="0.89899" d="M326.764 247.661L630.909 396.002C638.113 399.516 642.235 407.268 641.119 415.205L594.024 750.304C592.909 758.24 586.81 764.556 578.917 765.948L245.665 824.709C237.772 826.101 229.881 822.252 226.118 815.175L67.2527 516.393C63.4901 509.316 64.712 500.622 70.2795 494.856L305.347 251.437C310.914 245.672 319.561 244.147 326.764 247.661Z" stroke="url(#paint88_linear_3299_546676)" stroke-width="3"/>
<path opacity="0.909091" d="M328.039 249.007L628.837 402.272C635.978 405.91 639.964 413.733 638.71 421.649L585.899 755.086C584.645 763.003 578.437 769.211 570.521 770.465L237.083 823.276C229.167 824.53 221.344 820.544 217.706 813.403L64.4414 512.605C60.8028 505.463 62.1763 496.791 67.8435 491.124L306.558 252.41C312.225 246.742 320.897 245.369 328.039 249.007Z" stroke="url(#paint89_linear_3299_546676)" stroke-width="3"/>
<path opacity="0.919192" d="M329.299 250.446L626.671 408.562C633.748 412.324 637.597 420.216 636.205 428.109L577.721 759.787C576.33 767.68 570.014 773.779 562.077 774.894L228.56 821.767C220.623 822.882 212.871 818.76 209.358 811.557L61.7167 508.848C58.2033 501.644 59.7279 492.998 65.4932 487.43L307.763 253.473C313.528 247.905 322.223 246.683 329.299 250.446Z" stroke="url(#paint90_linear_3299_546676)" stroke-width="3"/>
<path opacity="0.929293" d="M330.545 251.981L624.414 414.876C631.424 418.761 635.134 426.719 633.605 434.586L569.494 764.409C567.965 772.276 561.543 778.264 553.589 779.241L220.097 820.188C212.142 821.165 204.463 816.908 201.076 809.645L59.0779 505.129C55.6907 497.865 57.366 489.247 63.2276 483.781L308.959 254.632C314.821 249.166 323.536 248.096 330.545 251.981Z" stroke="url(#paint91_linear_3299_546676)" stroke-width="3"/>
<path opacity="0.939394" d="M331.777 253.61L622.066 421.209C629.007 425.216 632.578 433.237 630.912 441.077L561.22 768.949C559.554 776.788 553.029 782.663 545.058 783.501L211.698 818.539C203.727 819.376 196.123 814.986 192.863 807.665L56.5263 501.447C53.2665 494.125 55.0919 485.537 61.048 480.174L310.148 255.883C316.104 250.521 324.836 249.603 331.777 253.61Z" stroke="url(#paint92_linear_3299_546676)" stroke-width="3"/>
<path opacity="0.949495" d="M332.99 255.335L619.626 427.563C626.495 431.691 629.926 439.773 628.123 447.582L552.9 773.409C551.097 781.219 544.471 786.979 536.487 787.677L203.361 816.822C195.377 817.521 187.851 812.999 184.719 805.621L54.0593 497.806C50.9277 490.428 52.9028 481.873 58.9516 476.615L311.325 257.23C317.374 251.972 326.12 251.207 332.99 255.335Z" stroke="url(#paint93_linear_3299_546676)" stroke-width="3"/>
<path opacity="0.959596" d="M334.187 257.15L617.095 433.931C623.892 438.178 627.181 446.319 625.242 454.096L544.537 777.786C542.598 785.562 535.872 791.206 527.877 791.765L195.09 815.036C187.095 815.595 179.649 810.942 176.647 803.511L51.6782 494.203C48.6758 486.772 50.7999 478.253 56.9395 473.101L312.492 258.667C318.631 253.516 327.39 252.903 334.187 257.15Z" stroke="url(#paint94_linear_3299_546676)" stroke-width="3"/>
<path opacity="0.969697" d="M335.36 259.06L614.47 440.316C621.192 444.681 624.338 452.878 622.264 460.619L536.129 782.08C534.054 789.822 527.231 795.347 519.227 795.767L186.883 813.184C178.879 813.603 171.516 808.822 168.643 801.339L49.3783 490.643C46.5061 483.161 48.7785 474.68 55.0071 469.636L313.642 260.198C319.87 255.154 328.638 254.695 335.36 259.06Z" stroke="url(#paint95_linear_3299_546676)" stroke-width="3"/>
<path opacity="0.979798" d="M336.511 261.059L611.753 446.712C618.398 451.194 621.401 459.444 619.192 467.148L527.679 786.289C525.47 793.993 518.551 799.399 510.542 799.678L178.742 811.265C170.732 811.545 163.453 806.635 160.712 799.104L47.1609 487.124C44.4197 479.593 46.8398 471.153 53.1554 466.218L314.776 261.818C321.092 256.883 329.867 256.577 336.511 261.059Z" stroke="url(#paint96_linear_3299_546676)" stroke-width="3"/>
<path opacity="0.989899" d="M337.641 263.151L608.947 453.122C615.512 457.719 618.37 466.02 616.027 473.685L519.193 790.416C516.849 798.08 509.837 803.364 501.824 803.504L170.671 809.284C162.658 809.424 155.466 804.388 152.856 796.81L45.0272 483.652C42.4179 476.074 44.9849 467.677 51.3857 462.854L315.896 263.531C322.297 258.708 331.076 258.554 337.641 263.151Z" stroke="url(#paint97_linear_3299_546676)" stroke-width="3"/>
<path d="M338.744 265.335L606.046 459.541C612.53 464.252 615.244 472.603 612.767 480.225L510.666 794.458C508.19 802.08 501.087 807.241 493.072 807.241H162.668C154.653 807.241 147.55 802.08 145.073 794.458L42.9727 480.225C40.496 472.603 43.2092 464.252 49.6932 459.541L316.996 265.335C323.48 260.624 332.26 260.624 338.744 265.335Z" stroke="url(#paint98_linear_3299_546676)" stroke-width="3"/>
</g>
<defs>
<linearGradient id="paint0_linear_3299_546676" x1="758.424" y1="643.229" x2="696.78" y2="204.606" gradientUnits="userSpaceOnUse">
<stop stop-color="#CEE8FA"/>
<stop offset="1" stop-color="#1D93E3"/>
</linearGradient>
<linearGradient id="paint1_linear_3299_546676" x1="750.539" y1="644.702" x2="696.658" y2="205.872" gradientUnits="userSpaceOnUse">
<stop stop-color="#CEE8FA"/>
<stop offset="1" stop-color="#1D93E3"/>
</linearGradient>
<linearGradient id="paint2_linear_3299_546676" x1="742.66" y1="646.109" x2="696.53" y2="207.209" gradientUnits="userSpaceOnUse">
<stop stop-color="#CEE8FA"/>
<stop offset="1" stop-color="#1D93E3"/>
</linearGradient>
<linearGradient id="paint3_linear_3299_546676" x1="734.787" y1="647.45" x2="696.395" y2="208.617" gradientUnits="userSpaceOnUse">
<stop stop-color="#CEE8FA"/>
<stop offset="1" stop-color="#1D93E3"/>
</linearGradient>
<linearGradient id="paint4_linear_3299_546676" x1="726.921" y1="648.723" x2="696.249" y2="210.093" gradientUnits="userSpaceOnUse">
<stop stop-color="#CEE8FA"/>
<stop offset="1" stop-color="#1D93E3"/>
</linearGradient>
<linearGradient id="paint5_linear_3299_546676" x1="719.068" y1="649.928" x2="696.098" y2="211.637" gradientUnits="userSpaceOnUse">
<stop stop-color="#CEE8FA"/>
<stop offset="1" stop-color="#1D93E3"/>
</linearGradient>
<linearGradient id="paint6_linear_3299_546676" x1="711.221" y1="651.068" x2="695.932" y2="213.25" gradientUnits="userSpaceOnUse">
<stop stop-color="#CEE8FA"/>
<stop offset="1" stop-color="#1D93E3"/>
</linearGradient>
<linearGradient id="paint7_linear_3299_546676" x1="703.386" y1="652.143" x2="695.755" y2="214.933" gradientUnits="userSpaceOnUse">
<stop stop-color="#CEE8FA"/>
<stop offset="1" stop-color="#1D93E3"/>
</linearGradient>
<linearGradient id="paint8_linear_3299_546676" x1="695.565" y1="653.152" x2="695.565" y2="216.684" gradientUnits="userSpaceOnUse">
<stop stop-color="#CEE8FA"/>
<stop offset="1" stop-color="#1D93E3"/>
</linearGradient>
<linearGradient id="paint9_linear_3299_546676" x1="687.756" y1="654.094" x2="695.359" y2="218.501" gradientUnits="userSpaceOnUse">
<stop stop-color="#CEE8FA"/>
<stop offset="1" stop-color="#1D93E3"/>
</linearGradient>
<linearGradient id="paint10_linear_3299_546676" x1="679.964" y1="654.973" x2="695.14" y2="220.387" gradientUnits="userSpaceOnUse">
<stop stop-color="#CEE8FA"/>
<stop offset="1" stop-color="#1D93E3"/>
</linearGradient>
<linearGradient id="paint11_linear_3299_546676" x1="672.184" y1="655.786" x2="694.9" y2="222.337" gradientUnits="userSpaceOnUse">
<stop stop-color="#CEE8FA"/>
<stop offset="1" stop-color="#1D93E3"/>
</linearGradient>
<linearGradient id="paint12_linear_3299_546676" x1="664.425" y1="656.536" x2="694.646" y2="224.357" gradientUnits="userSpaceOnUse">
<stop stop-color="#CEE8FA"/>
<stop offset="1" stop-color="#1D93E3"/>
</linearGradient>
<linearGradient id="paint13_linear_3299_546676" x1="656.682" y1="657.222" x2="694.37" y2="226.441" gradientUnits="userSpaceOnUse">
<stop stop-color="#CEE8FA"/>
<stop offset="1" stop-color="#1D93E3"/>
</linearGradient>
<linearGradient id="paint14_linear_3299_546676" x1="648.959" y1="657.845" x2="694.075" y2="228.591" gradientUnits="userSpaceOnUse">
<stop stop-color="#CEE8FA"/>
<stop offset="1" stop-color="#1D93E3"/>
</linearGradient>
<linearGradient id="paint15_linear_3299_546676" x1="641.257" y1="658.405" x2="693.759" y2="230.806" gradientUnits="userSpaceOnUse">
<stop stop-color="#CEE8FA"/>
<stop offset="1" stop-color="#1D93E3"/>
</linearGradient>
<linearGradient id="paint16_linear_3299_546676" x1="633.574" y1="658.904" x2="693.419" y2="233.087" gradientUnits="userSpaceOnUse">
<stop stop-color="#CEE8FA"/>
<stop offset="1" stop-color="#1D93E3"/>
</linearGradient>
<linearGradient id="paint17_linear_3299_546676" x1="625.915" y1="659.34" x2="693.055" y2="235.43" gradientUnits="userSpaceOnUse">
<stop stop-color="#CEE8FA"/>
<stop offset="1" stop-color="#1D93E3"/>
</linearGradient>
<linearGradient id="paint18_linear_3299_546676" x1="618.278" y1="659.715" x2="692.666" y2="237.838" gradientUnits="userSpaceOnUse">
<stop stop-color="#CEE8FA"/>
<stop offset="1" stop-color="#1D93E3"/>
</linearGradient>
<linearGradient id="paint19_linear_3299_546676" x1="610.667" y1="660.027" x2="692.253" y2="240.306" gradientUnits="userSpaceOnUse">
<stop stop-color="#CEE8FA"/>
<stop offset="1" stop-color="#1D93E3"/>
</linearGradient>
<linearGradient id="paint20_linear_3299_546676" x1="603.081" y1="660.282" x2="691.812" y2="242.84" gradientUnits="userSpaceOnUse">
<stop stop-color="#CEE8FA"/>
<stop offset="1" stop-color="#1D93E3"/>
</linearGradient>
<linearGradient id="paint21_linear_3299_546676" x1="595.521" y1="660.475" x2="691.341" y2="245.433" gradientUnits="userSpaceOnUse">
<stop stop-color="#CEE8FA"/>
<stop offset="1" stop-color="#1D93E3"/>
</linearGradient>
<linearGradient id="paint22_linear_3299_546676" x1="587.99" y1="660.612" x2="690.844" y2="248.088" gradientUnits="userSpaceOnUse">
<stop stop-color="#CEE8FA"/>
<stop offset="1" stop-color="#1D93E3"/>
</linearGradient>
<linearGradient id="paint23_linear_3299_546676" x1="580.489" y1="660.689" x2="690.317" y2="250.804" gradientUnits="userSpaceOnUse">
<stop stop-color="#CEE8FA"/>
<stop offset="1" stop-color="#1D93E3"/>
</linearGradient>
<linearGradient id="paint24_linear_3299_546676" x1="573.015" y1="660.707" x2="689.758" y2="253.579" gradientUnits="userSpaceOnUse">
<stop stop-color="#CEE8FA"/>
<stop offset="1" stop-color="#1D93E3"/>
</linearGradient>
<linearGradient id="paint25_linear_3299_546676" x1="565.571" y1="660.668" x2="689.164" y2="256.412" gradientUnits="userSpaceOnUse">
<stop stop-color="#CEE8FA"/>
<stop offset="1" stop-color="#1D93E3"/>
</linearGradient>
<linearGradient id="paint26_linear_3299_546676" x1="558.161" y1="660.574" x2="688.541" y2="259.305" gradientUnits="userSpaceOnUse">
<stop stop-color="#CEE8FA"/>
<stop offset="1" stop-color="#1D93E3"/>
</linearGradient>
<linearGradient id="paint27_linear_3299_546676" x1="550.781" y1="660.424" x2="687.881" y2="262.256" gradientUnits="userSpaceOnUse">
<stop stop-color="#CEE8FA"/>
<stop offset="1" stop-color="#1D93E3"/>
</linearGradient>
<linearGradient id="paint28_linear_3299_546676" x1="543.437" y1="660.22" x2="687.188" y2="265.265" gradientUnits="userSpaceOnUse">
<stop stop-color="#CEE8FA"/>
<stop offset="1" stop-color="#1D93E3"/>
</linearGradient>
<linearGradient id="paint29_linear_3299_546676" x1="536.125" y1="659.959" x2="686.458" y2="268.327" gradientUnits="userSpaceOnUse">
<stop stop-color="#CEE8FA"/>
<stop offset="1" stop-color="#1D93E3"/>
</linearGradient>
<linearGradient id="paint30_linear_3299_546676" x1="528.848" y1="659.646" x2="685.691" y2="271.447" gradientUnits="userSpaceOnUse">
<stop stop-color="#CEE8FA"/>
<stop offset="1" stop-color="#1D93E3"/>
</linearGradient>
<linearGradient id="paint31_linear_3299_546676" x1="521.609" y1="659.278" x2="684.887" y2="274.62" gradientUnits="userSpaceOnUse">
<stop stop-color="#CEE8FA"/>
<stop offset="1" stop-color="#1D93E3"/>
</linearGradient>
<linearGradient id="paint32_linear_3299_546676" x1="514.405" y1="658.86" x2="684.042" y2="277.848" gradientUnits="userSpaceOnUse">
<stop stop-color="#CEE8FA"/>
<stop offset="1" stop-color="#1D93E3"/>
</linearGradient>
<linearGradient id="paint33_linear_3299_546676" x1="507.239" y1="658.39" x2="683.159" y2="281.129" gradientUnits="userSpaceOnUse">
<stop stop-color="#CEE8FA"/>
<stop offset="1" stop-color="#1D93E3"/>
</linearGradient>
<linearGradient id="paint34_linear_3299_546676" x1="500.114" y1="657.87" x2="682.236" y2="284.464" gradientUnits="userSpaceOnUse">
<stop stop-color="#CEE8FA"/>
<stop offset="1" stop-color="#1D93E3"/>
</linearGradient>
<linearGradient id="paint35_linear_3299_546676" x1="493.027" y1="657.298" x2="681.271" y2="287.848" gradientUnits="userSpaceOnUse">
<stop stop-color="#CEE8FA"/>
<stop offset="1" stop-color="#1D93E3"/>
</linearGradient>
<linearGradient id="paint36_linear_3299_546676" x1="485.979" y1="656.68" x2="680.263" y2="291.284" gradientUnits="userSpaceOnUse">
<stop stop-color="#CEE8FA"/>
<stop offset="1" stop-color="#1D93E3"/>
</linearGradient>
<linearGradient id="paint37_linear_3299_546676" x1="478.974" y1="656.011" x2="679.214" y2="294.769" gradientUnits="userSpaceOnUse">
<stop stop-color="#CEE8FA"/>
<stop offset="1" stop-color="#1D93E3"/>
</linearGradient>
<linearGradient id="paint38_linear_3299_546676" x1="472.01" y1="655.296" x2="678.119" y2="298.303" gradientUnits="userSpaceOnUse">
<stop stop-color="#CEE8FA"/>
<stop offset="1" stop-color="#1D93E3"/>
</linearGradient>
<linearGradient id="paint39_linear_3299_546676" x1="465.088" y1="654.533" x2="676.98" y2="301.884" gradientUnits="userSpaceOnUse">
<stop stop-color="#CEE8FA"/>
<stop offset="1" stop-color="#1D93E3"/>
</linearGradient>
<linearGradient id="paint40_linear_3299_546676" x1="458.211" y1="653.725" x2="675.797" y2="305.514" gradientUnits="userSpaceOnUse">
<stop stop-color="#CEE8FA"/>
<stop offset="1" stop-color="#1D93E3"/>
</linearGradient>
<linearGradient id="paint41_linear_3299_546676" x1="451.377" y1="652.873" x2="674.568" y2="309.19" gradientUnits="userSpaceOnUse">
<stop stop-color="#CEE8FA"/>
<stop offset="1" stop-color="#1D93E3"/>
</linearGradient>
<linearGradient id="paint42_linear_3299_546676" x1="444.587" y1="651.977" x2="673.29" y2="312.911" gradientUnits="userSpaceOnUse">
<stop stop-color="#CEE8FA"/>
<stop offset="1" stop-color="#1D93E3"/>
</linearGradient>
<linearGradient id="paint43_linear_3299_546676" x1="437.845" y1="651.037" x2="671.967" y2="316.677" gradientUnits="userSpaceOnUse">
<stop stop-color="#CEE8FA"/>
<stop offset="1" stop-color="#1D93E3"/>
</linearGradient>
<linearGradient id="paint44_linear_3299_546676" x1="431.147" y1="650.056" x2="670.593" y2="320.486" gradientUnits="userSpaceOnUse">
<stop stop-color="#CEE8FA"/>
<stop offset="1" stop-color="#1D93E3"/>
</linearGradient>
<linearGradient id="paint45_linear_3299_546676" x1="424.498" y1="649.034" x2="669.173" y2="324.339" gradientUnits="userSpaceOnUse">
<stop stop-color="#CEE8FA"/>
<stop offset="1" stop-color="#1D93E3"/>
</linearGradient>
<linearGradient id="paint46_linear_3299_546676" x1="417.895" y1="647.97" x2="667.701" y2="328.231" gradientUnits="userSpaceOnUse">
<stop stop-color="#CEE8FA"/>
<stop offset="1" stop-color="#1D93E3"/>
</linearGradient>
<linearGradient id="paint47_linear_3299_546676" x1="411.34" y1="646.866" x2="666.18" y2="332.165" gradientUnits="userSpaceOnUse">
<stop stop-color="#CEE8FA"/>
<stop offset="1" stop-color="#1D93E3"/>
</linearGradient>
<linearGradient id="paint48_linear_3299_546676" x1="404.833" y1="645.724" x2="664.607" y2="336.137" gradientUnits="userSpaceOnUse">
<stop stop-color="#CEE8FA"/>
<stop offset="1" stop-color="#1D93E3"/>
</linearGradient>
<linearGradient id="paint49_linear_3299_546676" x1="398.377" y1="644.546" x2="662.985" y2="340.15" gradientUnits="userSpaceOnUse">
<stop stop-color="#CEE8FA"/>
<stop offset="1" stop-color="#1D93E3"/>
</linearGradient>
<linearGradient id="paint50_linear_3299_546676" x1="391.969" y1="643.331" x2="661.308" y2="344.2" gradientUnits="userSpaceOnUse">
<stop stop-color="#CEE8FA"/>
<stop offset="1" stop-color="#1D93E3"/>
</linearGradient>
<linearGradient id="paint51_linear_3299_546676" x1="385.611" y1="642.079" x2="659.578" y2="348.286" gradientUnits="userSpaceOnUse">
<stop stop-color="#CEE8FA"/>
<stop offset="1" stop-color="#1D93E3"/>
</linearGradient>
<linearGradient id="paint52_linear_3299_546676" x1="379.306" y1="640.795" x2="657.797" y2="352.408" gradientUnits="userSpaceOnUse">
<stop stop-color="#CEE8FA"/>
<stop offset="1" stop-color="#1D93E3"/>
</linearGradient>
<linearGradient id="paint53_linear_3299_546676" x1="373.051" y1="639.475" x2="655.961" y2="356.564" gradientUnits="userSpaceOnUse">
<stop stop-color="#CEE8FA"/>
<stop offset="1" stop-color="#1D93E3"/>
</linearGradient>
<linearGradient id="paint54_linear_3299_546676" x1="366.849" y1="638.122" x2="654.073" y2="360.754" gradientUnits="userSpaceOnUse">
<stop stop-color="#CEE8FA"/>
<stop offset="1" stop-color="#1D93E3"/>
</linearGradient>
<linearGradient id="paint55_linear_3299_546676" x1="360.699" y1="636.739" x2="652.128" y2="364.977" gradientUnits="userSpaceOnUse">
<stop stop-color="#CEE8FA"/>
<stop offset="1" stop-color="#1D93E3"/>
</linearGradient>
<linearGradient id="paint56_linear_3299_546676" x1="354.603" y1="635.323" x2="650.13" y2="369.23" gradientUnits="userSpaceOnUse">
<stop stop-color="#CEE8FA"/>
<stop offset="1" stop-color="#1D93E3"/>
</linearGradient>
<linearGradient id="paint57_linear_3299_546676" x1="348.558" y1="633.88" x2="648.074" y2="373.515" gradientUnits="userSpaceOnUse">
<stop stop-color="#CEE8FA"/>
<stop offset="1" stop-color="#1D93E3"/>
</linearGradient>
<linearGradient id="paint58_linear_3299_546676" x1="342.569" y1="632.407" x2="645.964" y2="377.828" gradientUnits="userSpaceOnUse">
<stop stop-color="#CEE8FA"/>
<stop offset="1" stop-color="#1D93E3"/>
</linearGradient>
<linearGradient id="paint59_linear_3299_546676" x1="336.633" y1="630.908" x2="643.797" y2="382.171" gradientUnits="userSpaceOnUse">
<stop stop-color="#CEE8FA"/>
<stop offset="1" stop-color="#1D93E3"/>
</linearGradient>
<linearGradient id="paint60_linear_3299_546676" x1="330.751" y1="629.38" x2="641.572" y2="386.54" gradientUnits="userSpaceOnUse">
<stop stop-color="#CEE8FA"/>
<stop offset="1" stop-color="#1D93E3"/>
</linearGradient>
<linearGradient id="paint61_linear_3299_546676" x1="324.925" y1="627.828" x2="639.292" y2="390.936" gradientUnits="userSpaceOnUse">
<stop stop-color="#CEE8FA"/>
<stop offset="1" stop-color="#1D93E3"/>
</linearGradient>
<linearGradient id="paint62_linear_3299_546676" x1="319.155" y1="626.251" x2="636.953" y2="395.357" gradientUnits="userSpaceOnUse">
<stop stop-color="#CEE8FA"/>
<stop offset="1" stop-color="#1D93E3"/>
</linearGradient>
<linearGradient id="paint63_linear_3299_546676" x1="313.437" y1="624.651" x2="634.555" y2="399.801" gradientUnits="userSpaceOnUse">
<stop stop-color="#CEE8FA"/>
<stop offset="1" stop-color="#1D93E3"/>
</linearGradient>
<linearGradient id="paint64_linear_3299_546676" x1="307.778" y1="623.028" x2="632.101" y2="404.269" gradientUnits="userSpaceOnUse">
<stop stop-color="#CEE8FA"/>
<stop offset="1" stop-color="#1D93E3"/>
</linearGradient>
<linearGradient id="paint65_linear_3299_546676" x1="302.173" y1="621.382" x2="629.587" y2="408.757" gradientUnits="userSpaceOnUse">
<stop stop-color="#CEE8FA"/>
<stop offset="1" stop-color="#1D93E3"/>
</linearGradient>
<linearGradient id="paint66_linear_3299_546676" x1="296.627" y1="619.718" x2="627.016" y2="413.268" gradientUnits="userSpaceOnUse">
<stop stop-color="#CEE8FA"/>
<stop offset="1" stop-color="#1D93E3"/>
</linearGradient>
<linearGradient id="paint67_linear_3299_546676" x1="291.136" y1="618.034" x2="624.385" y2="417.797" gradientUnits="userSpaceOnUse">
<stop stop-color="#CEE8FA"/>
<stop offset="1" stop-color="#1D93E3"/>
</linearGradient>
<linearGradient id="paint68_linear_3299_546676" x1="285.702" y1="616.331" x2="621.695" y2="422.345" gradientUnits="userSpaceOnUse">
<stop stop-color="#CEE8FA"/>
<stop offset="1" stop-color="#1D93E3"/>
</linearGradient>
<linearGradient id="paint69_linear_3299_546676" x1="280.325" y1="614.613" x2="618.945" y2="426.912" gradientUnits="userSpaceOnUse">
<stop stop-color="#CEE8FA"/>
<stop offset="1" stop-color="#1D93E3"/>
</linearGradient>
<linearGradient id="paint70_linear_3299_546676" x1="275.005" y1="612.875" x2="616.136" y2="431.493" gradientUnits="userSpaceOnUse">
<stop stop-color="#CEE8FA"/>
<stop offset="1" stop-color="#1D93E3"/>
</linearGradient>
<linearGradient id="paint71_linear_3299_546676" x1="269.743" y1="611.125" x2="613.267" y2="436.09" gradientUnits="userSpaceOnUse">
<stop stop-color="#CEE8FA"/>
<stop offset="1" stop-color="#1D93E3"/>
</linearGradient>
<linearGradient id="paint72_linear_3299_546676" x1="264.539" y1="609.36" x2="610.34" y2="440.702" gradientUnits="userSpaceOnUse">
<stop stop-color="#CEE8FA"/>
<stop offset="1" stop-color="#1D93E3"/>
</linearGradient>
<linearGradient id="paint73_linear_3299_546676" x1="259.392" y1="607.583" x2="607.351" y2="445.328" gradientUnits="userSpaceOnUse">
<stop stop-color="#CEE8FA"/>
<stop offset="1" stop-color="#1D93E3"/>
</linearGradient>
<linearGradient id="paint74_linear_3299_546676" x1="254.302" y1="605.792" x2="604.301" y2="449.963" gradientUnits="userSpaceOnUse">
<stop stop-color="#CEE8FA"/>
<stop offset="1" stop-color="#1D93E3"/>
</linearGradient>
<linearGradient id="paint75_linear_3299_546676" x1="249.272" y1="603.992" x2="601.193" y2="454.61" gradientUnits="userSpaceOnUse">
<stop stop-color="#CEE8FA"/>
<stop offset="1" stop-color="#1D93E3"/>
</linearGradient>
<linearGradient id="paint76_linear_3299_546676" x1="244.299" y1="602.182" x2="598.024" y2="459.268" gradientUnits="userSpaceOnUse">
<stop stop-color="#CEE8FA"/>
<stop offset="1" stop-color="#1D93E3"/>
</linearGradient>
<linearGradient id="paint77_linear_3299_546676" x1="239.383" y1="600.364" x2="594.794" y2="463.934" gradientUnits="userSpaceOnUse">
<stop stop-color="#CEE8FA"/>
<stop offset="1" stop-color="#1D93E3"/>
</linearGradient>
<linearGradient id="paint78_linear_3299_546676" x1="234.526" y1="598.536" x2="591.505" y2="468.606" gradientUnits="userSpaceOnUse">
<stop stop-color="#CEE8FA"/>
<stop offset="1" stop-color="#1D93E3"/>
</linearGradient>
<linearGradient id="paint79_linear_3299_546676" x1="229.727" y1="596.704" x2="588.154" y2="473.287" gradientUnits="userSpaceOnUse">
<stop stop-color="#CEE8FA"/>
<stop offset="1" stop-color="#1D93E3"/>
</linearGradient>
<linearGradient id="paint80_linear_3299_546676" x1="224.985" y1="594.864" x2="584.744" y2="477.971" gradientUnits="userSpaceOnUse">
<stop stop-color="#CEE8FA"/>
<stop offset="1" stop-color="#1D93E3"/>
</linearGradient>
<linearGradient id="paint81_linear_3299_546676" x1="220.301" y1="593.021" x2="581.272" y2="482.661" gradientUnits="userSpaceOnUse">
<stop stop-color="#CEE8FA"/>
<stop offset="1" stop-color="#1D93E3"/>
</linearGradient>
<linearGradient id="paint82_linear_3299_546676" x1="215.677" y1="591.173" x2="577.742" y2="487.353" gradientUnits="userSpaceOnUse">
<stop stop-color="#CEE8FA"/>
<stop offset="1" stop-color="#1D93E3"/>
</linearGradient>
<linearGradient id="paint83_linear_3299_546676" x1="211.11" y1="589.325" x2="574.15" y2="492.048" gradientUnits="userSpaceOnUse">
<stop stop-color="#CEE8FA"/>
<stop offset="1" stop-color="#1D93E3"/>
</linearGradient>
<linearGradient id="paint84_linear_3299_546676" x1="206.6" y1="587.473" x2="570.499" y2="496.743" gradientUnits="userSpaceOnUse">
<stop stop-color="#CEE8FA"/>
<stop offset="1" stop-color="#1D93E3"/>
</linearGradient>
<linearGradient id="paint85_linear_3299_546676" x1="202.149" y1="585.621" x2="566.789" y2="501.438" gradientUnits="userSpaceOnUse">
<stop stop-color="#CEE8FA"/>
<stop offset="1" stop-color="#1D93E3"/>
</linearGradient>
<linearGradient id="paint86_linear_3299_546676" x1="197.754" y1="583.772" x2="563.017" y2="506.133" gradientUnits="userSpaceOnUse">
<stop stop-color="#CEE8FA"/>
<stop offset="1" stop-color="#1D93E3"/>
</linearGradient>
<linearGradient id="paint87_linear_3299_546676" x1="193.419" y1="581.923" x2="559.188" y2="510.825" gradientUnits="userSpaceOnUse">
<stop stop-color="#CEE8FA"/>
<stop offset="1" stop-color="#1D93E3"/>
</linearGradient>
<linearGradient id="paint88_linear_3299_546676" x1="189.138" y1="580.077" x2="555.296" y2="515.514" gradientUnits="userSpaceOnUse">
<stop stop-color="#CEE8FA"/>
<stop offset="1" stop-color="#1D93E3"/>
</linearGradient>
<linearGradient id="paint89_linear_3299_546676" x1="184.917" y1="578.237" x2="551.348" y2="520.2" gradientUnits="userSpaceOnUse">
<stop stop-color="#CEE8FA"/>
<stop offset="1" stop-color="#1D93E3"/>
</linearGradient>
<linearGradient id="paint90_linear_3299_546676" x1="180.752" y1="576.398" x2="547.339" y2="524.877" gradientUnits="userSpaceOnUse">
<stop stop-color="#CEE8FA"/>
<stop offset="1" stop-color="#1D93E3"/>
</linearGradient>
<linearGradient id="paint91_linear_3299_546676" x1="176.643" y1="574.567" x2="543.27" y2="529.551" gradientUnits="userSpaceOnUse">
<stop stop-color="#CEE8FA"/>
<stop offset="1" stop-color="#1D93E3"/>
</linearGradient>
<linearGradient id="paint92_linear_3299_546676" x1="172.591" y1="572.742" x2="539.145" y2="534.216" gradientUnits="userSpaceOnUse">
<stop stop-color="#CEE8FA"/>
<stop offset="1" stop-color="#1D93E3"/>
</linearGradient>
<linearGradient id="paint93_linear_3299_546676" x1="168.595" y1="570.927" x2="534.96" y2="538.874" gradientUnits="userSpaceOnUse">
<stop stop-color="#CEE8FA"/>
<stop offset="1" stop-color="#1D93E3"/>
</linearGradient>
<linearGradient id="paint94_linear_3299_546676" x1="164.656" y1="569.118" x2="530.718" y2="543.521" gradientUnits="userSpaceOnUse">
<stop stop-color="#CEE8FA"/>
<stop offset="1" stop-color="#1D93E3"/>
</linearGradient>
<linearGradient id="paint95_linear_3299_546676" x1="160.771" y1="567.321" x2="526.417" y2="548.158" gradientUnits="userSpaceOnUse">
<stop stop-color="#CEE8FA"/>
<stop offset="1" stop-color="#1D93E3"/>
</linearGradient>
<linearGradient id="paint96_linear_3299_546676" x1="156.941" y1="565.531" x2="522.059" y2="552.781" gradientUnits="userSpaceOnUse">
<stop stop-color="#CEE8FA"/>
<stop offset="1" stop-color="#1D93E3"/>
</linearGradient>
<linearGradient id="paint97_linear_3299_546676" x1="153.169" y1="563.756" x2="517.645" y2="557.394" gradientUnits="userSpaceOnUse">
<stop stop-color="#CEE8FA"/>
<stop offset="1" stop-color="#1D93E3"/>
</linearGradient>
<linearGradient id="paint98_linear_3299_546676" x1="149.45" y1="561.993" x2="513.174" y2="561.993" gradientUnits="userSpaceOnUse">
<stop stop-color="#CEE8FA"/>
<stop offset="1" stop-color="#1D93E3"/>
</linearGradient>
</defs>
</svg>
